<svg width="15" height="9" viewBox="0 0 15 9" fill="none" xmlns="http://www.w3.org/2000/svg">
<path d="M6.9147 0.244363L0.239632 7.06168C0.0851212 7.21936 -6.86339e-08 7.42984 -5.88236e-08 7.65427C-4.90133e-08 7.87871 0.0851212 8.08919 0.239632 8.24687L0.731092 8.74891C1.05133 9.0756 1.57182 9.0756 1.89157 8.74891L7.49689 3.02425L13.1084 8.75527C13.2629 8.91294 13.4689 9 13.6885 9C13.9084 9 14.1144 8.91294 14.269 8.75526L14.7604 8.25322C14.9149 8.09542 15 7.88506 15 7.66062C15 7.43619 14.9149 7.22571 14.7604 7.06803L8.0792 0.244363C7.9242 0.0863129 7.71725 -0.000495294 7.49726 2.53331e-06C7.2764 -0.000495275 7.06958 0.0863129 6.9147 0.244363Z" fill="#2667B2"/>
</svg>
