<svg width="35" height="35" viewBox="0 0 35 35" fill="none" xmlns="http://www.w3.org/2000/svg">
<circle cx="17.5" cy="17.5" r="17.5" fill="#F5F5F6"/>
<path d="M20.3778 16.6878L16.9692 13.1278C16.8903 13.0454 16.7851 13 16.6729 13C16.5606 13 16.4554 13.0454 16.3766 13.1278L16.1255 13.3899C15.9622 13.5607 15.9622 13.8383 16.1255 14.0088L18.9879 16.9983L16.1224 19.9912C16.0435 20.0736 16 20.1834 16 20.3006C16 20.4178 16.0435 20.5277 16.1224 20.6101L16.3734 20.8722C16.4523 20.9546 16.5575 21 16.6697 21C16.7819 21 16.8871 20.9546 16.966 20.8722L20.3778 17.3089C20.4568 17.2262 20.5002 17.1159 20.5 16.9985C20.5002 16.8807 20.4568 16.7704 20.3778 16.6878Z" fill="#5D5D62"/>
</svg>
