<svg width="35" height="35" viewBox="0 0 35 35" fill="none" xmlns="http://www.w3.org/2000/svg">
<circle cx="17.5" cy="17.5" r="17.5" transform="matrix(-1 0 0 1 35 0)" fill="#2667B2"/>
<path d="M20.3778 17.6878L16.9692 14.1278C16.8903 14.0454 16.7851 14 16.6729 14C16.5606 14 16.4554 14.0454 16.3766 14.1278L16.1255 14.3899C15.9622 14.5607 15.9622 14.8383 16.1255 15.0088L18.9879 17.9983L16.1224 20.9912C16.0435 21.0736 16 21.1834 16 21.3006C16 21.4178 16.0435 21.5277 16.1224 21.6102L16.3734 21.8722C16.4523 21.9546 16.5575 22 16.6697 22C16.7819 22 16.8871 21.9546 16.966 21.8722L20.3778 18.3089C20.4568 18.2262 20.5002 18.1159 20.5 17.9985C20.5002 17.8807 20.4568 17.7704 20.3778 17.6878Z" fill="white"/>
</svg>
