<svg width="35" height="35" viewBox="0 0 35 35" fill="none" xmlns="http://www.w3.org/2000/svg">
<circle cx="17.5" cy="17.5" r="17.5" transform="matrix(1 8.74228e-08 8.74228e-08 -1 0 35)" fill="#2667B2"/>
<path d="M14.6222 17.3122L18.0308 20.8722C18.1097 20.9546 18.2149 21 18.3271 21C18.4394 21 18.5446 20.9546 18.6234 20.8722L18.8745 20.6101C19.0378 20.4393 19.0378 20.1617 18.8745 19.9912L16.0121 17.0017L18.8776 14.0088C18.9565 13.9264 19 13.8166 19 13.6994C19 13.5822 18.9565 13.4723 18.8776 13.3898L18.6266 13.1278C18.5477 13.0454 18.4425 13 18.3303 13C18.2181 13 18.1129 13.0454 18.034 13.1278L14.6222 16.6911C14.5432 16.7738 14.4998 16.8841 14.5 17.0015C14.4998 17.1193 14.5432 17.2296 14.6222 17.3122Z" fill="white"/>
</svg>
