<svg width="35" height="35" viewBox="0 0 35 35" fill="none" xmlns="http://www.w3.org/2000/svg">
<circle cx="17.5" cy="17.5" r="17.5" fill="#F5F5F6"/>
<path d="M14.6222 16.6878L18.0308 13.1278C18.1097 13.0454 18.2149 13 18.3271 13C18.4394 13 18.5446 13.0454 18.6234 13.1278L18.8745 13.3899C19.0378 13.5607 19.0378 13.8383 18.8745 14.0088L16.0121 16.9983L18.8776 19.9912C18.9565 20.0736 19 20.1834 19 20.3006C19 20.4178 18.9565 20.5277 18.8776 20.6101L18.6266 20.8722C18.5477 20.9546 18.4425 21 18.3303 21C18.2181 21 18.1129 20.9546 18.034 20.8722L14.6222 17.3089C14.5432 17.2262 14.4998 17.1159 14.5 16.9985C14.4998 16.8807 14.5432 16.7704 14.6222 16.6878Z" fill="#5D5D62"/>
</svg>
