<svg width="15" height="19" viewBox="0 0 15 19" fill="none" xmlns="http://www.w3.org/2000/svg">
<path fill-rule="evenodd" clip-rule="evenodd" d="M10.8483 18.894C11.4788 18.894 11.8649 18.4712 11.8649 17.8767V13.7841L13.0513 14.9891C13.2737 15.1986 13.5616 15.3034 13.8585 15.3034C14.1553 15.3034 14.4422 15.1986 14.6656 14.9891C15.1114 14.5692 15.1114 13.8964 14.6656 13.4774L11.6247 10.4454C11.1789 10.0255 10.4641 10.0255 10.0194 10.4454L6.9874 13.5057C6.54164 13.9256 6.54164 14.5985 6.9874 15.0184C7.43216 15.4374 8.14697 15.4374 8.59273 15.0184L9.84066 13.7841V17.8767C9.84066 18.4712 10.2169 18.894 10.8483 18.894Z" fill="#EA1F1F"/>
<path d="M4.03991 14.0248H1V1.89404H10.8633C10.8633 1.89404 10.8683 3.82571 10.8752 6.77935" stroke="#EA1F1F" stroke-width="2" stroke-linecap="round" stroke-linejoin="round"/>
<path d="M3.91577 6.54639H7.88493" stroke="#EA1F1F" stroke-width="2" stroke-linejoin="round"/>
<path d="M3.91577 10.2859H7.88493" stroke="#EA1F1F" stroke-width="2" stroke-linejoin="round"/>
</svg>
