<svg width="36" height="43" viewBox="0 0 36 43" fill="none" xmlns="http://www.w3.org/2000/svg">
<path d="M0.813906 7.82857H3.14709L6.47055 21.3295C6.56549 21.7257 6.89106 22 7.25732 22H17.4718C17.7974 22 18.0823 21.7866 18.2179 21.4514L21.9347 11.8514C22.0433 11.5619 22.0161 11.2419 21.8669 10.9829C21.7177 10.7238 21.4599 10.5714 21.1886 10.5714H9.90251C9.45486 10.5714 9.0886 10.9829 9.0886 11.4857C9.0886 11.9886 9.45486 12.4 9.90251 12.4H19.9407L16.9293 20.1714H7.86774L4.54433 6.67049C4.44939 6.27429 4.12382 6 3.75757 6H0.813906C0.366258 6 0 6.41143 0 6.91429C0 7.41714 0.366258 7.82857 0.813906 7.82857Z" fill="#2667B2"/>
<path d="M6.48571 29C7.50309 29 8.33055 28.0883 8.33055 26.9674C8.33055 25.8464 7.50309 24.9347 6.48571 24.9347C5.46832 24.9347 4.64087 25.8463 4.64087 26.9673C4.64087 28.0883 5.46832 29 6.48571 29Z" fill="#2667B2"/>
<path d="M18.0132 28.9991C18.0539 28.9991 18.1082 28.9991 18.1489 28.9991C18.6372 28.9543 19.0849 28.7152 19.4104 28.2966C19.736 27.8931 19.8852 27.37 19.8581 26.817C19.7902 25.7109 18.9085 24.859 17.8911 24.9338C16.8738 25.0085 16.1141 25.995 16.1819 27.1009C16.2497 28.1621 17.0501 28.9991 18.0132 28.9991Z" fill="#2667B2"/>
<rect x="15" y="1" width="20" height="14" rx="7" fill="#EA1F1F"/>
<path d="M22.958 12V5.62L21.572 6.005L21.286 4.905L23.354 4.245H24.3V12H22.958ZM27.3193 12V5.62L25.9333 6.005L25.6473 4.905L27.7153 4.245H28.6613V12H27.3193Z" fill="white"/>
<path d="M28.7857 26.1802C28.2393 26.4957 28.0519 27.1951 28.3673 27.7415L29.034 28.8962C29.0866 28.9873 29.0554 29.1039 28.9643 29.1564C28.8733 29.209 28.7567 29.1778 28.7041 29.0867L27.6565 27.2721C27.341 26.7257 26.6416 26.5383 26.0952 26.8538C25.5489 27.1692 25.3614 27.8686 25.6769 28.415L26.7246 30.2296C26.7771 30.3207 26.7459 30.4372 26.6548 30.4898C26.5638 30.5424 26.4472 30.5111 26.3946 30.4201L24.966 27.9456C24.6506 27.3993 23.9511 27.2119 23.4048 27.5273C22.8584 27.8427 22.671 28.5422 22.9864 29.0885L24.4151 31.563C24.4676 31.6541 24.4364 31.7706 24.3453 31.8232C24.2543 31.8758 24.1377 31.8445 24.0851 31.7535L20.1802 24.99C19.8648 24.4436 19.1653 24.2562 18.619 24.5716C18.0726 24.8871 17.8852 25.5865 18.2007 26.1329L22.6553 33.8485L19.7809 33.7722L19.7789 33.7734C19.5804 33.7648 19.3718 33.8149 19.1804 33.9254C18.6327 34.2416 18.4459 34.9389 18.7621 35.4866C18.8726 35.6779 19.032 35.8322 19.2186 35.9268L19.2158 35.925L25.2092 39.2823C26.1467 39.8074 27.2915 39.8001 28.2225 39.2626L32.6601 36.7006C34.1177 35.859 34.6172 33.9949 33.7756 32.5373L30.3469 26.5986C30.0315 26.0522 29.332 25.8648 28.7857 26.1802Z" fill="#B3B3B7"/>
</svg>
