<svg width="22" height="22" viewBox="0 0 22 22" fill="none" xmlns="http://www.w3.org/2000/svg">
<path d="M0.813906 1.79354H3.14709L6.47055 15.0358C6.56549 15.4244 6.89106 15.6934 7.25732 15.6934H17.4718C17.7974 15.6934 18.0823 15.4842 18.2179 15.1554L21.9347 5.73932C22.0433 5.45536 22.0161 5.14149 21.8669 4.88739C21.7177 4.63329 21.4599 4.48384 21.1886 4.48384H9.90251C9.45486 4.48384 9.0886 4.88739 9.0886 5.38061C9.0886 5.87383 9.45486 6.27738 9.90251 6.27738H19.9407L16.9293 13.8999H7.86774L4.54433 0.657648C4.44939 0.26903 4.12382 0 3.75757 0H0.813906C0.366258 0 0 0.403546 0 0.896768C0 1.38999 0.366258 1.79354 0.813906 1.79354Z" fill="#5D5D62"/>
<path d="M6.48546 21.9999C7.50285 21.9999 8.3303 21.0882 8.3303 19.9672C8.3303 18.8463 7.50285 17.9346 6.48546 17.9346C5.46808 17.9346 4.64062 18.8462 4.64062 19.9672C4.64062 21.0881 5.46808 21.9999 6.48546 21.9999Z" fill="#5D5D62"/>
<path d="M18.0132 21.9991C18.0539 21.9991 18.1082 21.9991 18.1489 21.9991C18.6372 21.9543 19.0849 21.7152 19.4104 21.2966C19.736 20.8931 19.8852 20.37 19.8581 19.817C19.7902 18.7109 18.9085 17.859 17.8911 17.9338C16.8738 18.0085 16.1141 18.995 16.1819 20.1009C16.2497 21.1621 17.0501 21.9991 18.0132 21.9991Z" fill="#5D5D62"/>
</svg>
