<svg width="18" height="18" viewBox="0 0 18 18" fill="none" xmlns="http://www.w3.org/2000/svg">
<path d="M0.665901 1.48571H2.5748L5.29391 12.4552C5.37159 12.7771 5.63795 13 5.9376 13H14.2947C14.561 13 14.7941 12.8267 14.9051 12.5543L17.946 4.75429C18.0348 4.51906 18.0126 4.25906 17.8905 4.04857C17.7684 3.83808 17.5575 3.71429 17.3356 3.71429H14.2947C13.9284 3.71429 13.6288 4.04857 13.6288 4.45714C13.6288 4.86571 13.9284 5.2 14.2947 5.2H16.3146L13.8507 11.5143H6.43703L3.71796 0.544776C3.64028 0.222857 3.37392 0 3.07427 0H0.665901C0.299655 0 0 0.334286 0 0.742857C0 1.15143 0.299655 1.48571 0.665901 1.48571Z" fill="white"/>
<rect x="8.54883" y="1.39966" width="1.5" height="6" rx="0.75" fill="white"/>
<rect x="12.2988" y="3.64966" width="1.5" height="6" rx="0.75" transform="rotate(90 12.2988 3.64966)" fill="white"/>
<path d="M5.5 18C6.32721 18 7 17.3272 7 16.5C7 15.6728 6.32721 15 5.5 15C4.67279 15 4 15.6727 4 16.5C4 17.3272 4.67279 18 5.5 18Z" fill="white"/>
<path d="M14.4949 18C14.5281 18 14.5722 18 14.6054 18C15.0031 17.9669 15.3677 17.7907 15.6329 17.4822C15.898 17.1847 16.0196 16.7991 15.9974 16.3915C15.9422 15.5762 15.2241 14.9483 14.3955 15.0034C13.5669 15.0585 12.9482 15.7856 13.0034 16.6008C13.0586 17.383 13.7105 18 14.4949 18Z" fill="white"/>
</svg>
