<svg width="29" height="20" viewBox="0 0 29 20" fill="none" xmlns="http://www.w3.org/2000/svg">
<path d="M28.6959 18.2168L23.7656 13.2662C25.0332 11.8113 25.7278 9.98069 25.7278 8.07499C25.7278 3.62251 21.9757 0 17.3639 0C12.7521 0 9 3.62251 9 8.07499C9 12.5275 12.7521 16.15 17.3639 16.15C19.0952 16.15 20.7451 15.6458 22.1557 14.6888L27.1235 19.677C27.3311 19.8852 27.6104 20 27.9097 20C28.193 20 28.4617 19.8957 28.6657 19.7061C29.0992 19.3034 29.113 18.6357 28.6959 18.2168ZM17.3639 2.10652C20.7727 2.10652 23.5459 4.78391 23.5459 8.07499C23.5459 11.3661 20.7727 14.0435 17.3639 14.0435C13.9551 14.0435 11.1819 11.3661 11.1819 8.07499C11.1819 4.78391 13.9551 2.10652 17.3639 2.10652Z" fill="#5D5D62"/>
<rect y="18" width="16" height="2" rx="1" fill="#5D5D62"/>
<rect y="12" width="8" height="2" rx="1" fill="#5D5D62"/>
<rect y="6" width="6" height="2" rx="1" fill="#5D5D62"/>
</svg>
