<svg width="14" height="14" viewBox="0 0 14 14" fill="none" xmlns="http://www.w3.org/2000/svg">
<path d="M0.719919 14.0004C0.5355 14.0004 0.351081 13.9302 0.210965 13.789C-0.0703217 13.5077 -0.0703217 13.0517 0.210965 12.7704L12.7704 0.210965C13.0517 -0.0703217 13.5077 -0.0703217 13.789 0.210965C14.0703 0.492252 14.0703 0.948288 13.789 1.22975L1.22975 13.789C1.08858 13.9293 0.904162 14.0004 0.719919 14.0004Z" fill="white"/>
<path d="M13.2803 14.0004C13.0958 14.0004 12.9116 13.9302 12.7713 13.789L0.210965 1.22975C-0.0703217 0.948288 -0.0703217 0.492252 0.210965 0.210965C0.492252 -0.0703217 0.948288 -0.0703217 1.22975 0.210965L13.789 12.7704C14.0703 13.0517 14.0703 13.5077 13.789 13.789C13.6479 13.9293 13.4636 14.0004 13.2803 14.0004Z" fill="white"/>
</svg>
