<svg width="16" height="16" viewBox="0 0 16 16" fill="none" xmlns="http://www.w3.org/2000/svg">
<path d="M0.822764 16.0004C0.612 16.0004 0.401236 15.9202 0.241103 15.7589C-0.0803677 15.4374 -0.0803677 14.9162 0.241103 14.5948L14.5948 0.241103C14.9162 -0.0803677 15.4374 -0.0803677 15.7589 0.241103C16.0804 0.562574 16.0804 1.08376 15.7589 1.40543L1.40543 15.7589C1.24409 15.9192 1.03333 16.0004 0.822764 16.0004Z" fill="#5D5D62"/>
<path d="M15.1774 16.0004C14.9667 16.0004 14.7561 15.9202 14.5958 15.7589L0.241103 1.40543C-0.0803677 1.08376 -0.0803677 0.562574 0.241103 0.241103C0.562574 -0.0803677 1.08376 -0.0803677 1.40543 0.241103L15.7589 14.5948C16.0804 14.9162 16.0804 15.4374 15.7589 15.7589C15.5976 15.9192 15.387 16.0004 15.1774 16.0004Z" fill="#5D5D62"/>
</svg>
