<svg width="18" height="18" viewBox="0 0 18 18" fill="none" xmlns="http://www.w3.org/2000/svg">
<path d="M0.92561 18.0005C0.6885 18.0005 0.45139 17.9103 0.271241 17.7288C-0.0904136 17.3671 -0.0904136 16.7808 0.271241 16.4191L16.4191 0.271241C16.7808 -0.0904136 17.3671 -0.0904136 17.7288 0.271241C18.0904 0.632895 18.0904 1.21923 17.7288 1.58111L1.58111 17.7288C1.3996 17.9091 1.16249 18.0005 0.92561 18.0005Z" fill="#B3B3B7"/>
<path d="M17.0746 18.0005C16.8375 18.0005 16.6006 17.9103 16.4202 17.7288L0.271241 1.58111C-0.0904136 1.21923 -0.0904136 0.632895 0.271241 0.271241C0.632895 -0.0904136 1.21923 -0.0904136 1.58111 0.271241L17.7288 16.4191C18.0904 16.7808 18.0904 17.3671 17.7288 17.7288C17.5473 17.9091 17.3104 18.0005 17.0746 18.0005Z" fill="#B3B3B7"/>
</svg>
