<svg width="18" height="18" viewBox="0 0 18 18" fill="none" xmlns="http://www.w3.org/2000/svg">
<path d="M9 18C10.78 18 12.5201 17.4722 14.0001 16.4832C15.4802 15.4943 16.6337 14.0887 17.3149 12.4442C17.9961 10.7996 18.1743 8.99002 17.8271 7.24419C17.4798 5.49836 16.6226 3.89472 15.364 2.63604C14.1053 1.37737 12.5016 0.520203 10.7558 0.172936C9.00998 -0.17433 7.20038 0.00389959 5.55585 0.685088C3.91131 1.36628 2.50571 2.51983 1.51677 3.99987C0.527841 5.47991 0 7.21997 0 9C0.00281493 11.3861 0.95193 13.6736 2.63915 15.3609C4.32637 17.0481 6.61391 17.9972 9 18ZM9 1.63637C10.4564 1.63637 11.8801 2.06824 13.091 2.87736C14.302 3.68649 15.2458 4.83653 15.8031 6.18206C16.3604 7.52759 16.5063 9.00817 16.2221 10.4366C15.938 11.865 15.2367 13.1771 14.2069 14.2069C13.1771 15.2367 11.865 15.938 10.4366 16.2221C9.00817 16.5063 7.52759 16.3605 6.18206 15.8031C4.83653 15.2458 3.68649 14.302 2.87736 13.091C2.06823 11.8801 1.63636 10.4564 1.63636 9C1.63853 7.04771 2.41503 5.176 3.79551 3.79552C5.17599 2.41504 7.04771 1.63853 9 1.63637Z" fill="#2667B2"/>
<path d="M5.96807 12.033C6.1215 12.1864 6.32957 12.2725 6.54652 12.2725C6.76348 12.2725 6.97155 12.1864 7.12498 12.033L9.00107 10.1569L10.8772 12.033C11.0315 12.182 11.2381 12.2645 11.4527 12.2626C11.6672 12.2608 11.8724 12.1747 12.0241 12.023C12.1758 11.8713 12.2618 11.6661 12.2637 11.4516C12.2656 11.2371 12.1831 11.0304 12.0341 10.8761L10.158 8.99998L12.0341 7.12389C12.1831 6.96958 12.2656 6.7629 12.2637 6.54838C12.2618 6.33385 12.1758 6.12864 12.0241 5.97694C11.8724 5.82525 11.6672 5.7392 11.4527 5.73734C11.2381 5.73547 11.0315 5.81794 10.8772 5.96698L9.00107 7.84307L7.12498 5.96698C6.97067 5.81794 6.76399 5.73547 6.54947 5.73734C6.33494 5.7392 6.12973 5.82525 5.97803 5.97694C5.82634 6.12864 5.74029 6.33385 5.73843 6.54838C5.73656 6.7629 5.81903 6.96958 5.96807 7.12389L7.84416 8.99998L5.96807 10.8761C5.81468 11.0295 5.72852 11.2376 5.72852 11.4545C5.72852 11.6715 5.81468 11.8795 5.96807 12.033Z" fill="#2667B2"/>
</svg>
