<svg width="220" height="57" viewBox="0 0 220 57" fill="none" xmlns="http://www.w3.org/2000/svg">
<g filter="url(#filter0_d_0_783)">
<path d="M7 4C7 3.44772 7.44772 3 8 3H211.5C212.052 3 212.5 3.44772 212.5 4V37C212.5 37.5523 212.052 38 211.5 38H195.026C194.697 38 194.389 38.1621 194.202 38.4335L189.729 44.9395C189.359 45.4772 188.582 45.5225 188.153 45.0314L182.299 38.3415C182.109 38.1245 181.835 38 181.546 38H8C7.44772 38 7 37.5523 7 37V4Z" fill="white"/>
<path d="M7.5 4C7.5 3.72386 7.72386 3.5 8 3.5H211.5C211.776 3.5 212 3.72386 212 4V37C212 37.2761 211.776 37.5 211.5 37.5H195.026C194.532 37.5 194.07 37.7432 193.79 38.1502L189.317 44.6562C189.132 44.925 188.744 44.9477 188.529 44.7022L188.153 45.0314L188.529 44.7022L182.675 38.0122C182.39 37.6867 181.979 37.5 181.546 37.5H8C7.72386 37.5 7.5 37.2761 7.5 37V4Z" stroke="#F1F1F1"/>
</g>
<defs>
<filter id="filter0_d_0_783" x="0" y="0" width="219.5" height="56.373" filterUnits="userSpaceOnUse" color-interpolation-filters="sRGB">
<feFlood flood-opacity="0" result="BackgroundImageFix"/>
<feColorMatrix in="SourceAlpha" type="matrix" values="0 0 0 0 0 0 0 0 0 0 0 0 0 0 0 0 0 0 127 0" result="hardAlpha"/>
<feOffset dy="4"/>
<feGaussianBlur stdDeviation="3.5"/>
<feComposite in2="hardAlpha" operator="out"/>
<feColorMatrix type="matrix" values="0 0 0 0 0.184314 0 0 0 0 0.203922 0 0 0 0 0.211765 0 0 0 0.12 0"/>
<feBlend mode="normal" in2="BackgroundImageFix" result="effect1_dropShadow_0_783"/>
<feBlend mode="normal" in="SourceGraphic" in2="effect1_dropShadow_0_783" result="shape"/>
</filter>
</defs>
</svg>
