<svg width="1920" height="490" viewBox="0 0 1920 490" fill="none" xmlns="http://www.w3.org/2000/svg">
<mask id="mask0_1971_1080" style="mask-type:alpha" maskUnits="userSpaceOnUse" x="0" y="0" width="1920" height="490">
<rect width="1920" height="490" fill="#D9D9D9"/>
</mask>
<g mask="url(#mask0_1971_1080)">
<rect width="1920" height="490" fill="#FFF4ED"/>
<path d="M1700.7 83.2C1694.9 103.4 1684.3 123.2 1665.9 132.9C1649.2 141.7 1629.2 140.6 1610.7 144.7C1563 155.1 1527.4 204.8 1532.8 253.3C1535.7 279.5 1548.2 308.8 1532.7 330.1C1523.8 342.3 1508.4 347.3 1494.4 352.8C1470.7 362.1 1448.4 374.6 1428.2 390C1412.8 401.7 1397.9 416.3 1393.5 435.1C1386.4 465.3 1408.1 494.1 1428.4 517.6C1446.9 539.1 1467.1 561.8 1494.5 569.4C1517.7 575.8 1542.4 570.4 1565.8 564.9C1627.6 550.5 1707.8 576.2 1768.7 557.9C1821.5 542.1 1906.8 553.3 1942 508.7C1979.5 465.4 1953.5 333.9 1956.4 276.7C1959.2 219.5 1965.7 161.8 1950.1 106.7C1932 42.7 1997.6 2.90002 1949.5 -43C1935.3 -56.3 1803.2 -95 1786.1 -77.6C1779.6 -71 1779.2 -60.2 1774 -52.5C1769.6 -45.9 1763.1 -40.3 1756.9 -35.5C1739 -21.3 1724.3 -10.9 1716.2 11.7C1708.6 33 1707.3 56 1702 77.9C1701.6 79.8 1701.2 81.5 1700.7 83.2Z" fill="#FFE3D1"/>
<path d="M1770.31 415.243C1770.6 411.893 1775.84 407.232 1778.03 406.358C1783.13 404.465 1788.51 407.96 1790.99 412.476C1791.72 407.96 1792.45 403.445 1794.78 399.512C1796.96 395.579 1801.04 392.229 1805.56 392.229C1810.95 392.083 1815.32 396.308 1818.08 400.969C1819.69 392.812 1822.6 383.635 1827.7 376.935C1830.32 373.439 1834.69 368.924 1839.35 370.089C1844.01 371.254 1847.51 377.954 1848.96 382.033C1851 387.859 1851 394.123 1850.71 400.24C1851.88 396.599 1855.37 394.123 1859.16 393.394C1863.09 392.666 1868.92 393.54 1872.41 395.288C1873.43 395.725 1881.01 404.028 1879.41 404.61C1887.27 401.988 1899.07 399.949 1903.59 409.563C1904.75 411.893 1904.75 413.787 1904.31 415.243H1770.31Z" fill="#FBE4AE"/>
<path d="M1591 304.25C1591.73 300.755 1592.89 297.404 1594.93 294.346C1598.43 289.393 1605.42 286.334 1610.66 289.247C1614.01 290.995 1615.91 294.491 1617.07 298.133C1617.95 293.472 1619.4 288.81 1622.17 285.023C1624.94 281.236 1629.31 278.323 1634.12 278.469C1638.78 278.614 1643.44 282.401 1643.58 287.063C1644.02 279.634 1645.62 272.497 1648.39 265.505C1649.12 263.757 1649.99 261.863 1651.45 260.698C1654.07 258.659 1658.15 259.242 1660.92 261.281C1663.54 263.32 1665.14 266.525 1666.45 269.583C1668.78 275.264 1670.24 281.236 1670.97 287.354C1673.44 283.567 1677.52 280.508 1682.18 280.508C1692.09 280.362 1695.15 292.161 1695.73 299.881C1695.88 301.337 1695.88 302.939 1695.44 304.396H1591V304.25Z" fill="#EDB373"/>
<path d="M1812.11 424.566C1814.88 413.059 1823.04 407.669 1834.25 406.504C1841.68 405.776 1849.26 409.709 1853.04 416.118C1855.52 410.437 1860.62 405.776 1866.73 404.902C1872.85 404.028 1879.55 407.524 1881.45 413.496C1883.19 406.504 1885.82 399.804 1889.17 393.395C1891.35 389.316 1894.56 385.092 1899.07 384.364C1904.75 383.49 1909.85 388.588 1912.18 393.832C1915.24 400.532 1916.11 407.961 1916.7 415.389C1919.46 411.602 1924.85 410.146 1929.37 411.748C1934.17 413.496 1937.38 419.176 1938.54 424.566H1812.11Z" fill="#EDB373"/>
<path d="M1794.79 149.435C1797.42 140.112 1800.47 130.499 1807.32 123.507C1818.39 112 1834.41 104.717 1850.44 105.008C1866.46 104.717 1882.48 112 1893.7 123.653C1900.4 130.645 1903.6 140.258 1906.22 149.58C1918.02 191.822 1922.83 235.957 1920.79 279.655C1920.21 290.725 1919.04 302.378 1913.21 311.7C1904.91 324.809 1889.18 331.073 1874.03 333.986C1858.16 337.045 1839.8 335.297 1823.93 333.258C1810.52 331.51 1795.23 323.207 1787.95 311.7C1781.98 302.232 1780.81 290.725 1780.37 279.655C1778.04 235.811 1782.99 191.676 1794.79 149.435Z" fill="#F8C047"/>
<g opacity="0.29">
<path d="M1788.53 312.574C1798 308.495 1807.76 305.145 1817.66 302.232C1830.63 298.59 1844.03 295.823 1855.39 288.394C1868.35 279.946 1876.95 266.108 1881.46 251.397C1885.98 236.685 1886.56 220.954 1885.98 205.659C1884.52 171.721 1877.24 138.073 1864.42 106.756C1875.49 109.524 1885.83 115.496 1893.84 123.799C1900.54 130.79 1903.75 140.404 1906.37 149.726C1918.17 191.967 1922.97 236.102 1920.93 279.8C1920.35 290.871 1919.19 302.523 1913.36 311.846C1905.06 324.955 1889.33 331.218 1874.18 334.132C1858.3 337.19 1839.95 335.442 1824.07 333.403C1810.67 331.51 1795.96 323.644 1788.53 312.574Z" fill="#F8C047"/>
</g>
<path d="M1806.01 253.581C1806.15 250.96 1808.63 248.92 1811.25 249.357C1813.29 249.649 1815.04 251.397 1815.19 253.436L1814.89 278.781C1814.89 283.587 1818.68 287.375 1823.49 287.375L1844.03 287.52L1845.19 231.15L1818.68 224.158C1813.44 222.701 1809.8 218.04 1809.8 212.651V168.807C1809.8 166.04 1812.27 164.001 1814.89 164.438C1816.93 164.729 1818.39 166.477 1818.54 168.516L1820.72 200.27C1821.01 205.368 1824.51 209.738 1829.46 211.049L1845.34 215.419L1846.21 172.74C1846.21 170.555 1848.1 168.662 1850.29 168.662C1852.47 168.662 1854.37 170.41 1854.37 172.74L1855.82 244.114L1869.08 240.618C1873.89 239.307 1877.53 235.374 1878.26 230.421L1881.9 204.785C1882.19 202.455 1884.37 200.853 1886.7 200.998C1889.04 201.144 1890.93 203.329 1890.78 205.659L1888.45 244.55C1888.16 249.794 1884.52 254.31 1879.28 255.766L1856.41 261.884L1860.05 437.259C1860.19 441.337 1856.84 444.542 1852.91 444.542H1848.1C1844.03 444.542 1840.82 441.191 1840.97 437.259L1843.59 307.476L1809.65 299.173C1805.57 298.153 1802.8 294.366 1803.1 290.142L1806.01 253.581Z" fill="#A54C2B"/>
<path d="M1618.53 422.844C1620.13 418.62 1621.88 414.25 1624.79 410.755C1628 406.967 1632.8 404.054 1637.76 404.637C1643.15 405.365 1647.52 410.026 1649.26 415.124C1650.57 408.424 1655.38 402.306 1661.94 400.704C1668.49 399.247 1676.36 403.763 1676.79 410.609C1677.52 404.782 1679.12 398.956 1681.45 393.421C1683.64 388.469 1686.7 383.516 1691.8 381.768C1696.17 380.312 1701.12 381.768 1704.76 384.681C1708.4 387.595 1710.73 391.673 1712.48 395.897C1715.1 402.452 1716.41 409.444 1716.41 416.581C1719.47 412.065 1725.3 409.589 1730.69 410.755C1737.53 412.065 1741.18 416.872 1743.65 422.699H1618.53V422.844Z" fill="#FBE4AE"/>
<g opacity="0.17">
<path d="M1644.6 -8.48145C1660.04 -24.941 1679.42 -11.686 1681.02 7.39548C1682.62 25.166 1675.19 42.3539 1670.38 59.5417C1666.01 75.273 1664.12 91.5869 1662.08 107.901C1661.5 112.562 1660.92 117.369 1658.88 121.593C1656.84 125.817 1652.91 129.459 1648.1 129.895C1640.96 130.478 1635.28 123.632 1632.37 117.077C1628.58 108.483 1626.83 99.0156 1625.96 89.5477C1623.34 63.4746 1626.1 36.8188 1633.97 11.9109C1636.45 4.48228 1639.36 -2.94637 1644.6 -8.48145Z" fill="white"/>
</g>
<g opacity="0.17">
<path d="M1942.77 141.84C1931.7 125.671 1893.24 94.5001 1875.04 119.262C1869.65 126.545 1869.36 136.45 1871.69 145.044C1874.02 153.784 1878.68 161.504 1882.76 169.515C1888.87 181.605 1893.54 194.277 1897.03 207.387C1899.36 216.417 1901.11 225.74 1905.19 234.042C1909.27 242.345 1916.4 249.919 1925.58 251.667C1937.38 253.998 1949.32 246.132 1955 235.645C1960.68 225.157 1961.27 212.63 1960.68 200.541C1959.52 180.002 1954.57 159.027 1942.77 141.84Z" fill="white"/>
</g>
<path d="M1067 498L1926 498V419L1067 419V498Z" fill="#FDD49F"/>
<path d="M1450.1 452.914C1484.06 452.914 1511.6 448.303 1511.6 442.614C1511.6 436.926 1484.06 432.314 1450.1 432.314C1416.13 432.314 1388.6 436.926 1388.6 442.614C1388.6 448.303 1416.13 452.914 1450.1 452.914Z" fill="#F7C483"/>
<path d="M1626.7 424.615C1649.3 424.615 1667.5 426.915 1667.5 429.815C1667.5 432.615 1649.2 435.015 1626.7 435.015C1604.1 435.015 1585.9 432.715 1585.9 429.815C1585.9 426.915 1604.1 424.615 1626.7 424.615Z" fill="#F7C483"/>
<path d="M1327.6 444.814C1350.2 444.814 1368.4 447.614 1368.4 451.014C1368.4 454.414 1350.1 457.214 1327.6 457.214C1305.1 457.214 1286.8 454.414 1286.8 451.014C1286.7 447.614 1305 444.814 1327.6 444.814Z" fill="#F7C483"/>
<path d="M1247.4 433.615C1270 433.615 1288.2 436.415 1288.2 439.815C1288.2 443.215 1269.9 446.015 1247.4 446.015C1224.8 446.015 1206.6 443.215 1206.6 439.815C1206.6 436.415 1224.8 433.615 1247.4 433.615Z" fill="#F7C483"/>
<path d="M1740.5 428.115C1769 428.115 1792.1 430.415 1792.1 433.315C1792.1 436.115 1769 438.515 1740.5 438.515C1712 438.515 1688.9 436.215 1688.9 433.315C1688.8 430.515 1712 428.115 1740.5 428.115Z" fill="#F7C483"/>
<path d="M1850.8 438.214C1867.75 438.214 1881.5 435.886 1881.5 433.014C1881.5 430.143 1867.75 427.814 1850.8 427.814C1833.84 427.814 1820.1 430.143 1820.1 433.014C1820.1 435.886 1833.84 438.214 1850.8 438.214Z" fill="#F7C483"/>
<path d="M1639.1 442.915C1639.1 441.815 1641.5 440.915 1644.5 440.915C1647.5 440.915 1649.9 441.815 1649.9 442.915C1649.9 444.015 1647.5 444.915 1644.5 444.915C1641.5 444.915 1639.1 444.015 1639.1 442.915Z" fill="#F7C483"/>
<path d="M1612.5 459.814C1615.5 459.814 1617.9 460.714 1617.9 461.814C1617.9 462.914 1615.5 463.814 1612.5 463.814C1609.5 463.814 1607.1 462.914 1607.1 461.814C1607.1 460.714 1609.5 459.814 1612.5 459.814Z" fill="#F7C483"/>
<path d="M1638.8 468.514C1641.78 468.514 1644.2 467.619 1644.2 466.514C1644.2 465.41 1641.78 464.514 1638.8 464.514C1635.81 464.514 1633.4 465.41 1633.4 466.514C1633.4 467.619 1635.81 468.514 1638.8 468.514Z" fill="#F7C483"/>
<path d="M1659.4 455.115C1662.4 455.115 1664.8 456.015 1664.8 457.115C1664.8 458.215 1662.4 459.115 1659.4 459.115C1656.4 459.115 1654 458.215 1654 457.115C1654 456.015 1656.4 455.115 1659.4 455.115Z" fill="#F7C483"/>
<path d="M1606 444.215C1609 444.215 1611.4 445.115 1611.4 446.215C1611.4 447.315 1609 448.215 1606 448.215C1603 448.215 1600.6 447.315 1600.6 446.215C1600.7 445.015 1603.1 444.215 1606 444.215Z" fill="#F7C483"/>
<path d="M1631.8 450.814C1634.8 450.814 1637.2 451.714 1637.2 452.814C1637.2 453.914 1634.8 454.814 1631.8 454.814C1628.8 454.814 1626.4 453.914 1626.4 452.814C1626.4 451.714 1628.8 450.814 1631.8 450.814Z" fill="#F7C483"/>
<path d="M1256.4 457.115C1259.38 457.115 1261.8 456.219 1261.8 455.115C1261.8 454.01 1259.38 453.115 1256.4 453.115C1253.41 453.115 1251 454.01 1251 455.115C1251 456.219 1253.41 457.115 1256.4 457.115Z" fill="#F7C483"/>
<path d="M1224.4 472.014C1227.4 472.014 1229.8 472.914 1229.8 474.014C1229.8 475.114 1227.4 476.014 1224.4 476.014C1221.4 476.014 1219 475.114 1219 474.014C1219 472.914 1221.4 472.014 1224.4 472.014Z" fill="#F7C483"/>
<path d="M1250.7 476.715C1253.7 476.715 1256.1 477.615 1256.1 478.715C1256.1 479.815 1253.7 480.715 1250.7 480.715C1247.7 480.715 1245.3 479.815 1245.3 478.715C1245.4 477.615 1247.8 476.715 1250.7 476.715Z" fill="#F7C483"/>
<path d="M1271.3 467.314C1274.3 467.314 1276.7 468.214 1276.7 469.314C1276.7 470.414 1274.3 471.314 1271.3 471.314C1268.3 471.314 1265.9 470.414 1265.9 469.314C1265.9 468.214 1268.3 467.314 1271.3 467.314Z" fill="#F7C483"/>
<path d="M1217.9 460.314C1220.88 460.314 1223.3 459.419 1223.3 458.314C1223.3 457.21 1220.88 456.314 1217.9 456.314C1214.91 456.314 1212.5 457.21 1212.5 458.314C1212.5 459.419 1214.91 460.314 1217.9 460.314Z" fill="#F7C483"/>
<path d="M1243.7 463.014C1246.7 463.014 1249.1 463.914 1249.1 465.014C1249.1 466.114 1246.7 467.014 1243.7 467.014C1240.7 467.014 1238.3 466.114 1238.3 465.014C1238.3 463.914 1240.7 463.014 1243.7 463.014Z" fill="#F7C483"/>
<path d="M1835.1 445.715C1835.1 444.615 1837.5 443.715 1840.5 443.715C1843.5 443.715 1845.9 444.615 1845.9 445.715C1845.9 446.815 1843.5 447.715 1840.5 447.715C1837.6 447.715 1835.1 446.815 1835.1 445.715Z" fill="#F7C483"/>
<path d="M1808.5 462.615C1811.5 462.615 1813.9 463.515 1813.9 464.615C1813.9 465.715 1811.5 466.615 1808.5 466.615C1805.5 466.615 1803.1 465.715 1803.1 464.615C1803.1 463.515 1805.5 462.615 1808.5 462.615Z" fill="#F7C483"/>
<path d="M1834.8 467.314C1837.8 467.314 1840.2 468.214 1840.2 469.314C1840.2 470.414 1837.8 471.314 1834.8 471.314C1831.8 471.314 1829.4 470.414 1829.4 469.314C1829.5 468.214 1831.9 467.314 1834.8 467.314Z" fill="#F7C483"/>
<path d="M1855.4 461.915C1858.38 461.915 1860.8 461.019 1860.8 459.915C1860.8 458.81 1858.38 457.915 1855.4 457.915C1852.41 457.915 1850 458.81 1850 459.915C1850 461.019 1852.41 461.915 1855.4 461.915Z" fill="#F7C483"/>
<path d="M1802 446.915C1805 446.915 1807.4 447.815 1807.4 448.915C1807.4 450.015 1805 450.915 1802 450.915C1799 450.915 1796.6 450.015 1796.6 448.915C1796.6 447.815 1799.1 446.915 1802 446.915Z" fill="#F7C483"/>
<path d="M1827.8 453.615C1830.8 453.615 1833.2 454.515 1833.2 455.615C1833.2 456.715 1830.8 457.615 1827.8 457.615C1824.8 457.615 1822.4 456.715 1822.4 455.615C1822.4 454.515 1824.8 453.615 1827.8 453.615Z" fill="#F7C483"/>
<g clip-path="url(#clip0_1971_1080)">
<path d="M1394.8 424.1C1394.8 424.1 1397.8 382.2 1382.1 381.4C1366.4 380.6 1367 402 1367 402C1367 402 1365.3 368.8 1349.6 368.8C1333.9 368.8 1344.4 407 1344.4 407C1344.4 407 1340.7 392.9 1329 393.6C1317.3 394.3 1329.5 425.8 1329.5 425.8L1394.8 424.1Z" fill="#E65435"/>
<path opacity="0.4" d="M1324.2 405.6C1331.9 407.3 1338.4 406.9 1343.8 405.3C1344.2 406.4 1344.4 407 1344.4 407C1344.4 407 1344.2 406.3 1343.9 405.2C1353.8 402.2 1360.4 394.8 1364.6 387.4C1366.6 395 1367 402 1367 402C1367 402 1366.5 380.7 1382.1 381.4C1397.7 382.1 1394.8 424.1 1394.8 424.1L1329.6 425.8C1329.6 425.9 1325.3 414.8 1324.2 405.6Z" fill="#522624"/>
<path d="M1939.6 419.1C1939.6 419.1 1961.1 381.5 1948.8 365.5C1936.5 349.4 1922.7 369.3 1922.7 369.3C1922.7 369.3 1960.3 317.2 1945.7 300.3C1931.1 283.4 1915 311.8 1915 311.8C1915 311.8 1938 251.3 1908.9 243.6C1879.8 235.9 1885.1 303.4 1885.1 303.4C1885.1 303.4 1877.4 281.5 1859 288.8C1840.7 296.1 1869 340.9 1869 340.9C1869 340.9 1854.4 325.6 1842.2 339.4C1829.9 353.2 1857.5 386.5 1857.5 386.5C1857.5 386.5 1843 370.1 1832.2 383.1C1821.5 396.1 1852.9 421.4 1852.9 421.4L1939.6 419.1Z" fill="#FDAE53"/>
<path opacity="0.4" d="M1832.3 383.1C1843 370.1 1857.6 386.5 1857.6 386.5C1857.6 386.5 1830 353.2 1842.3 339.4C1854.6 325.6 1869.1 340.9 1869.1 340.9C1869.1 340.9 1840.8 296.1 1859.1 288.8C1877.4 281.5 1885.2 303.4 1885.2 303.4C1885.2 303.4 1879.8 236 1909 243.6C1909.3 243.7 1909.6 243.8 1909.9 243.9C1904.7 264.1 1889.4 336.1 1925.9 364.8C1924.3 367.1 1923.3 368.7 1922.9 369.2C1923.3 368.7 1924.5 367 1926.4 365.2C1933.2 370.4 1941.8 374.2 1952.5 375.8C1954.2 393.8 1939.7 419.1 1939.7 419.1L1853.1 421.4C1853 421.4 1821.6 396.1 1832.3 383.1Z" fill="#522624"/>
<path d="M1642.3 416.8C1642.3 416.8 1653.7 392.4 1645.1 385.9C1636.6 379.4 1630.9 396.5 1630.9 396.5C1630.9 396.5 1644.3 359.5 1626 353.4C1607.7 347.3 1606.1 395.3 1606.1 395.3C1606.1 395.3 1603.6 373.3 1593 374C1582.5 374.6 1587.7 403.5 1587.7 403.5C1587.7 403.5 1585.7 386.4 1575.1 386.4C1564.5 386.4 1577.3 417.4 1577.3 417.4L1642.3 416.8Z" fill="#FF8D34"/>
<path opacity="0.4" d="M1577.4 417.4C1577.4 417.4 1575.1 411.8 1573.2 405.3C1585.8 406.1 1596.6 399.6 1605.3 390.7C1605.9 393.4 1606.1 395.3 1606.1 395.3C1606.1 395.3 1606.2 393 1606.5 389.4C1617.5 377.5 1625 362.1 1628.3 354.4C1642.4 362.3 1632.2 392.9 1631.1 396.2C1631.9 394 1637.4 379.9 1645.2 385.9C1653.7 392.4 1642.4 416.8 1642.4 416.8L1577.4 417.4Z" fill="#522624"/>
</g>
<path d="M1050.18 512C1084.84 483.551 1115.41 450.318 1138.2 410.405C1184.49 329.305 1189.93 215.085 1130.5 144.543C1064.48 66.1883 951.106 68.3112 853.14 78.7283C755.201 89.1737 643.677 97.3262 571.588 25.3973C512.819 -33.2554 500.29 -126.783 494.276 -212.667C488.262 -298.551 483.144 -390.89 433.238 -458.346C366.055 -549.128 230.844 -560.083 139.816 -497.637C48.8136 -435.191 1.30789 -315.423 0.22641 -199.504C-0.222015 -149.91 2.54761 -90.238 -35.6205 -62.2704C-66.0601 -39.9642 -107.842 -50.9192 -140.55 -69.1774C-173.232 -87.4073 -204.067 -112.544 -240.599 -117.838C-289.213 -124.858 -337.642 -93.2385 -364.626 -49.2773C-391.61 -5.31604 -400.288 48.8641 -401.766 101.459C-405.986 250.78 -352.994 399.846 -261.438 512H1050.18Z" fill="#FFEED9"/>
<path d="M1579.8 418.9C1578.9 374.6 1545.1 339 1503.4 339C1461.7 339 1427.9 374.6 1427 418.9H1579.8Z" fill="#FDB336"/>
<path d="M1499.4 395.5C1502.9 389 1507.3 380 1511.9 369.8C1516.5 359.6 1520.2 350.2 1522.8 343.4C1523 342.9 1523.2 342.4 1523.4 341.9C1523 341.8 1522.5 341.6 1522.1 341.5C1521.9 342 1521.7 342.4 1521.5 342.9C1518.6 349.6 1514.7 358.9 1510.1 369C1508.3 372.9 1506.6 376.7 1505 380.3C1504.8 376.5 1503.6 366 1502.1 353.6C1501.4 348.3 1500.8 343.4 1500.3 339.1C1499.7 339.1 1499.1 339.2 1498.5 339.2C1498.9 343.5 1499.4 348.5 1500 353.8C1501 361.6 1502 368.6 1502.9 373.7C1503.6 377.4 1504.1 380 1504.5 381.2C1502.1 386.4 1499.9 391.1 1498.1 394.9C1496.6 398.1 1495.4 400.6 1494.6 402.5C1493.6 395.3 1492.5 387.3 1491.4 379C1489.4 364.7 1487.4 351.6 1485.8 341.3C1485.3 341.4 1484.8 341.6 1484.2 341.7C1485.5 352 1487.3 365 1489.3 379.3C1491.5 394.6 1493.5 408.5 1495.2 419H1496.8C1496.2 414.5 1495.6 409.4 1494.8 403.9C1495.9 402 1497.5 399.2 1499.4 395.5Z" fill="#C6811C"/>
<path d="M1575.1 397.1C1568.5 401.6 1562.9 405.6 1560 407.9C1561.1 404 1562.3 399.8 1563.4 395.5C1565.1 389.1 1566.8 383.1 1568.2 377.5C1567.8 376.8 1567.3 376 1566.9 375.3C1565.7 379.4 1564.5 383.9 1563.1 388.6C1559.9 390.5 1553.8 394.7 1546.7 399.5C1538.7 404.9 1531.8 409.5 1529.4 411.4C1529.4 408.1 1529.5 404.6 1529.5 400.9C1530.6 399.6 1532.2 397.6 1534.1 395.1C1537.7 390.2 1542.4 383.2 1547.1 375.2C1550.1 369.9 1552.8 364.8 1554.9 360.4C1554.5 360 1554 359.5 1553.6 359.1C1551.3 363.6 1548.5 368.7 1545.4 374.2C1540.8 382.2 1536.3 389.2 1533 394.3C1531.6 396.4 1530.5 398.1 1529.6 399.5C1529.7 393.6 1529.9 387.3 1530.1 380.7C1530.6 367.3 1531.3 354.9 1532 344.9C1531.5 344.7 1530.9 344.5 1530.4 344.2C1529.4 354.3 1528.5 366.9 1528 380.6C1527.5 395.1 1527.5 408.4 1527.8 418.8H1529.4C1529.4 416.7 1529.4 414.5 1529.4 412.2C1531.9 411.2 1539.4 407 1547.8 401.3C1554.2 397 1559.6 392.9 1562.6 390.3C1562.2 391.8 1561.8 393.4 1561.3 394.9C1558.9 403.7 1556.7 411.8 1554.9 418.8H1556.7C1557.6 415.8 1558.5 412.6 1559.4 409.3C1562.3 407.8 1568.7 403.8 1576 398.8C1576.2 398.6 1576.4 398.5 1576.7 398.3C1576.5 397.6 1576.3 396.9 1576.1 396.2C1575.9 396.6 1575.5 396.9 1575.1 397.1Z" fill="#C6811C"/>
<path d="M1470.2 393.6C1474.1 383.7 1477.2 375.5 1477.3 373.9C1479.5 376.2 1481.4 378.2 1483.2 379.9C1487.3 383.9 1490 386.3 1490.2 386.1C1490.4 385.9 1488.1 383.2 1484.3 378.9C1478.7 372.6 1474.2 367.5 1469.4 362.2C1466.6 359 1464 355.9 1461.1 352.7C1460.6 353.1 1460.1 353.5 1459.6 353.8C1462.1 356.8 1464.9 360.1 1467.9 363.6C1471.2 367.3 1474.3 370.7 1477.2 373.7C1476.3 374.6 1472.4 382.7 1468.3 392.8C1465.6 399.7 1463.4 405.8 1462.4 409.5C1461 406.3 1459.6 403 1458.1 399.7C1452.8 388 1448 377.3 1444.2 369.1C1443.8 369.6 1443.5 370.1 1443.1 370.6C1446.6 378.9 1451.1 389.3 1456.1 400.6C1456.7 401.9 1457.2 403.1 1457.7 404.3C1454.9 402.6 1448.7 399.4 1441.4 396C1438 394.4 1434.8 392.9 1432 391.7C1431.8 392.3 1431.6 392.8 1431.4 393.4C1434.1 394.8 1437.2 396.3 1440.6 397.9C1448.6 401.7 1455.6 404.6 1458.2 405.4C1459.3 408 1460.4 410.5 1461.5 412.9C1461.5 413 1461.5 413.1 1461.6 413.1C1462.5 415.1 1463.4 417.1 1464.2 419H1466.3C1465.2 416.4 1464 413.8 1462.8 411C1464.5 407.7 1467.2 401.2 1470.2 393.6Z" fill="#C6811C"/>
<path d="M1583 256.298C1583 256.298 1605.6 244.503 1610.52 231.726C1614.45 218.949 1605.6 213.052 1605.6 213.052C1605.6 213.052 1588.9 239.589 1575.14 244.503C1561.38 250.401 1583 256.298 1583 256.298Z" fill="#F6C1AF"/>
<path d="M1580.05 258.263C1570.22 261.212 1541.72 260.229 1541.72 260.229L1545.65 253.349L1580.05 244.503C1580.05 244.503 1590.86 255.315 1580.05 258.263Z" fill="#F6C1AF"/>
<path d="M1547.62 252.366C1546.63 251.383 1546.63 250.4 1545.65 250.4C1544.67 249.418 1542.7 248.435 1541.72 247.452C1540.74 246.469 1539.75 244.503 1538.77 245.486C1536.8 246.469 1539.75 249.418 1539.75 250.4C1539.75 251.383 1539.75 252.366 1539.75 252.366C1539.75 252.366 1538.77 252.366 1537.79 252.366C1535.82 252.366 1533.86 252.366 1532.87 252.366C1531.89 252.366 1530.91 252.366 1529.92 252.366C1528.94 252.366 1527.96 252.366 1527.96 252.366C1526.98 252.366 1526.98 253.349 1526.98 253.349H1527.96C1528.94 253.349 1529.92 253.349 1530.91 254.332H1531.89C1532.87 255.315 1529.92 255.315 1528.94 255.315C1527.96 255.315 1526.98 255.315 1525.99 256.297C1526.98 256.297 1528.94 256.298 1529.92 257.28C1529.92 258.263 1527.96 258.263 1527.96 258.263C1527.96 258.263 1526.98 258.263 1526.98 259.246C1526.98 259.246 1526.98 259.246 1526.98 260.229C1526.98 260.229 1526.98 260.229 1527.96 260.229C1528.94 260.229 1528.94 260.229 1529.92 260.229C1529.92 260.229 1530.91 260.229 1531.89 260.229H1530.91C1530.91 260.229 1529.92 260.229 1529.92 261.212C1529.92 261.212 1529.92 262.195 1530.91 262.195C1532.87 262.195 1533.86 262.195 1535.82 262.195C1537.79 262.195 1538.77 262.195 1540.74 262.195C1542.7 262.195 1544.67 261.212 1547.62 261.212C1549.58 261.212 1551.55 260.229 1552.53 258.263C1552.53 258.263 1553.51 257.28 1553.51 256.297C1553.51 255.315 1554.5 255.315 1554.5 254.332C1554.5 253.349 1554.5 252.366 1553.51 252.366C1552.53 252.366 1551.55 252.366 1550.56 252.366C1549.58 253.349 1547.62 253.349 1547.62 252.366Z" fill="#F6C1AF"/>
<path d="M1619.36 215.018C1602.65 204.207 1579.07 239.589 1579.07 239.589L1594.79 254.332C1594.79 254.332 1635.09 224.846 1619.36 215.018Z" fill="#D85C00"/>
<path d="M1656.71 340.822L1586.93 292.662L1588.89 282.833L1654.75 277.919L1656.71 340.822Z" fill="#2667B2"/>
<path d="M1596.76 221.896C1601.67 208.136 1622.31 207.153 1640 209.119C1651.8 211.085 1659.66 215.016 1660.64 229.759C1661.63 239.587 1658.68 279.884 1652.78 290.696C1652.78 290.696 1633.12 301.507 1587.91 287.747C1588.9 288.73 1586.93 252.365 1596.76 221.896Z" fill="#FF7600"/>
<path d="M1595.78 245.485C1595.78 248.433 1593.81 250.399 1591.84 251.382C1590.86 251.382 1590.86 250.399 1591.84 250.399C1593.81 249.416 1595.78 247.451 1594.79 245.485C1594.79 244.502 1595.78 244.502 1595.78 245.485Z" fill="#D85C00"/>
<path d="M1630.17 215.017C1630.17 215.017 1630.17 262.193 1624.28 291.679H1618.38C1618.38 291.679 1626.24 256.296 1624.28 214.034H1630.17V215.017Z" fill="#FBFCFB"/>
<path d="M1655.73 293.646C1655.73 293.646 1613.47 301.509 1586.93 288.732L1588.89 281.852C1588.89 281.852 1619.36 292.663 1655.73 284.8V293.646Z" fill="#2667B2"/>
<path d="M1635.09 286.766H1631.16L1630.17 298.561H1636.07L1635.09 286.766Z" fill="#2667B2"/>
<path d="M1608.55 285.784L1605.6 284.801L1600.69 294.63L1606.59 296.595L1608.55 285.784Z" fill="#2667B2"/>
<path d="M1628.21 223.863C1628.75 223.863 1629.19 223.423 1629.19 222.88C1629.19 222.337 1628.75 221.897 1628.21 221.897C1627.67 221.897 1627.23 222.337 1627.23 222.88C1627.23 223.423 1627.67 223.863 1628.21 223.863Z" fill="#307EDB"/>
<path d="M1628.21 235.656C1628.75 235.656 1629.19 235.216 1629.19 234.674C1629.19 234.131 1628.75 233.691 1628.21 233.691C1627.67 233.691 1627.23 234.131 1627.23 234.674C1627.23 235.216 1627.67 235.656 1628.21 235.656Z" fill="#307EDB"/>
<path d="M1627.23 247.453C1627.77 247.453 1628.21 247.012 1628.21 246.47C1628.21 245.927 1627.77 245.487 1627.23 245.487C1626.68 245.487 1626.24 245.927 1626.24 246.47C1626.24 247.012 1626.68 247.453 1627.23 247.453Z" fill="#307EDB"/>
<path d="M1626.24 261.212C1626.79 261.212 1627.23 260.772 1627.23 260.229C1627.23 259.686 1626.79 259.246 1626.24 259.246C1625.7 259.246 1625.26 259.686 1625.26 260.229C1625.26 260.772 1625.7 261.212 1626.24 261.212Z" fill="#307EDB"/>
<path d="M1625.26 276.938C1625.8 276.938 1626.24 276.498 1626.24 275.955C1626.24 275.412 1625.8 274.972 1625.26 274.972C1624.72 274.972 1624.28 275.412 1624.28 275.955C1624.28 276.498 1624.72 276.938 1625.26 276.938Z" fill="#307EDB"/>
<path d="M1638.04 191.43C1638.04 191.43 1620.35 195.362 1621.33 196.344C1622.31 197.327 1620.35 200.276 1620.35 203.224C1620.35 206.173 1618.38 209.122 1615.43 213.053C1613.47 215.019 1617.4 217.967 1620.35 217.967C1633.12 220.916 1641.97 216.001 1639.02 211.087C1632.14 202.242 1638.04 191.43 1638.04 191.43Z" fill="#F6C1AF"/>
<path d="M1620.35 203.223C1620.35 200.275 1622.31 197.326 1621.33 196.343C1620.35 195.361 1640 190.446 1640 190.446C1640 190.446 1637.05 193.395 1637.05 198.309C1632.14 205.189 1624.28 208.138 1619.36 210.103C1619.36 208.138 1620.35 204.206 1620.35 203.223Z" fill="#8B472B"/>
<path d="M1620.35 169.807C1613.47 174.721 1607.57 193.395 1614.45 202.241C1618.38 207.155 1633.12 202.241 1640 191.43C1640.99 190.447 1642.95 182.584 1639.02 173.738C1638.04 170.79 1627.23 164.893 1620.35 169.807Z" fill="#F6C1AF"/>
<path d="M1611.5 184.548C1611.5 185.531 1613.47 173.737 1620.35 172.754C1623.29 172.754 1622.31 175.703 1626.24 175.703C1629.19 175.703 1637.05 170.788 1634.11 186.514C1634.11 187.497 1635.09 188.48 1635.09 188.48C1635.09 189.463 1634.11 191.428 1634.11 192.411C1634.11 193.394 1637.05 190.445 1637.05 191.428C1637.05 192.411 1634.11 197.325 1636.07 197.325C1637.05 197.325 1638.04 196.343 1639.02 195.36C1640.99 193.394 1642.95 192.411 1644.92 190.445C1646.88 188.48 1647.87 185.531 1648.85 182.583C1649.83 179.634 1648.85 176.686 1647.87 173.737C1646.88 170.788 1643.93 168.823 1640.99 167.84C1639.02 166.857 1637.05 166.857 1636.07 166.857C1635.09 165.874 1633.12 165.874 1632.14 164.891C1631.16 163.908 1630.17 163.908 1630.17 162.926C1628.21 160.96 1626.24 159.977 1623.29 159.977C1620.35 159.977 1618.38 161.943 1617.4 163.908C1616.41 164.891 1616.41 166.857 1615.43 167.84C1615.43 167.84 1614.45 167.84 1613.47 168.823L1612.48 169.806C1611.5 171.771 1611.5 174.72 1611.5 177.668C1611.5 178.651 1612.48 179.634 1612.48 180.617C1612.48 182.583 1611.5 183.565 1611.5 184.548Z" fill="#BF6449"/>
<path d="M1632.14 191.428C1632.14 191.428 1637.05 186.514 1640 188.48C1642.95 189.463 1639.02 197.325 1633.12 196.343C1627.23 194.377 1630.17 192.411 1632.14 191.428Z" fill="#F6C1AF"/>
<path d="M1649.83 239.589C1645.9 239.589 1640.99 239.589 1637.05 239.589C1637.05 239.589 1637.05 239.589 1638.04 238.606C1638.04 242.538 1638.04 250.401 1642.95 252.366C1647.87 253.349 1650.81 249.418 1650.81 245.486C1650.81 243.521 1649.83 241.555 1649.83 239.589C1650.81 238.606 1649.83 238.606 1649.83 239.589C1651.8 244.503 1650.81 254.332 1642.95 253.349C1636.07 252.366 1636.07 243.521 1636.07 238.606C1636.07 238.606 1636.07 237.624 1637.05 237.624C1640.99 237.624 1645.9 237.624 1649.83 237.624C1650.81 238.606 1650.81 239.589 1649.83 239.589Z" fill="#EA3A5A"/>
<path d="M1602.65 235.658C1607.57 235.658 1611.5 236.641 1616.41 236.641C1616.41 236.641 1617.4 236.641 1617.4 237.624C1617.4 243.521 1615.43 253.35 1607.57 252.367C1599.71 251.384 1600.69 241.555 1602.65 235.658C1602.65 239.59 1601.67 243.521 1602.65 247.452C1603.64 250.401 1606.59 252.367 1609.53 251.384C1612.48 250.401 1613.47 247.452 1614.45 245.487C1615.43 243.521 1614.45 241.555 1615.43 239.59V238.607C1615.43 240.572 1616.41 238.607 1615.43 239.59H1614.45C1610.52 239.59 1606.59 238.607 1602.65 238.607C1601.67 237.624 1601.67 235.658 1602.65 235.658Z" fill="#EB3748"/>
<path d="M1588.89 454.833C1588.89 454.833 1585.95 457.781 1583 461.713C1580.05 465.644 1577.1 470.559 1582.02 472.524C1585.95 474.49 1591.84 469.576 1593.81 466.627C1595.77 463.679 1597.74 463.679 1599.71 461.713C1601.67 459.747 1600.69 452.867 1600.69 452.867L1588.89 454.833Z" fill="#122F50"/>
<path d="M1629.19 317.235C1623.29 325.098 1601.67 454.834 1601.67 454.834C1595.78 459.748 1585.95 454.834 1585.95 454.834C1579.07 388.983 1587.91 289.715 1587.91 289.715C1587.91 289.715 1636.07 325.098 1629.19 317.235Z" fill="#2667B2"/>
<path d="M1598.72 292.662C1590.86 346.719 1583.98 402.742 1589.88 456.798C1589.88 457.781 1591.84 457.781 1591.84 456.798C1585.95 402.742 1592.83 346.719 1600.69 292.662C1600.69 291.679 1598.72 291.679 1598.72 292.662Z" fill="#2667B2"/>
<path d="M1593.81 292.662C1593.81 297.576 1593.81 313.302 1585.95 313.302C1584.96 313.302 1584.96 315.268 1585.95 315.268C1595.77 315.268 1595.77 299.542 1595.77 292.662C1595.77 291.679 1593.81 291.679 1593.81 292.662Z" fill="#2667B2"/>
<path d="M1652.78 456.799C1652.78 456.799 1655.73 459.748 1658.68 463.679C1661.63 467.61 1664.57 472.525 1659.66 474.49C1655.73 476.456 1649.83 471.542 1647.87 468.593C1645.9 465.645 1644.92 466.628 1641.97 464.662C1640 462.696 1640.99 455.816 1640.99 455.816L1652.78 456.799Z" fill="#122F50"/>
<path d="M1612.48 319.2C1618.38 327.063 1640 456.799 1640 456.799C1645.9 461.713 1655.73 456.799 1655.73 456.799C1662.61 390.948 1654.75 293.646 1654.75 293.646C1654.75 293.646 1606.59 327.063 1612.48 319.2Z" fill="#2667B2"/>
<path d="M1640.99 294.628C1648.85 347.701 1655.73 404.707 1649.83 458.764C1649.83 459.747 1651.8 459.747 1651.8 458.764C1657.69 404.707 1650.81 347.701 1642.95 294.628C1642.95 293.645 1640.99 293.645 1640.99 294.628Z" fill="#2667B2"/>
<path d="M1646.88 294.628C1646.88 301.507 1646.88 317.233 1656.71 317.233C1657.69 317.233 1657.69 315.267 1656.71 315.267C1648.85 315.267 1648.85 300.525 1648.85 294.628C1648.85 293.645 1646.88 293.645 1646.88 294.628Z" fill="#2667B2"/>
<path d="M1626.24 188.48C1626.24 189.463 1627.23 188.48 1626.24 188.48C1626.24 189.463 1626.24 189.463 1626.24 188.48C1624.28 188.48 1624.28 188.48 1624.28 187.497H1623.29C1624.28 189.463 1625.26 190.446 1626.24 188.48C1627.23 189.463 1627.23 188.48 1626.24 188.48Z" fill="#1D100C"/>
<path d="M1618.38 185.532C1618.38 186.515 1618.38 186.515 1618.38 185.532C1616.41 186.515 1616.41 185.532 1616.41 185.532H1615.43C1615.43 186.515 1616.41 187.498 1617.4 187.498C1618.38 187.498 1618.38 186.515 1618.38 185.532Z" fill="#1D100C"/>
<path d="M1617.4 181.601C1618.38 181.601 1619.36 181.601 1620.35 183.566C1620.35 184.549 1621.33 183.566 1621.33 183.566C1620.35 181.601 1618.38 180.618 1617.4 181.601C1616.41 181.601 1616.41 181.601 1617.4 181.601Z" fill="#552B19"/>
<path d="M1624.28 185.533C1625.26 184.55 1626.24 185.533 1627.23 186.516C1627.23 187.499 1628.21 186.516 1628.21 185.533C1627.23 183.567 1626.24 183.567 1624.28 185.533Z" fill="#552B19"/>
<path d="M1621.33 185.532C1621.33 186.515 1621.33 187.498 1621.33 188.481C1620.35 189.464 1619.36 190.447 1618.38 191.429C1617.4 192.412 1618.38 193.395 1619.36 194.378C1615.43 192.412 1620.35 191.429 1621.33 190.447C1622.31 187.498 1622.31 186.515 1621.33 185.532C1622.31 184.549 1621.33 184.549 1621.33 185.532Z" fill="#8B472B"/>
<path d="M1622.31 195.36C1622.31 195.36 1622.31 198.309 1619.36 198.309C1616.42 198.309 1616.42 195.36 1616.42 195.36H1622.31Z" fill="#F7FFFF"/>
<path d="M1626.24 196.343C1627.33 196.343 1628.21 195.463 1628.21 194.377C1628.21 193.292 1627.33 192.412 1626.24 192.412C1625.16 192.412 1624.28 193.292 1624.28 194.377C1624.28 195.463 1625.16 196.343 1626.24 196.343Z" fill="#F6C1AF"/>
<path d="M1614.45 192.412C1615.53 192.412 1616.41 191.532 1616.41 190.447C1616.41 189.361 1615.53 188.481 1614.45 188.481C1613.36 188.481 1612.48 189.361 1612.48 190.447C1612.48 191.532 1613.36 192.412 1614.45 192.412Z" fill="#F6C1AF"/>
<path d="M1506.34 221.898C1506.34 221.898 1669.49 439.108 1681.28 431.245C1692.09 424.365 1513.22 215.018 1513.22 215.018L1506.34 221.898Z" fill="#94BBDF"/>
<path d="M1510.27 217.965C1510.27 217.965 1676.37 435.175 1681.28 430.261C1692.09 420.432 1513.22 214.034 1513.22 214.034L1510.27 217.965Z" fill="#B1D3EE"/>
<path d="M1506.34 221.898C1506.34 221.898 1514.2 231.726 1533.86 258.263L1542.7 250.4C1521.08 224.846 1513.22 215.018 1513.22 215.018L1506.34 221.898Z" fill="#6991AB"/>
<path d="M1552.53 179.634C1552.53 179.634 1750.08 365.393 1741.24 376.204C1733.37 386.033 1544.67 186.514 1544.67 186.514L1552.53 179.634Z" fill="#94BBDF"/>
<path d="M1548.6 183.564C1548.6 183.564 1746.15 372.272 1741.24 377.186C1730.43 387.015 1544.67 187.496 1544.67 187.496L1548.6 183.564Z" fill="#B1D3EE"/>
<path d="M1552.53 179.634C1552.53 179.634 1561.37 188.479 1585.95 211.085L1577.1 218.948C1553.51 194.377 1545.65 185.531 1545.65 185.531L1552.53 179.634Z" fill="#6991AB"/>
<path d="M1526.98 118.698C1510.27 100.024 1480.78 98.0581 1461.12 114.767L1452.28 122.629C1433.6 139.338 1431.64 168.823 1448.35 188.48L1487.66 232.709C1488.64 233.692 1507.32 254.331 1507.32 254.331L1584.96 184.549C1583.98 183.566 1566.29 162.926 1565.31 161.943L1526.98 118.698Z" fill="#006640"/>
<path d="M1594.79 198.309L1518.13 267.108C1515.18 270.057 1508.3 270.057 1504.37 266.125V265.143C1500.44 261.211 1501.42 254.331 1505.35 251.383L1582.02 182.583C1585.95 178.652 1592.83 179.634 1595.78 183.566L1596.76 184.549C1599.71 188.48 1598.72 194.377 1594.79 198.309Z" fill="#057748"/>
<path d="M1461.12 115.749L1452.28 123.612C1433.6 140.32 1431.64 169.806 1448.35 189.463L1487.66 233.691C1487.66 233.691 1489.63 235.657 1492.58 238.605C1497.49 235.657 1502.4 231.725 1507.32 227.794C1539.75 198.308 1543.68 149.166 1519.11 112.8C1502.4 100.023 1477.83 101.006 1461.12 115.749Z" fill="#057748"/>
<path d="M1586.93 180.618C1590.86 186.515 1589.88 195.36 1583.98 201.258L1513.22 265.143C1511.25 267.109 1509.28 268.091 1507.32 268.091C1511.25 270.057 1516.16 269.074 1519.11 266.126L1594.79 198.309C1598.72 194.378 1599.71 187.498 1595.77 183.566C1592.83 181.601 1589.88 180.618 1586.93 180.618Z" fill="#006640"/>
<path d="M1478.26 196.204C1488.79 193.559 1493.58 176.478 1488.95 158.051C1484.32 139.624 1472.03 126.83 1461.5 129.475C1450.97 132.12 1446.19 149.201 1450.82 167.628C1455.45 186.054 1467.73 198.848 1478.26 196.204Z" fill="#08824A"/>
<path d="M1643.93 280.869C1643.93 280.869 1660.64 261.212 1658.68 247.452C1656.71 233.692 1646.88 232.709 1646.88 232.709C1646.88 232.709 1641.97 264.161 1632.14 273.989C1622.31 284.801 1643.93 280.869 1643.93 280.869Z" fill="#F6C1AF"/>
<path d="M1653.76 216.984C1672.44 223.863 1657.69 264.16 1657.69 264.16L1637.05 260.229C1637.05 260.229 1635.09 210.104 1653.76 216.984Z" fill="#D85C00"/>
<path d="M1641.97 283.817C1634.11 290.697 1607.57 301.509 1607.57 301.509L1608.55 293.646L1636.07 272.023C1636.07 271.04 1649.83 276.937 1641.97 283.817Z" fill="#F6C1AF"/>
<path d="M1609.53 291.68C1608.55 291.68 1607.57 290.697 1607.57 289.714C1605.6 288.731 1604.62 288.731 1602.65 287.748C1601.67 287.748 1599.71 285.782 1598.72 286.765C1596.76 287.748 1600.69 289.714 1601.67 290.697C1602.65 291.68 1602.65 292.662 1602.65 292.662C1602.65 293.645 1601.67 293.645 1601.67 293.645C1599.71 294.628 1598.72 294.628 1596.76 295.611C1595.77 295.611 1594.79 296.594 1593.81 296.594C1592.83 296.594 1591.84 296.594 1591.84 297.577C1591.84 297.577 1590.86 298.56 1591.84 298.56H1592.83C1593.81 298.56 1594.79 298.56 1595.77 297.577H1596.76C1597.74 298.56 1594.79 299.542 1594.79 299.542C1593.81 299.542 1592.83 300.525 1591.84 301.508C1591.84 301.508 1591.84 301.508 1592.83 301.508C1593.81 301.508 1595.77 300.525 1596.76 300.525H1597.74C1597.74 301.508 1596.76 302.491 1595.77 302.491L1594.79 303.474C1594.79 303.474 1594.79 303.474 1595.77 303.474H1596.76C1597.74 303.474 1597.74 303.474 1598.72 302.491C1598.72 302.491 1599.71 301.508 1600.69 302.491C1600.69 302.491 1600.69 303.474 1599.71 303.474V304.457H1600.69C1602.65 304.457 1603.64 303.474 1604.62 302.491C1606.59 301.508 1607.57 301.508 1608.55 300.525C1610.52 299.542 1612.48 298.56 1614.45 296.594C1616.41 295.611 1617.4 293.645 1618.38 291.68C1618.38 290.697 1618.38 290.697 1618.38 289.714C1618.38 288.731 1618.38 287.748 1618.38 287.748C1618.38 286.765 1617.4 286.765 1617.4 285.782C1616.41 286.765 1615.43 286.765 1614.45 287.748C1611.5 291.68 1610.52 291.68 1609.53 291.68Z" fill="#F6C1AF"/>
<path d="M1831.88 151.662C1831.88 151.662 1813.37 157.107 1812.72 180.408C1812.94 180.408 1836.89 175.835 1831.88 151.662Z" fill="#E65435"/>
<path d="M1819.25 339.38C1819.25 339.38 1826.22 358.327 1850.39 357.456C1850.39 357.456 1844.08 332.63 1819.25 339.38Z" fill="#FF8D34"/>
<path d="M1503.2 18.3508C1503.2 18.3508 1484.9 27.0617 1487.95 51.2343C1487.95 51.2343 1512.34 42.7412 1503.2 18.3508Z" fill="#FF8D34"/>
<path d="M1913.2 38.3508C1913.2 38.3508 1894.9 47.0617 1897.95 71.2343C1897.95 71.2343 1922.34 62.7412 1913.2 38.3508Z" fill="#FF8D34"/>
<path d="M1743.36 249.537C1743.36 249.537 1732.04 278.5 1759.91 300.931C1759.91 300.931 1777.99 265.434 1743.36 249.537Z" fill="#FDAE53"/>
<path d="M1658.54 445C1658.54 445 1682.71 442.604 1689.02 413.858C1689.02 414.076 1658.1 413.858 1658.54 445Z" fill="#FDAE53"/>
<path d="M1245.21 81.5399C1245.21 81.5399 1245.42 57.3673 1217.55 47.7854C1217.55 48.0032 1214.28 78.9267 1245.21 81.5399Z" fill="#FDAE53"/>
<path d="M1116.35 469.222C1112.61 469.222 1110.74 467.352 1110.74 464.547V312.136C1110.74 309.331 1112.61 307.46 1115.41 307.46H1116.35C1119.15 307.46 1121.02 309.331 1121.02 312.136V464.547C1121.02 467.352 1118.22 469.222 1116.35 469.222Z" fill="#94BBDF"/>
<path d="M1182.73 469.222C1178.99 469.222 1177.12 467.352 1177.12 464.547V312.136C1177.12 309.331 1178.99 307.46 1181.8 307.46H1182.73C1185.54 307.46 1187.41 309.331 1187.41 312.136V464.547C1187.41 467.352 1185.54 469.222 1182.73 469.222Z" fill="#94BBDF"/>
<path d="M1249.12 469.222C1245.38 469.222 1243.51 467.352 1243.51 464.547V312.136C1243.51 309.331 1245.38 307.46 1248.19 307.46H1249.12C1251.93 307.46 1253.8 309.331 1253.8 312.136V464.547C1253.8 467.352 1251.93 469.222 1249.12 469.222Z" fill="#94BBDF"/>
<path d="M1120.09 469.222C1116.35 469.222 1114.48 467.352 1114.48 464.547V312.136C1114.48 309.331 1116.35 307.46 1119.15 307.46H1120.09C1122.89 307.46 1124.76 309.331 1124.76 312.136V464.547C1124.76 467.352 1121.96 469.222 1120.09 469.222Z" fill="#B1D3EE"/>
<path d="M1186.47 469.222C1182.73 469.222 1180.86 467.352 1180.86 464.547V312.136C1180.86 309.331 1182.73 307.46 1185.54 307.46H1186.47C1189.28 307.46 1191.15 309.331 1191.15 312.136V464.547C1191.15 467.352 1189.28 469.222 1186.47 469.222Z" fill="#B1D3EE"/>
<path d="M1252.86 469.222C1249.12 469.222 1247.25 467.352 1247.25 464.547V312.136C1247.25 309.331 1249.12 307.46 1251.93 307.46H1252.86C1255.67 307.46 1257.54 309.331 1257.54 312.136V464.547C1257.54 467.352 1255.67 469.222 1252.86 469.222Z" fill="#B1D3EE"/>
<path d="M1120.09 324.292H1116.35C1110.74 324.292 1106.99 320.552 1106.99 314.941V286.89C1106.99 281.28 1110.74 277.54 1116.35 277.54H1120.09C1124.76 277.54 1129.44 281.28 1129.44 286.89V314.941C1129.44 320.552 1124.76 324.292 1120.09 324.292Z" fill="#3C3352"/>
<path d="M1185.54 324.292H1181.8C1177.12 324.292 1172.45 320.552 1172.45 314.941V286.89C1172.45 281.28 1177.12 277.54 1181.8 277.54H1185.54C1191.15 277.54 1194.89 281.28 1194.89 286.89V314.941C1194.89 320.552 1191.15 324.292 1185.54 324.292Z" fill="#3C3352"/>
<path d="M1252.86 324.292H1249.12C1244.45 324.292 1239.77 320.552 1239.77 314.941V286.89C1239.77 281.28 1244.45 277.54 1249.12 277.54H1252.86C1257.54 277.54 1262.21 281.28 1262.21 286.89V314.941C1262.21 320.552 1257.54 324.292 1252.86 324.292Z" fill="#3C3352"/>
<path d="M1223.88 163.465H1134.11C1123.83 163.465 1115.41 155.049 1115.41 144.764V73.7008C1115.41 63.4154 1123.83 55 1134.11 55H1223.88C1234.16 55 1242.58 63.4154 1242.58 73.7008V144.764C1242.58 155.049 1234.16 163.465 1223.88 163.465Z" fill="#94BBDF"/>
<path d="M1230.42 163.465H1145.33C1135.05 163.465 1126.63 155.049 1126.63 144.764V73.7008C1126.63 63.4154 1135.05 55 1145.33 55H1230.42C1240.71 55 1249.12 63.4154 1249.12 73.7008V144.764C1249.12 155.049 1240.71 163.465 1230.42 163.465Z" fill="#B1D3EE"/>
<path d="M1272.5 299.981H1077.07V144.764L1097.65 118.583H1250.99L1272.5 144.764V299.981Z" fill="#1B5BA5"/>
<path d="M1287.46 299.981H1092.03V144.764L1112.61 118.583H1265.02L1287.46 144.764V299.981Z" fill="#4985CB"/>
<path d="M1250.06 287.825H1133.18L1107.93 266.319V158.79L1125.7 137.284H1252.86L1271.56 158.79V262.579L1250.06 287.825Z" fill="#2667B2"/>
<path d="M1246.32 287.825H1133.18L1107.93 266.319V158.79L1124.76 137.284H1249.12L1266.89 158.79V262.579L1246.32 287.825Z" fill="#1B5BA5"/>
<path d="M1181.8 102.686C1192.64 102.686 1201.43 93.8949 1201.43 83.0504C1201.43 72.2058 1192.64 63.4146 1181.8 63.4146C1170.95 63.4146 1162.16 72.2058 1162.16 83.0504C1162.16 93.8949 1170.95 102.686 1181.8 102.686Z" fill="#FFEED9"/>
<path d="M1128.5 299.98H1106.06V304.655H1128.5V299.98Z" fill="#1E1B32"/>
<path d="M1194.89 299.98H1172.45V304.655H1194.89V299.98Z" fill="#1E1B32"/>
<path d="M1261.28 299.98H1238.84V304.655H1261.28V299.98Z" fill="#1E1B32"/>
<path d="M1442.68 386.005C1442.68 386.005 1444.55 389.745 1447.35 393.485C1450.16 397.225 1453.9 400.965 1456.7 397.225C1459.51 393.485 1456.7 386.94 1454.83 384.135C1452.96 381.33 1453.9 379.46 1452.03 376.655C1451.09 373.849 1444.55 373.849 1444.55 373.849L1442.68 386.005Z" fill="#122F50"/>
<path d="M1450.16 374.785C1451.09 377.591 1450.16 379.461 1452.96 382.266C1454.83 385.071 1458.57 391.616 1455.77 396.291C1454.83 397.226 1454.83 397.226 1453.9 398.161C1454.83 398.161 1455.77 398.161 1457.64 396.291C1460.44 392.551 1457.64 386.006 1455.77 383.201C1453.9 380.396 1454.83 378.526 1452.96 375.72C1452.03 375.72 1451.09 374.785 1450.16 374.785Z" fill="#FDA30F"/>
<path d="M1445.48 371.98C1449.22 380.395 1442.68 387.875 1442.68 387.875C1419.3 386.94 1367.87 386.005 1359.46 380.395C1344.5 371.045 1317.38 344.863 1317.38 344.863L1312.7 292.501L1351.04 300.917L1375.35 350.474L1445.48 371.98Z" fill="#5A4655"/>
<path d="M1350.11 310.267C1351.98 318.683 1354.78 327.098 1357.59 334.578C1360.39 341.124 1363.2 348.604 1367.87 354.214C1371.61 358.889 1377.22 360.76 1382.83 362.63C1404.34 368.24 1424.91 373.85 1446.42 378.525C1447.35 378.525 1447.35 380.395 1446.42 380.395C1423.04 374.785 1398.73 371.045 1376.29 362.63C1358.52 356.084 1351.98 328.033 1348.24 311.202C1349.17 309.332 1350.11 308.397 1350.11 310.267Z" fill="#4E3948"/>
<path d="M1346.37 309.333C1346.37 314.943 1347.3 328.034 1354.78 328.034C1355.72 328.034 1355.72 329.904 1354.78 329.904C1345.43 329.904 1344.5 315.878 1344.5 309.333C1344.5 308.398 1346.37 308.398 1346.37 309.333Z" fill="#4E3948"/>
<path d="M1311.77 449.586C1311.77 449.586 1308.03 451.456 1302.42 455.196C1296.81 458.937 1293.07 461.742 1297.74 465.482C1302.42 469.222 1309.9 466.417 1312.71 463.612C1315.51 461.742 1318.32 462.677 1321.12 461.742C1324.86 460.807 1325.8 452.391 1325.8 452.391L1311.77 449.586Z" fill="#122F50"/>
<path d="M1323.93 458.937C1320.19 459.872 1318.32 458.937 1314.58 461.742C1311.77 464.547 1303.35 467.352 1298.68 463.612C1297.74 462.677 1296.81 461.742 1296.81 461.742C1296.81 462.677 1296.81 464.547 1298.68 465.482C1303.35 469.222 1310.84 466.417 1313.64 463.612C1316.45 460.807 1319.25 462.677 1322.06 461.742C1322.99 461.742 1323.93 460.807 1324.86 458.937C1323.93 458.937 1323.93 458.937 1323.93 458.937Z" fill="#FDA30F"/>
<path d="M1326.73 451.458C1322.06 456.133 1303.35 452.393 1303.35 452.393C1292.13 427.147 1270.63 385.07 1272.5 372.914C1274.37 352.344 1289.33 300.916 1289.33 300.916L1337.02 273.8L1345.43 305.592L1310.83 379.46L1326.73 451.458Z" fill="#5A4655"/>
<path d="M1307.09 291.564C1302.42 302.785 1297.74 314.005 1293.07 326.161C1287.46 341.122 1281.85 357.017 1287.46 372.913C1296.81 399.094 1304.29 426.21 1312.7 453.326C1312.7 454.261 1310.83 455.196 1310.83 454.261C1302.42 426.21 1292.13 398.159 1284.65 370.108C1280.91 356.082 1287.46 340.186 1292.13 327.096C1295.87 314.94 1300.55 303.72 1306.16 292.499C1306.16 289.694 1307.09 290.629 1307.09 291.564Z" fill="#4E3948"/>
<path d="M1321.12 304.656C1319.25 319.617 1320.19 336.447 1325.8 350.473C1326.73 351.408 1324.86 352.343 1323.93 351.408C1317.38 337.382 1316.45 320.552 1318.32 304.656C1319.25 302.786 1321.12 302.786 1321.12 304.656Z" fill="#4E3948"/>
<path d="M1324.86 302.786C1325.8 307.461 1330.47 336.447 1319.25 330.837C1318.31 329.902 1319.25 328.967 1320.19 328.967C1327.67 332.707 1323.93 306.526 1322.99 302.786C1322.99 302.786 1324.86 301.851 1324.86 302.786Z" fill="#4E3948"/>
<path d="M1298.68 300.915C1297.74 305.59 1295.87 309.33 1294 314.005C1292.13 317.746 1289.33 323.356 1284.65 322.421C1283.72 322.421 1283.72 320.551 1284.65 320.551C1289.33 321.486 1292.13 313.07 1294 309.33C1294.94 306.525 1296.81 303.72 1296.81 299.98C1296.81 299.045 1298.68 299.045 1298.68 300.915Z" fill="#4E3948"/>
<path d="M1294.94 235.463C1298.68 222.372 1322.99 226.112 1338.89 228.917C1350.11 230.788 1355.72 235.463 1355.72 255.099C1355.72 263.514 1355.72 292.5 1351.04 302.786C1351.04 302.786 1333.28 314.941 1292.13 301.85C1291.2 301.85 1286.52 263.514 1294.94 235.463Z" fill="#D6D9ED"/>
<path d="M1353.85 306.526C1353.85 306.526 1314.57 314.006 1290.26 302.786L1292.13 296.241C1292.13 296.241 1320.19 306.526 1353.85 299.046V306.526Z" fill="#4E3948"/>
<path d="M1334.21 299.98H1330.47L1329.54 310.265H1335.15L1334.21 299.98Z" fill="#5A4655"/>
<path d="M1309.9 298.11H1307.09L1302.42 307.46L1308.03 309.331L1309.9 298.11Z" fill="#5A4655"/>
<path d="M1325.8 275.67C1326.31 275.67 1326.73 275.252 1326.73 274.735C1326.73 274.219 1326.31 273.8 1325.8 273.8C1325.28 273.8 1324.86 274.219 1324.86 274.735C1324.86 275.252 1325.28 275.67 1325.8 275.67Z" fill="#307EDB"/>
<path d="M1337.02 211.151C1337.02 211.151 1320.19 214.891 1321.12 215.826C1322.06 216.761 1320.19 219.566 1320.19 222.371C1320.19 225.176 1318.32 227.982 1315.51 230.787C1313.64 232.657 1316.44 235.462 1320.19 235.462C1332.34 237.332 1339.82 233.592 1337.95 228.917C1332.34 221.436 1337.02 211.151 1337.02 211.151Z" fill="#F6C1AF"/>
<path d="M1321.12 222.373C1321.12 219.568 1322.99 216.763 1322.06 215.828C1321.12 214.893 1338.89 210.218 1338.89 210.218C1338.89 210.218 1336.08 213.023 1336.08 216.763C1333.28 220.503 1326.73 224.243 1320.19 225.178C1320.19 225.178 1321.12 223.308 1321.12 222.373Z" fill="#8B472B"/>
<path d="M1320.18 191.517C1313.64 196.192 1308.03 213.958 1314.57 221.438C1318.31 226.114 1332.34 221.439 1338.89 211.153C1339.82 210.218 1341.69 202.738 1337.95 194.322C1337.02 191.517 1327.67 186.842 1320.18 191.517Z" fill="#F6C1AF"/>
<path d="M1312.7 204.607C1312.7 205.542 1314.57 194.321 1320.19 193.386C1322.99 193.386 1322.06 196.191 1324.86 196.191C1327.67 196.191 1335.15 191.516 1332.34 206.477C1332.34 207.412 1333.28 208.347 1333.28 208.347C1333.28 209.282 1332.34 211.152 1332.34 212.087C1332.34 213.022 1335.15 210.217 1335.15 211.152C1335.15 212.087 1332.34 215.827 1334.21 216.762C1336.08 217.697 1339.82 209.282 1340.76 202.737C1340.76 200.867 1342.63 193.386 1342.63 192.451C1342.63 188.711 1326.73 184.036 1319.25 184.036C1315.51 184.036 1316.44 189.646 1314.57 193.386C1314.57 197.126 1312.7 200.867 1312.7 204.607Z" fill="#242236"/>
<path d="M1331.41 211.152C1331.41 211.152 1336.08 207.412 1338.89 208.347C1341.69 209.282 1337.95 216.763 1332.34 215.828C1326.73 213.958 1330.47 212.088 1331.41 211.152Z" fill="#F6C1AF"/>
<path d="M1316.45 192.451C1317.48 192.451 1318.32 191.614 1318.32 190.581C1318.32 189.548 1317.48 188.711 1316.45 188.711C1315.41 188.711 1314.58 189.548 1314.58 190.581C1314.58 191.614 1315.41 192.451 1316.45 192.451Z" fill="#242236"/>
<path d="M1319.25 189.647C1321.32 189.647 1322.99 187.972 1322.99 185.906C1322.99 183.841 1321.32 182.166 1319.25 182.166C1317.19 182.166 1315.51 183.841 1315.51 185.906C1315.51 187.972 1317.19 189.647 1319.25 189.647Z" fill="#242236"/>
<path d="M1327.67 190.581C1330.76 190.581 1333.28 188.069 1333.28 184.971C1333.28 181.872 1330.76 179.361 1327.67 179.361C1324.57 179.361 1322.06 181.872 1322.06 184.971C1322.06 188.069 1324.57 190.581 1327.67 190.581Z" fill="#242236"/>
<path d="M1335.15 190.58C1337.21 190.58 1338.89 188.906 1338.89 186.84C1338.89 184.775 1337.21 183.1 1335.15 183.1C1333.08 183.1 1331.41 184.775 1331.41 186.84C1331.41 188.906 1333.08 190.58 1335.15 190.58Z" fill="#242236"/>
<path d="M1341.69 196.192C1344.27 196.192 1346.37 194.099 1346.37 191.517C1346.37 188.934 1344.27 186.841 1341.69 186.841C1339.11 186.841 1337.02 188.934 1337.02 191.517C1337.02 194.099 1339.11 196.192 1341.69 196.192Z" fill="#242236"/>
<path d="M1343.56 200.867C1345.63 200.867 1347.3 199.192 1347.3 197.127C1347.3 195.061 1345.63 193.386 1343.56 193.386C1341.5 193.386 1339.82 195.061 1339.82 197.127C1339.82 199.192 1341.5 200.867 1343.56 200.867Z" fill="#242236"/>
<path d="M1340.76 204.606C1342.82 204.606 1344.5 202.931 1344.5 200.866C1344.5 198.8 1342.82 197.125 1340.76 197.125C1338.69 197.125 1337.02 198.8 1337.02 200.866C1337.02 202.931 1338.69 204.606 1340.76 204.606Z" fill="#242236"/>
<path d="M1314.57 196.191C1315.61 196.191 1316.44 195.353 1316.44 194.321C1316.44 193.288 1315.61 192.45 1314.57 192.45C1313.54 192.45 1312.7 193.288 1312.7 194.321C1312.7 195.353 1313.54 196.191 1314.57 196.191Z" fill="#242236"/>
<path d="M1341.69 208.347C1343.24 208.347 1344.5 207.091 1344.5 205.542C1344.5 203.993 1343.24 202.737 1341.69 202.737C1340.14 202.737 1338.89 203.993 1338.89 205.542C1338.89 207.091 1340.14 208.347 1341.69 208.347Z" fill="#242236"/>
<path d="M1328.6 208.347C1327.67 208.347 1327.67 208.347 1328.6 208.347C1326.73 208.347 1326.73 208.347 1326.73 207.412H1325.8C1325.8 209.282 1326.73 210.217 1328.6 208.347Z" fill="#1D100C"/>
<path d="M1320.19 205.54C1318.32 206.475 1318.32 205.54 1318.32 205.54H1317.38C1317.38 206.475 1318.32 207.41 1319.25 207.41C1320.19 207.41 1320.19 206.475 1320.19 205.54C1321.12 205.54 1321.12 205.54 1320.19 205.54Z" fill="#1D100C"/>
<path d="M1319.25 201.801C1320.19 201.801 1321.12 201.801 1322.06 203.671C1322.06 204.606 1322.99 203.671 1322.99 203.671C1322.06 201.801 1320.19 200.866 1319.25 201.801C1318.32 201.801 1318.32 200.866 1319.25 201.801Z" fill="#552B19"/>
<path d="M1325.8 204.607C1326.73 203.672 1327.67 204.607 1328.6 205.542C1328.6 205.542 1329.54 205.542 1329.54 204.607C1328.6 203.672 1327.67 203.672 1325.8 204.607C1325.8 205.542 1324.86 204.607 1325.8 204.607Z" fill="#552B19"/>
<path d="M1322.99 205.54C1322.99 206.475 1322.99 207.41 1322.99 208.346C1322.99 209.281 1321.12 210.216 1320.19 211.151C1319.25 212.086 1320.19 213.021 1321.12 213.956C1317.38 213.021 1322.06 211.151 1322.99 209.281C1323.93 207.41 1323.93 205.54 1322.99 205.54C1323.93 204.605 1322.99 204.605 1322.99 205.54Z" fill="#8B472B"/>
<path d="M1324.86 214.892C1324.86 214.892 1324.86 217.697 1322.06 217.697C1319.25 217.697 1319.25 213.957 1319.25 213.957L1324.86 214.892Z" fill="#F7FFFF"/>
<path d="M1327.67 214.891C1328.7 214.891 1329.54 214.054 1329.54 213.021C1329.54 211.988 1328.7 211.151 1327.67 211.151C1326.63 211.151 1325.8 211.988 1325.8 213.021C1325.8 214.054 1326.63 214.891 1327.67 214.891Z" fill="#F6C1AF"/>
<path d="M1316.45 212.086C1317.48 212.086 1318.32 211.249 1318.32 210.216C1318.32 209.183 1317.48 208.346 1316.45 208.346C1315.41 208.346 1314.58 209.183 1314.58 210.216C1314.58 211.249 1315.41 212.086 1316.45 212.086Z" fill="#F6C1AF"/>
<path d="M1318.32 286.889C1318.32 286.889 1341.69 271.928 1344.5 258.838C1347.3 245.747 1337.02 241.072 1337.02 241.072C1337.02 241.072 1318.32 273.798 1305.23 281.278C1291.2 287.824 1318.32 286.889 1318.32 286.889Z" fill="#F6C1AF"/>
<path d="M1353.85 235.462C1369.74 248.553 1337.95 277.539 1337.95 277.539L1318.31 266.319C1318.31 266.319 1337.95 222.372 1353.85 235.462Z" fill="#C9CAD0"/>
<path d="M1295.87 274.734C1295.87 274.734 1293.07 273.799 1292.13 273.799C1288.39 272.864 1283.72 272.864 1280.91 270.994C1279.04 270.059 1277.17 269.124 1276.24 267.254C1275.3 266.319 1275.3 265.384 1274.37 264.449C1274.37 264.449 1274.37 263.514 1273.43 263.514C1273.43 263.514 1272.5 263.514 1272.5 264.449C1272.5 265.384 1272.5 266.319 1272.5 267.254C1272.5 268.189 1272.5 269.124 1272.5 270.059C1272.5 270.994 1271.56 270.994 1270.63 270.059C1268.76 270.059 1266.89 269.124 1265.95 268.189C1265.02 267.254 1263.15 266.319 1262.21 268.189C1262.21 269.124 1261.28 269.124 1261.28 270.059C1261.28 270.059 1261.28 270.994 1260.34 270.994C1260.34 270.994 1260.34 270.994 1260.34 271.929V272.864C1260.34 272.864 1260.34 272.864 1260.34 273.799V274.734C1261.28 274.734 1261.28 275.669 1262.21 275.669C1263.15 275.669 1263.15 276.604 1264.08 276.604C1265.02 276.604 1265.02 277.54 1265.95 277.54C1268.76 279.41 1275.3 281.28 1275.3 281.28C1277.17 282.215 1282.78 283.15 1285.59 283.15C1287.46 281.28 1295.87 274.734 1295.87 274.734Z" fill="#F6C1AF"/>
<path d="M1315.51 287.825C1304.29 289.695 1275.3 279.41 1275.3 279.41L1281.85 272.865L1317.38 275.67C1317.38 275.67 1326.73 285.955 1315.51 287.825Z" fill="#F6C1AF"/>
<path d="M1031.35 201.354C1031.35 201.354 1046.92 205.933 1047.47 225.528C1047.29 225.528 1027.14 221.683 1031.35 201.354Z" fill="#E65435"/>
<path d="M1041.98 359.217C1041.98 359.217 1036.12 375.15 1015.79 374.418C1015.79 374.418 1021.1 353.54 1041.98 359.217Z" fill="#FF8D34"/>
<path d="M1341.4 72.4263C1341.4 72.4263 1356.79 79.7517 1354.22 100.08C1354.22 100.08 1333.71 92.9375 1341.4 72.4263Z" fill="#FF8D34"/>
<path d="M883.197 372.22C883.197 372.22 901.327 373.502 906.272 394.014C906.272 394.014 882.83 394.563 883.197 372.22Z" fill="#FDAE53"/>
<path d="M1177.13 448.039C1177.13 448.039 1156.8 446.024 1151.49 421.85C1151.49 422.033 1177.5 421.85 1177.13 448.039Z" fill="#FDAE53"/>
<path d="M1524.72 142.385C1524.72 142.385 1524.54 122.057 1547.98 113.999C1547.98 114.182 1550.73 140.187 1524.72 142.385Z" fill="#FDAE53"/>
<path d="M1212.84 43.7887C1212.84 43.7887 1232.44 38.2946 1246.36 58.8058C1246.17 58.8058 1222 68.3289 1212.84 43.7887Z" fill="#E65435"/>
<path d="M772.583 109.054C772.583 109.054 793.643 105.025 789.248 83.9641C789.248 83.9641 773.315 88.7256 772.583 109.054Z" fill="#FFDA9A"/>
<path d="M936.672 274.609C936.672 274.609 944.547 296.219 972.201 295.303C972.384 295.303 965.242 266.917 936.672 274.609Z" fill="#FFDA9A"/>
<path d="M626.073 193.479C626.073 193.479 617.832 214.54 637.977 230.839C638.16 230.839 651.163 205.017 626.073 193.479Z" fill="#FFDA9A"/>
<path d="M486.341 442.361C486.341 442.361 513.994 439.614 521.136 406.833C521.136 406.833 485.608 406.65 486.341 442.361Z" fill="#FFDA9A"/>
<path d="M441.106 -17.8601C441.106 -17.8601 437.81 12.1742 468.027 14.9213C468.027 14.9213 468.027 -8.7033 441.106 -17.8601Z" fill="#FFDA9A"/>
<path d="M950.957 77.5543C950.957 77.5543 970.553 85.246 977.878 65.4673C977.878 65.6505 962.128 61.0721 950.957 77.5543Z" fill="#FFDA9A"/>
<path d="M1403.6 456.8C1403.3 443.6 1393.2 433 1380.8 433C1368.4 433 1358.3 443.6 1358 456.8H1403.6Z" fill="#FDB336"/>
<path d="M1379.6 449.9C1380.6 448 1382 445.3 1383.3 442.2C1384.7 439.2 1385.8 436.4 1386.5 434.3C1386.6 434.1 1386.6 434 1386.7 433.8C1386.6 433.8 1386.4 433.7 1386.3 433.7C1386.2 433.8 1386.2 434 1386.1 434.1C1385.2 436.1 1384.1 438.9 1382.7 441.9C1382.2 443.1 1381.7 444.2 1381.2 445.3C1381.2 444.2 1380.8 441 1380.3 437.3C1380.2 435.8 1380 434.3 1379.8 433C1379.6 433 1379.4 433 1379.3 433C1379.4 434.3 1379.6 435.8 1379.8 437.4C1380.1 439.7 1380.4 441.8 1380.7 443.3C1380.9 444.4 1381.1 445.2 1381.2 445.5C1380.5 447.1 1379.8 448.4 1379.3 449.6C1378.9 450.5 1378.5 451.3 1378.3 451.9C1378 449.7 1377.7 447.4 1377.3 444.9C1376.6 440.6 1376 436.7 1375.6 433.7C1375.4 433.7 1375.3 433.8 1375.1 433.8C1375.5 436.9 1376 440.8 1376.6 445C1377.2 449.6 1377.9 453.7 1378.4 456.9H1378.9C1378.7 455.6 1378.5 454 1378.3 452.4C1378.5 451.8 1379 451 1379.6 449.9Z" fill="#C6811C"/>
<path d="M1402.2 450.3C1400.2 451.6 1398.6 452.8 1397.7 453.5C1398 452.3 1398.4 451.1 1398.7 449.8C1399.2 447.9 1399.7 446.1 1400.1 444.4C1400 444.2 1399.8 444 1399.7 443.7C1399.3 444.9 1399 446.3 1398.6 447.7C1397.7 448.3 1395.8 449.5 1393.7 451C1391.3 452.6 1389.3 454 1388.6 454.6C1388.6 453.6 1388.6 452.6 1388.6 451.5C1388.9 451.1 1389.4 450.5 1390 449.8C1391.1 448.3 1392.5 446.3 1393.9 443.9C1394.8 442.3 1395.6 440.8 1396.2 439.5C1396.1 439.4 1395.9 439.2 1395.8 439.1C1395.1 440.4 1394.3 442 1393.3 443.6C1391.9 446 1390.6 448.1 1389.6 449.6C1389.2 450.2 1388.9 450.7 1388.6 451.2C1388.6 449.4 1388.7 447.5 1388.7 445.6C1388.8 441.6 1389.1 437.9 1389.3 434.9C1389.1 434.8 1389 434.8 1388.8 434.7C1388.5 437.7 1388.2 441.5 1388.1 445.6C1387.9 449.9 1388 453.9 1388 457H1388.5C1388.5 456.4 1388.5 455.7 1388.5 455C1389.2 454.7 1391.5 453.4 1394 451.7C1395.9 450.4 1397.5 449.2 1398.4 448.4C1398.3 448.9 1398.1 449.3 1398 449.8C1397.3 452.4 1396.6 454.9 1396.1 456.9H1396.6C1396.9 456 1397.1 455.1 1397.4 454.1C1398.3 453.6 1400.2 452.4 1402.4 451C1402.5 451 1402.5 450.9 1402.6 450.9C1402.5 450.7 1402.5 450.5 1402.4 450.3C1402.4 450.2 1402.3 450.3 1402.2 450.3Z" fill="#C6811C"/>
<path d="M1370.9 449.3C1372.1 446.4 1373 443.9 1373 443.4C1373.6 444.1 1374.2 444.7 1374.8 445.2C1376 446.4 1376.8 447.1 1376.9 447C1377 446.9 1376.3 446.1 1375.1 444.9C1373.4 443 1372.1 441.5 1370.7 439.9C1369.8 439 1369 438.1 1368.2 437.1C1368 437.2 1367.9 437.3 1367.7 437.4C1368.4 438.3 1369.3 439.3 1370.2 440.3C1371.2 441.4 1372.1 442.4 1373 443.3C1372.7 443.6 1371.6 446 1370.4 449C1369.6 451.1 1368.9 452.9 1368.6 454C1368.2 453.1 1367.8 452.1 1367.3 451.1C1365.8 447.6 1364.3 444.4 1363.2 442C1363 442.1 1362.9 442.3 1362.8 442.4C1363.8 444.9 1365.2 448 1366.7 451.4C1366.9 451.8 1367 452.1 1367.2 452.5C1366.3 452 1364.5 451 1362.3 450C1361.3 449.5 1360.3 449.1 1359.5 448.7C1359.4 448.9 1359.4 449 1359.3 449.2C1360.1 449.6 1361 450.1 1362.1 450.5C1364.5 451.6 1366.6 452.5 1367.4 452.7C1367.7 453.5 1368.1 454.2 1368.4 454.9C1368.4 454.9 1368.4 454.9 1368.4 455C1368.7 455.6 1368.9 456.2 1369.2 456.8H1369.8C1369.5 456 1369.1 455.2 1368.8 454.4C1369.2 453.5 1370 451.6 1370.9 449.3Z" fill="#C6811C"/>
</g>
<defs>
<clipPath id="clip0_1971_1080">
<rect width="618.6" height="182.9" fill="white" transform="translate(1324 243)"/>
</clipPath>
</defs>
</svg>
