<svg width="15" height="20" viewBox="0 0 15 20" fill="none" xmlns="http://www.w3.org/2000/svg">
<path d="M14.3182 19.9977C14.1644 19.9969 14.0154 19.9452 13.8955 19.8511L7.5 14.8516L1.11137 19.8511C1.01117 19.9305 0.889961 19.9806 0.761828 19.9954C0.633695 20.0102 0.503896 19.9892 0.38751 19.9347C0.271125 19.8803 0.172931 19.7946 0.104337 19.6878C0.0357428 19.581 -0.000435955 19.4573 3.96466e-06 19.3311V0.666591C3.96466e-06 0.4898 0.0718383 0.32025 0.199704 0.19524C0.32757 0.0702299 0.500993 0 0.681822 0H14.3182C14.499 0 14.6724 0.0702299 14.8003 0.19524C14.9282 0.32025 15 0.4898 15 0.666591V19.3311C14.9996 19.4568 14.963 19.5798 14.8942 19.6859C14.8254 19.7921 14.7274 19.877 14.6114 19.9311C14.5207 19.9765 14.42 19.9994 14.3182 19.9977ZM7.5 13.3318C7.65614 13.3312 7.80776 13.3829 7.92955 13.4785L13.6364 17.9446V1.33318H1.36364V17.9446L7.07727 13.4785C7.19723 13.3844 7.34621 13.3327 7.5 13.3318Z" fill="#5D5D62"/>
</svg>
