<svg width="14" height="18" viewBox="0 0 14 18" fill="none" xmlns="http://www.w3.org/2000/svg">
<path d="M12.5986 17.998C12.4632 17.9972 12.3322 17.9507 12.2266 17.866L6.59925 13.3665L0.977892 17.866C0.889727 17.9375 0.783077 17.9825 0.670333 17.9959C0.557588 18.0092 0.443378 17.9902 0.34097 17.9412C0.238563 17.8922 0.152162 17.8152 0.0918061 17.719C0.0314501 17.6229 -0.000383597 17.5116 3.4885e-06 17.398V0.599932C3.4885e-06 0.44082 0.0632105 0.288225 0.17572 0.175716C0.288229 0.0632069 0.440824 0 0.599935 0H12.5986C12.7577 0 12.9103 0.0632069 13.0228 0.175716C13.1353 0.288225 13.1985 0.44082 13.1985 0.599932V17.398C13.1982 17.5111 13.1659 17.6218 13.1054 17.7173C13.0449 17.8129 12.9586 17.8893 12.8565 17.938C12.7768 17.9788 12.6882 17.9994 12.5986 17.998Z" fill="#EA1F1F"/>
</svg>
