<svg width="18" height="18" viewBox="0 0 18 18" fill="none" xmlns="http://www.w3.org/2000/svg">
<path fill-rule="evenodd" clip-rule="evenodd" d="M5.00607 7.53194C5.00607 7.06998 4.63229 6.69505 4.17173 6.69505H0.834346C0.373787 6.69505 0 7.06998 0 7.53194V10.8795C0 11.3414 0.373787 11.7163 0.834346 11.7163H4.17173C4.63229 11.7163 5.00607 11.3414 5.00607 10.8795V7.53194ZM7.50911 10.0426H16.8526C17.3131 10.0426 17.6869 9.66766 17.6869 9.2057C17.6869 8.74374 17.3131 8.36882 16.8526 8.36882H7.50911C7.04855 8.36882 6.67477 8.74374 6.67477 9.2057C6.67477 9.66766 7.04855 10.0426 7.50911 10.0426ZM1.66869 8.36882V10.0426H3.33738V8.36882H1.66869ZM5.00607 0.836882C5.00607 0.374923 4.63229 0 4.17173 0H0.834346C0.373787 0 0 0.374923 0 0.836882V4.18441C0 4.64637 0.373787 5.02129 0.834346 5.02129H4.17173C4.63229 5.02129 5.00607 4.64637 5.00607 4.18441V0.836882ZM1.66869 1.67376V3.34753H3.33738V1.67376H1.66869ZM7.50911 3.34753H16.8526C17.3131 3.34753 17.6869 2.9726 17.6869 2.51065C17.6869 2.04869 17.3131 1.67376 16.8526 1.67376H7.50911C7.04855 1.67376 6.67477 2.04869 6.67477 2.51065C6.67477 2.9726 7.04855 3.34753 7.50911 3.34753Z" fill="#151528"/>
<path fill-rule="evenodd" clip-rule="evenodd" d="M5.00607 13.8156C5.00607 13.3537 4.63229 12.9788 4.17173 12.9788H0.834346C0.373787 12.9788 0 13.3537 0 13.8156V17.1632C0 17.6251 0.373787 18.0001 0.834346 18.0001H4.17173C4.63229 18.0001 5.00607 17.6251 5.00607 17.1632V13.8156ZM1.66869 14.6525V16.3263H3.33738V14.6525H1.66869ZM7.50911 16.3263H16.8526C17.3131 16.3263 17.6869 15.9514 17.6869 15.4894C17.6869 15.0274 17.3131 14.6525 16.8526 14.6525H7.50911C7.04855 14.6525 6.67477 15.0274 6.67477 15.4894C6.67477 15.9514 7.04855 16.3263 7.50911 16.3263Z" fill="#151528"/>
</svg>
