<svg width="18" height="18" viewBox="0 0 18 18" fill="none" xmlns="http://www.w3.org/2000/svg">
<path fill-rule="evenodd" clip-rule="evenodd" d="M8.1 10.8C8.1 10.3032 7.6968 9.9 7.2 9.9H0.9C0.4032 9.9 0 10.3032 0 10.8V17.1C0 17.5968 0.4032 18 0.9 18H7.2C7.6968 18 8.1 17.5968 8.1 17.1V10.8ZM18 10.8C18 10.3032 17.5968 9.9 17.1 9.9H10.8C10.3032 9.9 9.9 10.3032 9.9 10.8V17.1C9.9 17.5968 10.3032 18 10.8 18H17.1C17.5968 18 18 17.5968 18 17.1V10.8ZM6.3 11.7V16.2H1.8V11.7H6.3ZM16.2 11.7V16.2H11.7V11.7H16.2ZM18 0.9C18 0.4032 17.5968 0 17.1 0H10.8C10.3032 0 9.9 0.4032 9.9 0.9V7.2C9.9 7.6968 10.3032 8.1 10.8 8.1H17.1C17.5968 8.1 18 7.6968 18 7.2V0.9ZM8.1 0.9C8.1 0.4032 7.6968 0 7.2 0H0.9C0.4032 0 0 0.4032 0 0.9V7.2C0 7.6968 0.4032 8.1 0.9 8.1H7.2C7.6968 8.1 8.1 7.6968 8.1 7.2V0.9ZM16.2 1.8V6.3H11.7V1.8H16.2ZM6.3 1.8V6.3H1.8V1.8H6.3Z" fill="#151528"/>
</svg>
