<svg width="360" height="120" viewBox="0 0 360 120" fill="none" xmlns="http://www.w3.org/2000/svg">
<mask id="mask0_211_296" style="mask-type:alpha" maskUnits="userSpaceOnUse" x="0" y="0" width="360" height="120">
<rect x="0.5" y="0.5" width="359" height="119" rx="5.5" fill="#EBF3FA" stroke="#E7F0FA"/>
</mask>
<g mask="url(#mask0_211_296)">
<path d="M434.387 120C438.477 116.854 442.085 113.179 444.775 108.765C450.238 99.7973 450.88 87.1667 443.866 79.366C436.074 70.7015 422.694 70.9362 411.132 72.0882C399.573 73.2432 386.411 74.1448 377.903 66.1908C370.967 59.7048 369.488 49.3624 368.779 39.8652C368.069 30.368 367.465 20.1571 361.575 12.6977C353.646 2.65889 337.688 1.44748 326.945 8.35285C316.205 15.2582 310.599 28.5024 310.471 41.3208C310.418 46.805 310.745 53.4036 306.24 56.4963C302.648 58.963 297.717 57.7516 293.856 55.7325C289.999 53.7166 286.36 50.937 282.049 50.3516C276.311 49.5753 270.596 53.0718 267.411 57.9331C264.226 62.7944 263.202 68.7857 263.028 74.6018C262.53 91.1139 268.784 107.598 279.589 120H434.387Z" fill="#EBF3FA"/>
<rect x="0.5" y="0.5" width="359" height="119" rx="5.5" stroke="#E7F0FA"/>
<path d="M311.895 114.393H360.457V81.7439H311.895V114.393Z" fill="#D5E7F7"/>
<path d="M311.895 88.0912H360.457V77.4801H311.895V88.0912Z" fill="#C4D9ED"/>
<path d="M354.655 94.7507H357.148V91.2366H354.655V94.7507Z" fill="#C4D9ED"/>
<path d="M349.989 94.7507H352.484V91.2366H349.989V94.7507Z" fill="#C4D9ED"/>
<path d="M345.431 94.7507H347.924V91.2366H345.431V94.7507Z" fill="#C4D9ED"/>
<path d="M341.109 94.7507H343.604V91.2366H341.109V94.7507Z" fill="#C4D9ED"/>
<path d="M336.7 94.7507H339.195V91.2366H336.7V94.7507Z" fill="#C4D9ED"/>
<path d="M332.245 94.7507H334.74V91.2366H332.245V94.7507Z" fill="#C4D9ED"/>
<path d="M327.581 94.7507H330.076V91.2366H327.581V94.7507Z" fill="#C4D9ED"/>
<path d="M323.023 94.7507H325.518V91.2366H323.023V94.7507Z" fill="#C4D9ED"/>
<path d="M318.698 94.7507H321.193V91.2366H318.698V94.7507Z" fill="#C4D9ED"/>
<path d="M314.294 94.7507H316.789V91.2366H314.294V94.7507Z" fill="#C4D9ED"/>
<path d="M354.655 100.951H357.149V97.4367H354.655V100.951Z" fill="#C4D9ED"/>
<path d="M349.99 100.951H352.485V97.4367H349.99V100.951Z" fill="#C4D9ED"/>
<path d="M345.431 100.951H347.924V97.4367H345.431V100.951Z" fill="#C4D9ED"/>
<path d="M341.109 100.951H343.604V97.4367H341.109V100.951Z" fill="#C4D9ED"/>
<path d="M336.701 100.951H339.195V97.4367H336.701V100.951Z" fill="#C4D9ED"/>
<path d="M332.245 100.951H334.74V97.4367H332.245V100.951Z" fill="#C4D9ED"/>
<path d="M327.581 100.951H330.076V97.4367H327.581V100.951Z" fill="#C4D9ED"/>
<path d="M323.023 100.951H325.518V97.4367H323.023V100.951Z" fill="#C4D9ED"/>
<path d="M318.699 100.951H321.193V97.4367H318.699V100.951Z" fill="#C4D9ED"/>
<path d="M314.294 100.951H316.789V97.4367H314.294V100.951Z" fill="#C4D9ED"/>
<path d="M354.655 107.057H357.149V103.543H354.655V107.057Z" fill="#C4D9ED"/>
<path d="M349.99 107.057H352.485V103.543H349.99V107.057Z" fill="#C4D9ED"/>
<path d="M345.431 107.057H347.924V103.543H345.431V107.057Z" fill="#C4D9ED"/>
<path d="M341.109 107.057H343.604V103.543H341.109V107.057Z" fill="#C4D9ED"/>
<path d="M336.701 107.057H339.195V103.543H336.701V107.057Z" fill="#C4D9ED"/>
<path d="M332.245 107.057H334.74V103.543H332.245V107.057Z" fill="#C4D9ED"/>
<path d="M327.581 107.057H330.076V103.543H327.581V107.057Z" fill="#C4D9ED"/>
<path d="M323.023 107.057H325.518V103.543H323.023V107.057Z" fill="#C4D9ED"/>
<path d="M318.699 107.057H321.193V103.543H318.699V107.057Z" fill="#C4D9ED"/>
<path d="M314.294 107.057H316.789V103.543H314.294V107.057Z" fill="#C4D9ED"/>
<path d="M354.656 84.0851H356.752V80.4596H354.656V84.0851Z" fill="#ADC9E0"/>
<path d="M333.849 84.0851H335.945V80.4596H333.849V84.0851Z" fill="#ADC9E0"/>
<path d="M317.298 84.0851H319.395V80.4596H317.298V84.0851Z" fill="#ADC9E0"/>
<path d="M335.5 32C327.492 32 321 38.4409 321 46.3877C321 54.3333 335.5 72 335.5 72C335.5 72 350 54.3345 350 46.3877C350 38.4421 343.509 32 335.5 32ZM335.5 52.9668C331.757 52.9668 328.723 49.9551 328.723 46.2418C328.723 42.5274 331.757 39.5168 335.5 39.5168C339.243 39.5168 342.277 42.5274 342.277 46.2418C342.277 49.9551 339.243 52.9668 335.5 52.9668Z" fill="#6195D0"/>
</g>
</svg>
