<svg width="25" height="22" viewBox="0 0 25 22" fill="none" xmlns="http://www.w3.org/2000/svg">
<path d="M23.7787 10.0474L12.5121 0.185476C12.2297 -0.0618252 11.8106 -0.0618252 11.5282 0.185476L7.51128 3.69934V2.27618C7.51128 1.43865 6.83829 0.758984 6.0091 0.758984C5.1799 0.758984 4.50686 1.4387 4.50686 2.27618V6.32867L0.258609 10.0474C-0.0538455 10.322 -0.088387 10.8014 0.183497 11.1185C0.456914 11.4341 0.930117 11.4675 1.24405 11.1944L12.0179 1.76336L22.7903 11.1944C22.9345 11.3188 23.1072 11.3795 23.283 11.3795C23.4948 11.3795 23.7006 11.29 23.8493 11.1185C24.1257 10.8014 24.0897 10.325 23.7787 10.0474Z" fill="#5D5D62"/>
<path d="M12.4879 6.23264L12.4896 6.23409L20.0006 12.4547L20.0024 12.4562C20.1771 12.5999 20.2803 12.8149 20.2803 13.0499V20.4827C20.2803 20.9126 19.9351 21.2499 19.5281 21.2499H15.7715V14.4139V13.6639H15.0215H9.01269H8.26269V14.4139V21.2499H4.50609C4.09811 21.2499 3.75391 20.913 3.75391 20.4827V13.0498C3.75391 12.8146 3.85704 12.5979 4.03172 12.4534L4.03202 12.4532L11.543 6.23415L11.5452 6.23231C11.6832 6.11721 11.85 6.06055 12.0171 6.06055C12.1825 6.06055 12.3499 6.11768 12.4879 6.23264Z" stroke="#5D5D62" stroke-width="1.5"/>
</svg>
