<svg width="74" height="74" viewBox="0 0 74 74" fill="none" xmlns="http://www.w3.org/2000/svg">
<path d="M27.6498 19.7107C27.0988 19.7107 26.6519 20.1574 26.6519 20.7086C26.6519 21.9191 25.667 22.904 24.4565 22.904C23.246 22.904 22.2611 21.9191 22.2611 20.7086C22.2611 19.4981 23.246 18.5132 24.4565 18.5132C25.0076 18.5132 25.4544 18.0664 25.4544 17.5153C25.4544 16.9641 25.0077 16.5173 24.4565 16.5173C22.1455 16.5173 20.2654 18.3976 20.2654 20.7085C20.2654 23.0194 22.1456 24.8996 24.4565 24.8996C26.7674 24.8996 28.6476 23.0194 28.6476 20.7085C28.6478 20.1574 28.2009 19.7107 27.6498 19.7107Z" fill="#1565C0"/>
<path d="M27.6498 31.4192C27.0988 31.4192 26.6519 31.8659 26.6519 32.4171C26.6519 33.6276 25.667 34.6125 24.4565 34.6125C23.246 34.6125 22.2611 33.6276 22.2611 32.4171C22.2611 31.2065 23.246 30.2217 24.4565 30.2217C25.0076 30.2217 25.4544 29.7749 25.4544 29.2238C25.4544 28.6726 25.0077 28.2258 24.4565 28.2258C22.1455 28.2258 20.2654 30.1061 20.2654 32.417C20.2654 34.7279 22.1456 36.6081 24.4565 36.6081C26.7674 36.6081 28.6476 34.7279 28.6476 32.417C28.6478 31.866 28.2009 31.4192 27.6498 31.4192Z" fill="#1565C0"/>
<path d="M39.3584 33.5481H31.9075C31.3564 33.5481 30.9095 33.9948 30.9095 34.546C30.9095 35.0972 31.3563 35.544 31.9075 35.544H39.3584C39.9095 35.544 40.3563 35.0972 40.3563 34.546C40.3563 33.9948 39.9096 33.5481 39.3584 33.5481Z" fill="#1565C0"/>
<path d="M39.3584 29.2903H31.9075C31.3564 29.2903 30.9095 29.737 30.9095 30.2882C30.9095 30.8394 31.3563 31.2861 31.9075 31.2861H39.3584C39.9095 31.2861 40.3563 30.8394 40.3563 30.2882C40.3563 29.737 39.9096 29.2903 39.3584 29.2903Z" fill="#1565C0"/>
<path d="M37.2296 45.2566H31.9075C31.3564 45.2566 30.9095 45.7033 30.9095 46.2545C30.9095 46.8057 31.3563 47.2524 31.9075 47.2524H37.2296C37.7807 47.2524 38.2275 46.8057 38.2275 46.2545C38.2275 45.7033 37.7807 45.2566 37.2296 45.2566Z" fill="#1565C0"/>
<path d="M39.3584 40.999H31.9075C31.3564 40.999 30.9095 41.4458 30.9095 41.997C30.9095 42.5481 31.3563 42.9949 31.9075 42.9949H39.3584C39.9095 42.9949 40.3563 42.5481 40.3563 41.997C40.3563 41.4458 39.9096 40.999 39.3584 40.999Z" fill="#1565C0"/>
<path d="M48.9382 21.8394H31.9075C31.3564 21.8394 30.9095 22.2861 30.9095 22.8373C30.9095 23.3885 31.3563 23.8352 31.9075 23.8352H48.9381C49.4892 23.8352 49.9361 23.3885 49.9361 22.8373C49.9361 22.2861 49.4893 21.8394 48.9382 21.8394Z" fill="#1565C0"/>
<path d="M44.6805 17.5815H31.9075C31.3564 17.5815 30.9095 18.0283 30.9095 18.5795C30.9095 19.1307 31.3563 19.5774 31.9075 19.5774H44.6805C45.2316 19.5774 45.6785 19.1307 45.6785 18.5795C45.6785 18.0283 45.2317 17.5815 44.6805 17.5815Z" fill="#1565C0"/>
<path d="M27.6498 43.1277C27.0988 43.1277 26.6519 43.5744 26.6519 44.1256C26.6519 45.3361 25.667 46.321 24.4565 46.321C23.246 46.321 22.2611 45.3361 22.2611 44.1256C22.2611 42.915 23.246 41.9302 24.4565 41.9302C25.0076 41.9302 25.4544 41.4834 25.4544 40.9323C25.4544 40.3811 25.0077 39.9343 24.4565 39.9343C22.1455 39.9343 20.2654 41.8145 20.2654 44.1255C20.2654 46.4364 22.1456 48.3166 24.4565 48.3166C26.7674 48.3166 28.6476 46.4364 28.6476 44.1255C28.6478 43.5744 28.2009 43.1277 27.6498 43.1277Z" fill="#1565C0"/>
<path d="M53.1959 6.9375H17.0056C15.2816 6.9375 13.8789 8.3401 13.8789 10.0642V54.7698C13.8789 56.4939 15.2815 57.8965 17.0056 57.8965H35.1008C35.6519 57.8965 36.0987 57.4498 36.0987 56.8986C36.0987 56.3475 35.652 55.9007 35.1008 55.9007H17.0056C16.382 55.9007 15.8746 55.3933 15.8746 54.7697V10.0642C15.8746 9.4406 16.382 8.93323 17.0056 8.93323H53.1959C53.8195 8.93323 54.3269 9.4406 54.3269 10.0642V43.0614C54.3269 43.6124 54.7736 44.0593 55.3248 44.0593C55.8758 44.0593 56.3227 43.6126 56.3227 43.0614V10.0642C56.3226 8.3401 54.92 6.9375 53.1959 6.9375Z" fill="#1565C0"/>
<path d="M62.6174 47.4041C61.6899 47.3116 60.763 47.5745 60.0293 48.1316C59.4449 47.1509 58.4483 46.4552 57.2953 46.3397C56.3676 46.2473 55.4407 46.5102 54.7072 47.0672C54.1227 46.0865 53.1262 45.3908 51.9732 45.2753C51.2649 45.2046 50.5576 45.341 49.9361 45.6573V32.9493C49.9361 31.9175 49.4972 30.9284 48.7315 30.2357C47.9666 29.5436 46.9358 29.2057 45.9033 29.3091C44.0612 29.4935 42.6182 31.1592 42.6182 33.1011V45.8413L39.6848 48.7747C38.126 50.3335 37.4968 52.5452 38.0018 54.6912L40.2288 64.1561C41.1311 67.9913 44.513 70.6698 48.453 70.6698H57.4535C62.1122 70.6698 65.9023 66.8797 65.9023 62.2209V51.1964C65.9025 49.2542 64.4595 47.5886 62.6174 47.4041ZM63.9066 62.2207C63.9066 65.7789 61.0118 68.6737 57.4536 68.6737H48.4531C45.4439 68.6737 42.8607 66.6279 42.1715 63.6986L39.9445 54.2338C39.5989 52.7656 40.0295 51.2522 41.096 50.1857L42.6182 48.6634V52.1087C42.6182 52.6598 43.065 53.1066 43.6162 53.1066C44.1674 53.1066 44.6141 52.6599 44.6141 52.1087V33.101C44.6141 32.1718 45.2677 31.3784 46.1023 31.295C46.5817 31.2468 47.0401 31.3964 47.3927 31.7156C47.7408 32.0306 47.9405 32.4804 47.9405 32.9494V50.5123C47.9405 51.0634 48.3872 51.5102 48.9384 51.5102C49.4896 51.5102 49.9363 51.0635 49.9363 50.5123V48.9156C49.9363 48.4466 50.1359 47.9969 50.4842 47.6818C50.8369 47.3627 51.2951 47.2129 51.7745 47.2612C52.609 47.3447 53.2627 48.1381 53.2627 49.0674V51.5764C53.2627 52.1275 53.7095 52.5744 54.2607 52.5744C54.8117 52.5744 55.2586 52.1276 55.2586 51.5764V49.9798C55.2586 49.5108 55.4581 49.061 55.8064 48.746C56.1592 48.4268 56.6175 48.2772 57.0967 48.3254C57.9312 48.4089 58.585 49.2023 58.585 50.1315V52.6407C58.585 53.1918 59.0317 53.6386 59.5829 53.6386C60.134 53.6386 60.5808 53.1919 60.5808 52.6407V51.0441C60.5808 50.575 60.7804 50.1253 61.1287 49.8102C61.4814 49.4912 61.9394 49.3413 62.419 49.3898C63.2535 49.4732 63.9072 50.2666 63.9072 51.1958L63.9066 62.2207Z" fill="#1565C0"/>
</svg>
