<svg width="74" height="74" viewBox="0 0 74 74" fill="none" xmlns="http://www.w3.org/2000/svg">
<path d="M37.5695 49.1177C36.9797 49.1177 36.5016 49.5958 36.5016 50.1856V52.4633C36.5016 53.0531 36.9797 53.5312 37.5695 53.5312C38.1593 53.5312 38.6374 53.0531 38.6374 52.4633V50.1856C38.6374 49.5958 38.1593 49.1177 37.5695 49.1177Z" fill="#1565C0"/>
<path d="M69.8847 33.8168C69.4679 33.4 68.914 33.1705 68.3245 33.1705C68.3243 33.1705 68.3246 33.1705 68.3245 33.1705L65.5828 33.1709C65.5481 33.1709 65.5242 33.1319 65.5169 33.0957C64.7634 29.3997 63.0736 25.9153 60.63 23.0191C58.2681 20.2197 55.2431 18.0182 51.8699 16.6354C51.3258 14.3385 50.177 11.9704 47.9114 10.1902C45.718 8.46678 43.5089 8.13513 43.416 8.12177C43.11 8.07815 42.7992 8.16932 42.5653 8.37221C42.3313 8.5751 42.1971 8.86928 42.1971 9.17892V14.9455H38.3216C37.3639 11.6592 34.3267 9.25018 30.7353 9.25018C27.0677 9.25018 23.9763 11.762 23.0891 15.1555C17.809 15.8747 12.9512 18.4328 9.34654 22.41C5.5562 26.5926 3.46875 32.0069 3.46875 37.6557C3.46875 50.3349 10.0512 60.6514 12.0689 63.5111C12.6921 64.3945 13.7128 64.9221 14.7993 64.9221H19.3445C21.1895 64.9221 22.6905 63.4211 22.6905 61.5761V60.098C23.8407 60.275 25.0092 60.3658 26.179 60.3658H36.5017V61.5761C36.5017 63.4211 38.0028 64.9221 39.8478 64.9221H44.8404C46.4077 64.9221 47.7837 63.8097 48.1121 62.2772L48.6601 59.7199C55.6786 58.0108 61.3217 53.0869 64.0991 46.6973H68.3243C69.5413 46.6973 70.5312 45.7073 70.5312 44.4903V35.3777C70.5312 34.7879 70.3018 34.2337 69.8847 33.8168ZM30.7352 11.3861C33.9149 11.3861 36.5016 13.973 36.5016 17.1527C36.5016 17.9658 36.3275 18.7668 35.9996 19.502H25.4706C25.1428 18.7665 24.9686 17.9658 24.9686 17.1527C24.9686 13.9728 27.5555 11.3861 30.7352 11.3861ZM68.3955 44.4901C68.3955 44.5294 68.3636 44.5613 68.3242 44.5613H64.9019C65.4836 42.7402 65.8416 40.825 65.944 38.85C65.9747 38.2611 65.5219 37.7588 64.9328 37.7283C64.3438 37.6984 63.8416 38.1504 63.8111 38.7395C63.3587 47.4618 57.4221 54.909 49.1632 57.3718L50.6552 50.4095C50.7789 49.8328 50.4114 49.2651 49.8347 49.1416C49.2584 49.0177 48.6904 49.3854 48.5668 49.9621L46.0237 61.8295C45.9049 62.3838 45.4072 62.7862 44.8404 62.7862H39.8475C39.1802 62.7862 38.6373 62.2433 38.6373 61.576V57.0196C38.6373 56.4298 38.1592 55.9517 37.5694 55.9517C36.9796 55.9517 36.5015 56.4298 36.5015 57.0196V58.2299H26.1787C25.0071 58.2299 23.8375 58.1292 22.6903 57.9336V50.1854C22.6903 49.5956 22.2122 49.1175 21.6224 49.1175C21.0326 49.1175 20.5545 49.5956 20.5545 50.1854V61.5761C20.5545 62.2434 20.0116 62.7864 19.3442 62.7864H14.7993C14.4001 62.7864 14.0409 62.6018 13.8141 62.28C11.8882 59.5499 5.60453 49.7062 5.60453 37.6556C5.60453 32.5379 7.49551 27.6329 10.9291 23.8443C14.0713 20.3768 18.2639 18.1003 22.8362 17.3527C22.8547 18.0845 22.9746 18.808 23.19 19.5017H22.7617C22.1719 19.5017 21.6938 19.9798 21.6938 20.5696C21.6938 21.1594 22.1719 21.6375 22.7617 21.6375H38.7087C39.2985 21.6375 39.7765 21.1594 39.7765 20.5696C39.7765 19.9798 39.2985 19.5017 38.7087 19.5017H38.2802C38.5153 18.7448 38.6374 17.9525 38.6374 17.1524C38.6374 17.1284 38.6358 17.105 38.6356 17.0812H42.1969V19.4304C42.1969 20.0203 42.675 20.4983 43.2648 20.4983C43.8547 20.4983 44.3327 20.0203 44.3327 19.4304V10.5811C46.3589 11.3478 50.1704 13.703 50.1704 20.5697C50.1704 21.1595 50.6485 21.6376 51.2383 21.6376C51.8281 21.6376 52.3062 21.1595 52.3062 20.5697C52.3062 20.1173 52.2899 19.6396 52.2524 19.146C54.8284 20.4008 57.1394 22.1942 58.9977 24.3966C61.2113 27.0203 62.7419 30.1759 63.4242 33.5225C63.6349 34.5566 64.5429 35.307 65.5832 35.3068L68.3245 35.3066C68.3317 35.3066 68.3539 35.3066 68.3748 35.3274C68.3956 35.3482 68.3956 35.3702 68.3956 35.3777L68.3955 44.4901Z" fill="#1565C0"/>
<path d="M59.0732 33.8656C58.4104 32.0874 56.6559 30.8926 54.708 30.8926C52.7599 30.8926 51.0056 32.0873 50.3425 33.8656C50.1364 34.4182 50.4174 35.0332 50.97 35.2392C51.5228 35.4455 52.1377 35.1643 52.3436 34.6117C52.6967 33.6647 53.6469 33.0284 54.7078 33.0284C55.7688 33.0284 56.719 33.6647 57.072 34.6117C57.2322 35.0414 57.6396 35.3068 58.0727 35.3068C58.1968 35.3068 58.3228 35.285 58.4456 35.2392C58.9983 35.0332 59.2792 34.4181 59.0732 33.8656Z" fill="#1565C0"/>
<path d="M31.803 36.8415V31.3843C33.898 31.6389 35.3626 32.6095 35.3626 33.4911C35.3626 34.0809 35.8407 34.559 36.4305 34.559C37.0203 34.559 37.4984 34.0809 37.4984 33.4911C37.4984 31.3079 35.0708 29.5527 31.803 29.2355V29.1128C31.803 28.523 31.325 28.0449 30.7352 28.0449C30.1453 28.0449 29.6673 28.523 29.6673 29.1128V29.2355C26.3995 29.5527 23.9719 31.3079 23.9719 33.4911C23.9719 36.6094 27.0526 37.7348 29.6673 38.4701V43.9273C27.5723 43.6727 26.1077 42.7021 26.1077 41.8205C26.1077 41.2307 25.6296 40.7526 25.0398 40.7526C24.45 40.7526 23.9719 41.2307 23.9719 41.8205C23.9719 44.0037 26.3995 45.759 29.6673 46.0761V46.1988C29.6673 46.7886 30.1453 47.2667 30.7352 47.2667C31.325 47.2667 31.803 46.7886 31.803 46.1988V46.0761C35.0708 45.759 37.4984 44.0037 37.4984 41.8205C37.4984 38.7021 34.4176 37.5768 31.803 36.8415ZM29.6673 36.2343C27.0372 35.4092 26.1077 34.6595 26.1077 33.4911C26.1077 32.6095 27.5723 31.6389 29.6673 31.3843V36.2343ZM31.803 43.9275V39.0775C34.4332 39.9024 35.3626 40.6523 35.3626 41.8206C35.3626 42.7023 33.8978 43.6728 31.803 43.9275Z" fill="#1565C0"/>
</svg>
