<svg width="74" height="74" viewBox="0 0 74 74" fill="none" xmlns="http://www.w3.org/2000/svg">
<path d="M36.4219 41.97C28.6413 41.97 22.3114 48.3 22.3114 56.0805C22.3114 63.8609 28.6413 70.1911 36.4219 70.1911C44.2025 70.1911 50.5324 63.8611 50.5324 56.0806C50.5324 48.3001 44.2025 41.97 36.4219 41.97ZM36.4219 68.1461C29.769 68.1461 24.3564 62.7335 24.3564 56.0806C24.3564 49.4276 29.769 44.0151 36.4219 44.0151C43.0748 44.0151 48.4874 49.4276 48.4874 56.0806C48.4874 62.7335 43.0748 68.1461 36.4219 68.1461Z" fill="#1565C0"/>
<path d="M44.7795 50.9951C44.3803 50.5957 43.7328 50.5957 43.3336 50.9951L34.2405 60.0881L29.5102 55.3578C29.1109 54.9585 28.4635 54.9585 28.0643 55.3578C27.6649 55.7572 27.6649 56.4045 28.0643 56.8037L33.5177 62.2571C33.7173 62.4568 33.979 62.5566 34.2406 62.5566C34.5023 62.5566 34.764 62.4569 34.9636 62.2571L44.7796 52.4411C45.1789 52.0418 45.1789 51.3943 44.7795 50.9951Z" fill="#1565C0"/>
<path d="M61.5073 9.25H11.3365C9.56993 9.25 8.13269 10.6872 8.13269 12.4538V58.2619C8.13269 60.0285 9.56993 61.4658 11.3365 61.4658H18.9712C19.5358 61.4658 19.9937 61.008 19.9937 60.4432C19.9937 59.8784 19.536 59.4207 18.9712 59.4207H11.3365C10.6975 59.4207 10.1777 58.9009 10.1777 58.2618V12.4538C10.1777 11.8148 10.6975 11.295 11.3365 11.295H28.8554V26.6325C28.8554 26.9869 29.039 27.316 29.3403 27.5024C29.6416 27.6888 30.0181 27.7057 30.3352 27.5471L32.0592 26.6851L33.783 27.5471C34.0708 27.6909 34.4096 27.6913 34.6975 27.5471L36.4224 26.6849L38.1463 27.5469C38.4343 27.6909 38.773 27.6909 39.0611 27.5469L40.7849 26.6849L42.5089 27.5469C42.6532 27.619 42.8099 27.6548 42.9662 27.6548C43.1532 27.6548 43.3396 27.6035 43.5037 27.5021C43.8051 27.3157 43.9886 26.9867 43.9886 26.6323V11.295H61.5075C62.1466 11.295 62.6664 11.8148 62.6664 12.4538V58.2619C62.6664 58.901 62.1466 59.4208 61.5075 59.4208H53.8723C53.3076 59.4208 52.8497 59.8786 52.8497 60.4433C52.8497 61.0081 53.3075 61.4659 53.8723 61.4659H61.5075C63.2741 61.4659 64.7113 60.0286 64.7113 58.2621V12.4538C64.7111 10.6872 63.2739 9.25 61.5073 9.25ZM41.9434 24.9781L41.242 24.6274C40.954 24.4834 40.6153 24.4834 40.3272 24.6274L38.6034 25.4894L36.8794 24.6274C36.5915 24.4836 36.2528 24.4833 35.965 24.6274L34.24 25.4894L32.5162 24.6274C32.3722 24.5554 32.2155 24.5195 32.0589 24.5195C31.9022 24.5195 31.7456 24.5554 31.6016 24.6274L30.9002 24.9782V11.295H41.9433L41.9434 24.9781Z" fill="#1565C0"/>
<path d="M24.0568 23.7283C23.6575 23.329 23.0101 23.329 22.6109 23.7283L21.0844 25.2548V18.9979C21.0844 18.4332 20.6266 17.9753 20.0618 17.9753C19.4972 17.9753 19.0393 18.4331 19.0393 18.9979V25.2548L17.5128 23.7283C17.1134 23.329 16.466 23.329 16.0668 23.7283C15.6675 24.1277 15.6675 24.775 16.0668 25.1743L19.3389 28.4463C19.5385 28.6459 19.8002 28.7457 20.0618 28.7457C20.3234 28.7457 20.5852 28.646 20.7848 28.4463L24.0568 25.1743C24.4561 24.775 24.4561 24.1274 24.0568 23.7283Z" fill="#1565C0"/>
<path d="M23.3338 13.6125H16.7898C16.2251 13.6125 15.7672 14.0703 15.7672 14.6351C15.7672 15.1998 16.225 15.6576 16.7898 15.6576H23.3338C23.8985 15.6576 24.3563 15.1999 24.3563 14.6351C24.3563 14.0704 23.8986 13.6125 23.3338 13.6125Z" fill="#1565C0"/>
</svg>
