<svg width="74" height="74" viewBox="0 0 74 74" fill="none" xmlns="http://www.w3.org/2000/svg">
<path d="M68.8197 33.7283L66.9034 26.0631C67.4273 25.9518 67.8204 25.487 67.8204 24.9301V23.6942C67.8204 21.0109 65.6373 18.8279 62.9541 18.8279H54.2255V16.2786C54.2255 14.9582 53.1514 13.884 51.8309 13.884H7.33814C6.0177 13.884 4.94355 14.9582 4.94355 16.2786V37.2891C4.94355 37.929 5.46227 38.4478 6.10225 38.4478C6.74209 38.4478 7.26096 37.9291 7.26096 37.2891V16.2786C7.26096 16.236 7.2955 16.2014 7.33814 16.2014H51.8308C51.8734 16.2014 51.908 16.236 51.908 16.2786V37.2894C51.908 37.9293 52.4267 38.4481 53.0667 38.4481C53.7065 38.4481 54.2254 37.9294 54.2254 37.2894V35.9759H67.8936C67.8947 35.9759 67.8956 35.9762 67.8966 35.9762C67.8977 35.9762 67.8988 35.9761 67.8998 35.9761C69.5817 35.9772 71.0098 37.0812 71.5003 38.6023H67.8975C67.2576 38.6023 66.7388 39.1211 66.7388 39.7611V42.2328C66.7388 44.2347 68.3673 45.8633 70.3692 45.8633H71.6824V50.9614H68.6528C67.6575 48.0876 64.9258 46.0177 61.7179 46.0177C58.51 46.0177 55.7781 48.0876 54.783 50.9614H54.2251V42.2327C54.2251 41.5928 53.7064 41.074 53.0664 41.074C52.4265 41.074 51.9077 41.5927 51.9077 42.2327V50.9611H27.8681C26.8728 48.0874 24.1411 46.0174 20.9332 46.0174C17.7253 46.0174 14.9934 48.0874 13.9983 50.9611H7.33814C7.2955 50.9611 7.26096 50.9265 7.26096 50.8839V48.3348H12.2818C12.9217 48.3348 13.4405 47.8161 13.4405 47.1761C13.4405 46.5361 12.9218 46.0174 12.2818 46.0174H1.15871C0.518867 46.0174 0 46.5361 0 47.1761C0 47.8161 0.518723 48.3348 1.15871 48.3348H4.94369V50.8839C4.94369 52.2043 6.01785 53.2785 7.33828 53.2785H13.5971C13.5968 53.3042 13.595 53.3298 13.595 53.3557C13.595 57.402 16.887 60.6938 20.9332 60.6938C24.9793 60.6938 28.2713 57.402 28.2713 53.3557C28.2713 53.3296 28.2696 53.3042 28.2693 53.2785H54.3818C54.3815 53.3042 54.3797 53.3298 54.3797 53.3557C54.3797 57.402 57.6717 60.6938 61.7179 60.6938C65.764 60.6938 69.056 57.402 69.056 53.3557C69.056 53.3296 69.0543 53.3042 69.054 53.2785H72.8411C73.481 53.2785 73.9999 52.7598 73.9999 52.1198V39.7608C74 36.7094 71.7486 34.1742 68.8197 33.7283ZM54.2255 21.1451H62.9541C64.3596 21.1451 65.5032 22.2887 65.5032 23.6942V23.7714H54.2255V21.1451ZM54.2255 33.6587V26.0887H64.5212L66.4137 33.6587H54.2255ZM20.9332 58.3768C18.1647 58.3768 15.9123 56.1246 15.9123 53.3559C15.9123 50.5873 18.1647 48.3351 20.9332 48.3351C23.7017 48.3351 25.9541 50.5873 25.9541 53.3559C25.9541 56.1246 23.7017 58.3768 20.9332 58.3768ZM61.7182 58.3768C58.9497 58.3768 56.6973 56.1246 56.6973 53.3559C56.6973 50.5873 58.9497 48.3351 61.7182 48.3351C64.4867 48.3351 66.739 50.5873 66.739 53.3559C66.739 56.1246 64.4867 58.3768 61.7182 58.3768ZM71.6827 43.5459H70.3695C69.6454 43.5459 69.0563 42.9568 69.0563 42.2327V40.9195H71.6826L71.6827 43.5459Z" fill="#1565C0"/>
<path d="M20.9332 50.9614C19.6127 50.9614 18.5386 52.0356 18.5386 53.356C18.5386 54.6765 19.6127 55.7506 20.9332 55.7506C22.2536 55.7506 23.3278 54.6765 23.3278 53.356C23.3278 52.0356 22.2536 50.9614 20.9332 50.9614Z" fill="#1565C0"/>
<path d="M61.7181 50.9614C60.3977 50.9614 59.3235 52.0356 59.3235 53.356C59.3235 54.6765 60.3977 55.7506 61.7181 55.7506C63.0386 55.7506 64.1127 54.6765 64.1127 53.356C64.1127 52.0356 63.0386 50.9614 61.7181 50.9614Z" fill="#1565C0"/>
<path d="M48.1232 46.0178H30.8204C30.1806 46.0178 29.6617 46.5365 29.6617 47.1765C29.6617 47.8165 30.1805 48.3352 30.8204 48.3352H48.1232C48.763 48.3352 49.2819 47.8165 49.2819 47.1765C49.2819 46.5365 48.7631 46.0178 48.1232 46.0178Z" fill="#1565C0"/>
<path d="M18.4614 41.0742H3.63051C2.99067 41.0742 2.4718 41.5929 2.4718 42.2329C2.4718 42.8729 2.99052 43.3916 3.63051 43.3916H18.4614C19.1013 43.3916 19.6201 42.8729 19.6201 42.2329C19.6201 41.5929 19.1013 41.0742 18.4614 41.0742Z" fill="#1565C0"/>
<path d="M40.2911 25.3466C39.8388 24.8942 39.105 24.8942 38.6526 25.3467L28.3487 35.6505L22.9884 30.2903C22.5359 29.8378 21.8023 29.8378 21.3499 30.2903C20.8974 30.7428 20.8974 31.4763 21.3499 31.9288L27.5295 38.1084C27.7557 38.3347 28.0522 38.4478 28.3487 38.4478C28.6451 38.4478 28.9418 38.3347 29.1679 38.1084L40.291 26.9853C40.7435 26.5326 40.7435 25.7991 40.2911 25.3466Z" fill="#1565C0"/>
</svg>
