<svg width="74" height="74" viewBox="0 0 74 74" fill="none" xmlns="http://www.w3.org/2000/svg">
<path d="M45.1381 12.5688C38.1254 9.0252 29.6779 10.3801 24.118 15.9401C17.6561 22.4019 17.0093 32.7054 22.6137 39.9068C22.8118 40.1614 23.1079 40.2946 23.4072 40.2946C23.6229 40.2946 23.8402 40.2255 24.0236 40.0827C24.4615 39.7419 24.5402 39.1107 24.1995 38.6727C19.2164 32.2697 19.7923 23.1076 25.539 17.3609C30.4837 12.416 37.9957 11.2109 44.2321 14.3621C44.7272 14.6126 45.3316 14.4136 45.5819 13.9184C45.832 13.4232 45.6335 12.8189 45.1381 12.5688Z" fill="#1565C0"/>
<path d="M53.161 20.5932C52.9107 20.098 52.3066 19.8993 51.811 20.1493C51.3158 20.3995 51.117 21.0036 51.3671 21.4991C54.5161 27.7345 53.3104 35.2455 48.3668 40.1889C42.62 45.9355 33.458 46.5113 27.055 41.5284C26.6169 41.1877 25.9859 41.2664 25.6451 41.7042C25.3043 42.1421 25.3831 42.7733 25.821 43.1141C29.1013 45.667 33.0251 46.9227 36.9363 46.9227C41.6117 46.9227 46.2693 45.1282 49.7878 41.6097C55.3465 36.0511 56.702 27.6053 53.161 20.5932Z" fill="#1565C0"/>
<path d="M50.5651 16.7666C50.3162 16.4849 50.0547 16.2068 49.7878 15.9401C49.521 15.6732 49.243 15.4117 48.9613 15.1628C48.5455 14.7952 47.9105 14.8346 47.5433 15.2503C47.1756 15.666 47.2147 16.3009 47.6304 16.6684C47.8813 16.89 48.1291 17.1231 48.367 17.3608C48.6045 17.5986 48.8376 17.8463 49.0594 18.0972C49.2579 18.3219 49.5346 18.4365 49.8126 18.4365C50.0491 18.4365 50.2864 18.3535 50.4776 18.1846C50.8935 17.8173 50.9326 17.1824 50.5651 16.7666Z" fill="#1565C0"/>
<path d="M60.6669 30.5761C61.3368 29.4769 61.3368 28.1117 60.6666 27.0128L59.3448 24.8453C59.1708 24.5597 59.1034 24.2205 59.1554 23.8903L59.5494 21.387C59.7503 20.1113 59.2262 18.8471 58.1819 18.0874L56.1335 16.5974C55.8627 16.4003 55.6701 16.1128 55.5913 15.7873L54.9948 13.3219C54.6919 12.0696 53.7258 11.1036 52.4736 10.8005L50.0081 10.2039C49.6826 10.125 49.3949 9.93252 49.198 9.66169L47.7078 7.61273C46.9482 6.56851 45.6838 6.04416 44.4085 6.24514L41.9044 6.63911C41.5742 6.69104 41.2349 6.6238 40.9495 6.44972L38.7816 5.12758C37.6826 4.45741 36.3174 4.45754 35.2184 5.12758L33.0507 6.44935C32.7653 6.62355 32.4263 6.69054 32.0957 6.63874L29.5923 6.24476C28.317 6.04404 27.0525 6.56814 26.2929 7.61236L24.803 9.66082C24.6058 9.93165 24.3182 10.1242 23.9926 10.203L21.5272 10.7996C20.2752 11.1024 19.3089 12.0685 19.0058 13.3207L18.4091 15.7862C18.3303 16.1117 18.1379 16.3994 17.867 16.5963L15.818 18.0865C14.7738 18.846 14.2498 20.1101 14.4504 21.3858L14.8444 23.89C14.8963 24.2204 14.8291 24.5595 14.655 24.8449L13.333 27.013C12.6631 28.112 12.6631 29.4772 13.3331 30.5761L14.6549 32.7437C14.829 33.0293 14.8963 33.3685 14.8443 33.6988L14.4503 36.2021C14.2494 37.4777 14.7735 38.742 15.8178 39.5016L17.8662 40.9916C18.1371 41.1885 18.3296 41.4762 18.4084 41.8017L19.005 44.2671C19.3078 45.5194 20.2739 46.4854 21.5261 46.7885L22.5556 47.0376L15.5883 62.5794C15.4402 62.9097 15.4812 63.294 15.6957 63.5856C15.9102 63.8772 16.2647 64.031 16.6243 63.9879L22.2304 63.3177L25.4599 67.9487C25.6489 68.2195 25.9574 68.3786 26.2837 68.3786C26.315 68.3786 26.3466 68.3771 26.378 68.3743C26.7384 68.3404 27.0528 68.1151 27.2008 67.785L34.3165 51.9114L35.2181 52.4612C35.7676 52.7963 36.3836 52.9638 36.9997 52.9638C37.6159 52.9638 38.2318 52.7962 38.7814 52.4612L39.7155 51.8916L46.8401 67.785C46.9882 68.1154 47.3025 68.3404 47.6629 68.3743C47.6944 68.3772 47.7259 68.3787 47.7572 68.3787C48.0836 68.3787 48.3921 68.2196 48.581 67.9488L51.8106 63.3178L57.4167 63.9881C57.776 64.0308 58.1308 63.8774 58.3452 63.5857C58.5596 63.2941 58.6008 62.9099 58.4527 62.5795L51.4817 47.0292L52.4725 46.7895C53.7245 46.4866 54.6908 45.5205 54.9939 44.2683L55.5906 41.8028C55.6694 41.4774 55.8619 41.1896 56.1327 40.9927L58.1817 39.5025C59.2259 38.743 59.7499 37.4789 59.5493 36.2032L59.1553 33.699C59.1034 33.3687 59.1706 33.0295 59.3447 32.7441L60.6669 30.5761ZM26.0931 65.344L23.5337 61.6739C23.3215 61.3696 22.9587 61.2067 22.5904 61.251L18.1476 61.7822L24.4955 47.6215C24.6116 47.7068 24.7157 47.809 24.8015 47.9272L26.2917 49.9762C26.4333 50.1708 26.5924 50.3472 26.7659 50.5044L23.4246 57.9577C23.1978 58.4641 23.4241 59.0585 23.9304 59.2855C24.0639 59.3454 24.2035 59.3736 24.3407 59.3736C24.7245 59.3736 25.0911 59.1525 25.2581 58.7797L28.5875 51.3529C28.9151 51.3978 29.2524 51.3971 29.591 51.3438L32.095 50.9498C32.245 50.9263 32.3965 50.9284 32.5441 50.9528L26.0931 65.344ZM55.8935 61.782L51.4507 61.251C51.082 61.2068 50.7195 61.3696 50.5073 61.6739L47.948 65.344L41.4943 50.9472C41.6296 50.9287 41.7677 50.9287 41.9043 50.9502L44.4075 51.3441C44.7598 51.3995 45.1108 51.3978 45.4509 51.3471L48.7827 58.7799C48.95 59.1529 49.3163 59.3739 49.7001 59.3739C49.8374 59.3739 49.977 59.3456 50.1104 59.2857C50.6167 59.0588 50.8432 58.4643 50.6162 57.958L47.2622 50.4762C47.424 50.3261 47.5735 50.1598 47.7069 49.9765L49.1969 47.9281C49.2908 47.799 49.4058 47.6883 49.5351 47.5987L55.8935 61.782ZM58.9511 29.5299L57.6291 31.6979C57.2076 32.3894 57.0445 33.211 57.1704 34.0112L57.5643 36.5153C57.6471 37.0419 57.4307 37.5637 56.9998 37.8773L54.9507 39.3676C54.2948 39.8448 53.8284 40.5417 53.6376 41.33L53.0409 43.7955C52.9158 44.3124 52.5171 44.7112 52.0001 44.8364L49.5346 45.433C48.7461 45.6237 48.0491 46.0902 47.5719 46.7461L46.0819 48.7946C45.7684 49.2258 45.2466 49.442 44.7198 49.3591L42.2165 48.9651C41.4162 48.8392 40.5945 49.0021 39.9028 49.4238L37.7353 50.7456C37.2816 51.022 36.7178 51.022 36.2644 50.7456L34.0964 49.4237C33.5573 49.0948 32.9392 48.9235 32.3137 48.9235C32.1369 48.9235 31.9592 48.9372 31.783 48.9649L29.2788 49.3589C28.7521 49.4419 28.2303 49.2253 27.9168 48.7944L26.4264 46.7454C25.9493 46.0896 25.2523 45.6231 24.464 45.4323L21.9985 44.8356C21.4816 44.7105 21.0828 44.3118 20.9577 43.7948L20.3611 41.3294C20.1703 40.541 19.704 39.8438 19.0479 39.3666L16.9996 37.8765C16.5685 37.563 16.3522 37.041 16.4351 36.5144L16.8291 34.0111C16.955 33.2108 16.7921 32.3892 16.3704 31.6975L15.0486 29.5297C14.7721 29.0761 14.7721 28.5124 15.0486 28.0589L16.3706 25.8909C16.7923 25.1993 16.9553 24.3777 16.8294 23.5776L16.4354 21.0735C16.3526 20.5469 16.569 20.0251 17 19.7115L19.049 18.2211C19.7049 17.744 20.1713 17.0471 20.3621 16.2587L20.9588 13.7932C21.0839 13.2764 21.4826 12.8775 21.9996 12.7524L24.4651 12.1558C25.2536 11.9651 25.9506 11.4986 26.4277 10.8426L27.9177 8.79417C28.2312 8.36308 28.753 8.14654 29.2798 8.2296L31.7831 8.62358C32.5835 8.74971 33.4052 8.58659 34.0968 8.16485L36.2643 6.84308C36.7179 6.56664 37.2818 6.56664 37.7351 6.84308L39.9031 8.16497C40.5947 8.58684 41.4166 8.74984 42.2166 8.62383L44.7208 8.22985C45.2473 8.14729 45.7692 8.36346 46.0828 8.79442L47.5732 10.8434C48.0503 11.4992 48.7472 11.9657 49.5356 12.1564L52.0011 12.7531C52.5179 12.8783 52.9168 13.277 53.0419 13.794L53.6385 16.2593C53.8293 17.0478 54.2956 17.745 54.9517 18.2221L57.0001 19.7121C57.4312 20.0257 57.6475 20.5477 57.5646 21.0743L57.1706 23.5776C57.0447 24.3779 57.2076 25.1995 57.6293 25.8912L58.9511 28.0589C59.2278 28.5125 59.2278 29.0762 58.9511 29.5299Z" fill="#1565C0"/>
<path d="M48.7566 25.6684C48.5352 24.9867 47.9556 24.5108 47.2438 24.4264L41.1983 23.7095L38.6484 18.1815C38.3482 17.5308 37.7165 17.1265 36.9997 17.1265C36.2831 17.1265 35.6513 17.5308 35.3511 18.1815L32.8012 23.7097L26.7557 24.4265C26.0439 24.511 25.4641 24.9869 25.2429 25.6685C25.0215 26.3497 25.2108 27.0756 25.7367 27.562L30.2063 31.6955L29.0199 37.6667C28.8803 38.3697 29.1538 39.068 29.7337 39.4891C30.0536 39.7215 30.4247 39.8391 30.7983 39.8391C31.102 39.8391 31.4071 39.7614 31.6874 39.6046L36.9996 36.6312L42.3118 39.6046C42.9373 39.9547 43.6858 39.9105 44.2657 39.4892C44.8456 39.068 45.119 38.3696 44.9793 37.6667L43.7929 31.6956L48.2625 27.5622C48.7887 27.0757 48.978 26.35 48.7566 25.6684ZM42.0159 30.6022C41.7594 30.8394 41.6446 31.1929 41.7125 31.5356L42.9266 37.6459L37.4903 34.603C37.3379 34.5177 37.1688 34.475 36.9996 34.475C36.8304 34.475 36.6614 34.5176 36.5089 34.603L31.0726 37.6459L32.2867 31.5356C32.3549 31.1928 32.24 30.8394 31.9834 30.6022L27.4095 26.3723L33.5964 25.6387C33.9433 25.5976 34.244 25.3791 34.3904 25.062L36.9997 19.4049L39.609 25.062C39.7555 25.3791 40.0561 25.5976 40.4031 25.6387L46.5897 26.3723L42.0159 30.6022Z" fill="#1565C0"/>
</svg>
