<svg width="35" height="35" viewBox="0 0 35 35" fill="none" xmlns="http://www.w3.org/2000/svg">
<path d="M17.5 0C7.8505 0 0 7.85061 0 17.5001C0 27.1496 7.8505 35 17.5 35C27.1495 35 35 27.1496 35 17.5001C35 7.85061 27.1495 0 17.5 0ZM17.5 31.8182C9.60485 31.8182 3.18182 25.3952 3.18182 17.5001C3.18182 9.60506 9.60485 3.18182 17.5 3.18182C25.3952 3.18182 31.8182 9.60506 31.8182 17.5001C31.8182 25.3952 25.395 31.8182 17.5 31.8182Z" fill="#DFDFE1"/>
<path d="M17.4997 7.42432C16.3303 7.42432 15.3789 8.37632 15.3789 9.54648C15.3789 10.7156 16.3303 11.6667 17.4997 11.6667C18.6691 11.6667 19.6205 10.7156 19.6205 9.54648C19.6205 8.37632 18.6691 7.42432 17.4997 7.42432Z" fill="#DFDFE1"/>
<path d="M17.5011 14.8481C16.6225 14.8481 15.9102 15.5604 15.9102 16.4391V25.9845C15.9102 26.8631 16.6225 27.5754 17.5011 27.5754C18.3797 27.5754 19.092 26.8631 19.092 25.9845V16.4391C19.092 15.5604 18.3797 14.8481 17.5011 14.8481Z" fill="#DFDFE1"/>
</svg>
