<svg width="5" height="8" viewBox="0 0 5 8" fill="none" xmlns="http://www.w3.org/2000/svg">
<path d="M0.122181 3.68784L3.53084 0.127804C3.60968 0.045398 3.71492 0 3.82714 0C3.93935 0 4.04459 0.045398 4.12343 0.127804L4.37446 0.389915C4.5378 0.560711 4.5378 0.838302 4.37446 1.00884L1.51212 3.99834L4.37763 6.99116C4.45647 7.07357 4.5 7.18342 4.5 7.30056C4.5 7.41783 4.45647 7.52768 4.37763 7.61015L4.12661 7.8722C4.04771 7.9546 3.94253 8 3.83031 8C3.7181 8 3.61285 7.9546 3.53402 7.8722L0.122181 4.30891C0.0431561 4.22624 -0.000247955 4.11587 9.53674e-07 3.99854C-0.000247955 3.88075 0.0431561 3.77044 0.122181 3.68784Z" fill="#5D5D62"/>
</svg>
