<svg width="236" height="38" viewBox="0 0 236 38" fill="none" xmlns="http://www.w3.org/2000/svg">
<rect width="48" height="37.7483" rx="5.01286" fill="#EA1F1F"/>
<path d="M54.782 22.8609H59.221C59.474 23.9419 60.463 24.4939 61.912 24.4939C63.683 24.4939 64.971 23.4589 65.247 21.5499H60.141V17.8929H65.247C64.902 16.0529 63.775 15.0179 61.958 15.0179C60.67 15.0179 59.658 15.5469 59.382 16.4439H54.943C55.495 13.4309 58.025 11.2459 61.889 11.2459C66.972 11.2459 69.847 14.6499 69.847 19.7559C69.847 24.8619 66.903 28.2659 61.843 28.2659C57.841 28.2659 55.081 26.0349 54.782 22.8609ZM70.8211 27.9669V23.8269H71.4651C73.1441 23.8269 73.7421 23.5049 73.7421 18.8359V11.5449H86.4611V27.9669H82.1831V15.3169H77.6981V18.9509C77.6981 26.7709 75.6741 27.9669 71.4881 27.9669H70.8211ZM99.9438 21.4349H93.5958V24.1949H102.129V27.9669H89.3178V11.5449H101.922V15.3169H93.5958V17.7549H99.9438V21.4349ZM104.148 27.9669V11.5449H108.426V17.5939H111.738L114.567 11.5449H118.868L115.188 19.5259L119.075 27.9669H114.774L111.761 21.4349H108.426V27.9669H104.148ZM133.246 11.5449V15.3169H128.324V27.9669H124.046V15.3169H119.147V11.5449H133.246ZM134.663 11.5449H142.529C146.416 11.5449 148.67 13.5229 148.67 16.9499C148.67 20.4229 146.416 22.4469 142.529 22.4469H138.941V27.9669H134.663V11.5449ZM138.941 18.7899H141.977C143.656 18.7899 144.3 18.1919 144.3 17.0189C144.3 15.8459 143.656 15.2709 141.977 15.2709H138.941V18.7899ZM158.317 11.2459C163.63 11.2459 166.528 14.8799 166.528 19.7559C166.528 24.6319 163.63 28.2659 158.317 28.2659C153.004 28.2659 150.106 24.6319 150.106 19.7559C150.106 14.8799 153.004 11.2459 158.317 11.2459ZM158.317 24.4939C160.87 24.4939 162.158 22.5159 162.158 19.7559C162.158 16.9959 160.87 15.0179 158.317 15.0179C155.764 15.0179 154.476 16.9729 154.476 19.7559C154.476 22.5159 155.764 24.4939 158.317 24.4939ZM179.032 11.5449H183.31V27.9669H179.032V21.4579H172.937V27.9669H168.659V11.5449H172.937V17.6169H179.032V11.5449ZM186.162 11.5449H190.072V21.9179H190.716L195.569 11.5449H201.066V27.9669H197.156V17.5939H196.512L191.659 27.9669H186.162V11.5449ZM203.913 27.9669V11.5449H208.191V17.5939H211.503L214.332 11.5449H218.633L214.953 19.5259L218.84 27.9669H214.539L211.526 21.4349H208.191V27.9669H203.913ZM230.095 22.3779H234.488C234.051 25.8509 231.452 28.2659 227.404 28.2659C222.344 28.2659 219.4 24.8619 219.4 19.7559C219.4 14.6499 222.344 11.2459 227.404 11.2459C231.291 11.2459 233.798 13.4999 234.35 16.6279H229.911C229.635 15.5469 228.692 15.0179 227.404 15.0179C225.012 15.0179 223.77 16.9729 223.77 19.7559C223.77 22.5159 225.012 24.4939 227.404 24.4939C228.876 24.4939 229.888 23.7579 230.095 22.3779Z" fill="#151528"/>
<path d="M21.444 11.0482V14.8202H16.522V27.4702H12.244V14.8202H7.345V11.0482H21.444ZM34.2223 11.0482H40.6163V27.4702H36.6833V16.3612H36.0393L34.1763 22.2722H29.9903L28.1273 16.3612H27.4833V27.4702H23.5503V11.0482H29.9443L31.7613 17.0052H32.4053L34.2223 11.0482Z" fill="white"/>
</svg>
