<svg width="1920" height="490" viewBox="0 0 1920 490" fill="none" xmlns="http://www.w3.org/2000/svg">
<mask id="mask0_948_8535" style="mask-type:alpha" maskUnits="userSpaceOnUse" x="0" y="0" width="1920" height="490">
<rect width="1920" height="490" fill="#D9D9D9"/>
</mask>
<g mask="url(#mask0_948_8535)">
<rect width="1920" height="490" fill="#D8EAFB"/>
<path d="M1262.11 492C1295.67 466.209 1325.27 436.081 1347.34 399.896C1392.16 326.372 1397.42 222.823 1339.88 158.871C1275.95 87.8369 1166.18 89.7616 1071.32 99.2055C976.488 108.675 868.502 116.066 798.7 50.8568C741.795 -2.31644 729.664 -87.1062 723.84 -164.967C718.017 -242.828 713.062 -326.54 664.74 -387.694C599.688 -469.995 468.767 -479.926 380.626 -423.314C292.511 -366.702 246.513 -258.123 245.465 -153.034C245.031 -108.073 247.713 -53.9756 210.756 -28.6208C181.282 -8.39853 140.826 -18.33 109.155 -34.8825C77.5106 -51.4093 47.6536 -74.1978 12.2799 -78.9968C-34.7914 -85.3612 -81.6839 -56.6958 -107.812 -16.8416C-133.94 23.0127 -142.343 72.1313 -143.773 119.813C-147.859 255.184 -96.5485 390.324 -7.89713 492H1262.11Z" fill="#C9DCF2"/>
<g style="mix-blend-mode:multiply">
<path d="M1308.21 246.334V242.925L1305 242.748C1304.83 242.107 1304.57 241.494 1304.25 240.935L1306.39 238.535L1303.97 236.122L1301.57 238.262C1301.01 237.935 1300.4 237.676 1299.76 237.512L1299.58 234.295H1296.17L1296 237.499C1295.36 237.662 1294.74 237.921 1294.18 238.249L1291.8 236.108L1289.38 238.521L1291.52 240.921C1291.2 241.48 1290.94 242.094 1290.77 242.734L1287.56 242.912V246.32L1290.77 246.498C1290.94 247.138 1291.2 247.752 1291.52 248.311L1289.38 250.711L1291.8 253.124L1294.2 250.983C1294.76 251.311 1295.37 251.57 1296.01 251.733L1296.19 254.951H1299.6L1299.77 251.733C1300.41 251.57 1301.03 251.311 1301.59 250.983L1303.99 253.138L1306.4 250.724L1304.26 248.325C1304.59 247.766 1304.85 247.152 1305.01 246.511L1308.23 246.334H1308.21ZM1301.34 244.63C1301.34 246.538 1299.79 248.093 1297.88 248.093C1295.97 248.093 1294.43 246.538 1294.43 244.63C1294.43 242.721 1295.98 241.166 1297.88 241.166C1299.77 241.166 1301.34 242.721 1301.34 244.63Z" fill="#F8E8E3"/>
</g>
<path d="M1510.81 273.562L1512.08 271.285L1510 269.976C1510.13 269.485 1510.18 268.981 1510.18 268.49L1512.5 267.685L1511.78 265.177L1509.39 265.722C1509.13 265.299 1508.82 264.904 1508.46 264.549L1509.54 262.341L1507.26 261.073L1505.96 263.145C1505.46 263.022 1504.96 262.968 1504.47 262.968L1503.66 260.65L1501.16 261.373L1501.7 263.759C1501.28 264.018 1500.88 264.331 1500.53 264.686L1498.32 263.609L1497.05 265.886L1499.12 267.195C1499 267.685 1498.95 268.19 1498.95 268.681L1496.63 269.485L1497.35 271.994L1499.74 271.449C1500 271.871 1500.31 272.267 1500.67 272.621L1499.59 274.83L1501.86 276.098L1503.17 274.012C1503.66 274.135 1504.17 274.189 1504.66 274.189L1505.46 276.507L1507.97 275.784L1507.43 273.398C1507.85 273.139 1508.25 272.826 1508.6 272.471L1510.81 273.548V273.562ZM1506.86 269.881C1506.15 271.149 1504.54 271.612 1503.27 270.903C1502 270.194 1501.54 268.585 1502.25 267.317C1502.96 266.036 1504.56 265.586 1505.83 266.281C1507.1 266.99 1507.56 268.599 1506.86 269.867V269.881Z" fill="white"/>
<path d="M1658.17 345.048L1653.56 333.881L1642.82 337.644C1641.39 335.763 1639.75 334.113 1637.91 332.709L1641.7 321.978L1630.55 317.329L1625.61 327.582C1623.33 327.269 1620.99 327.269 1618.66 327.582L1613.76 317.315L1602.6 321.924L1606.36 332.668C1604.48 334.099 1602.83 335.749 1601.42 337.576L1590.71 333.786L1586.06 344.939L1596.31 349.875C1596 352.152 1596 354.483 1596.31 356.828L1586.03 361.737L1590.64 372.903L1601.38 369.14C1602.81 371.022 1604.45 372.672 1606.29 374.076L1602.5 384.806L1613.65 389.456L1618.59 379.203C1620.87 379.516 1623.2 379.516 1625.54 379.203L1630.45 389.483L1641.62 384.874L1637.86 374.13C1639.74 372.713 1641.39 371.063 1642.78 369.236L1653.51 373.04L1658.16 361.887L1647.9 356.951C1648.22 354.674 1648.23 352.329 1647.9 349.997L1658.17 345.089V345.048ZM1633.41 348.729C1635.99 354.974 1633 362.132 1626.76 364.709C1620.53 367.272 1613.37 364.3 1610.79 358.042C1608.21 351.783 1611.2 344.639 1617.42 342.062C1623.66 339.485 1630.82 342.471 1633.4 348.716L1633.41 348.729Z" fill="white"/>
<path d="M1869 462.192L1861.65 444.398L1844.53 450.395C1842.24 447.396 1839.64 444.767 1836.7 442.53L1842.74 425.431L1824.96 418.022L1817.1 434.36C1813.47 433.861 1809.73 433.861 1806.01 434.36L1798.21 418L1780.41 425.344L1786.41 442.464C1783.41 444.746 1780.78 447.375 1778.54 450.286L1761.45 444.246L1754.04 462.019L1770.39 469.884C1769.89 473.512 1769.89 477.227 1770.39 480.964L1754 488.786L1761.35 506.58L1778.47 500.584C1780.76 503.582 1783.36 506.211 1786.3 508.449L1780.26 525.548L1798.04 532.957L1805.9 516.618C1809.53 517.118 1813.25 517.118 1816.99 516.618L1824.81 533L1842.61 525.656L1836.61 508.536C1839.61 506.276 1842.24 503.647 1844.46 500.736L1861.57 506.797L1868.98 489.025L1852.63 481.16C1853.13 477.531 1853.16 473.794 1852.63 470.079L1869 462.258V462.192ZM1829.53 468.059C1833.64 478.009 1828.88 489.416 1818.92 493.522C1808.99 497.607 1797.58 492.871 1793.47 482.898C1789.36 472.925 1794.12 461.541 1804.03 457.434C1813.99 453.328 1825.4 458.086 1829.51 468.037L1829.53 468.059Z" fill="white"/>
<g style="mix-blend-mode:multiply">
<path d="M1598.41 28.8764L1602.05 21.0501L1594.88 17.2324C1595.18 15.569 1595.25 13.9056 1595.1 12.2695L1602.57 9.06535L1599.61 0.966429L1591.84 3.33884C1590.9 1.98902 1589.77 0.761909 1588.47 -0.31522L1591.48 -7.85513L1583.66 -11.4956L1579.84 -4.32378C1578.18 -4.62374 1576.51 -4.69191 1574.88 -4.54193L1571.67 -12L1563.57 -9.04133L1565.95 -1.26964C1564.6 -0.328855 1563.37 0.802814 1562.29 2.0981L1554.74 -0.928775L1551.1 6.89746L1558.27 10.7151C1557.97 12.3785 1557.9 14.042 1558.05 15.6781L1550.58 18.8822L1553.54 26.9812L1561.31 24.6087C1562.25 25.9586 1563.38 27.1857 1564.68 28.2628L1561.65 35.8163L1569.48 39.4568L1573.3 32.2714C1574.96 32.5713 1576.62 32.6395 1578.26 32.4895L1581.46 39.9612L1589.56 37.0025L1587.19 29.2309C1588.54 28.2901 1589.77 27.1584 1590.84 25.8631L1598.38 28.89L1598.41 28.8764ZM1584.49 17.6551C1582.46 22.0318 1577.25 23.9406 1572.87 21.8955C1568.51 19.8639 1566.62 14.6692 1568.65 10.2925C1570.68 5.91577 1575.89 4.00693 1580.25 6.03848C1584.63 8.07003 1586.54 13.2784 1584.49 17.6551Z" fill="#F8E8E3"/>
</g>
<path d="M1207.96 134.858L1204.1 125.477L1195.09 128.64C1193.89 127.059 1192.51 125.682 1190.97 124.509L1194.16 115.51L1184.79 111.611L1180.65 120.214C1178.74 119.955 1176.78 119.942 1174.81 120.214L1170.7 111.597L1161.31 115.456L1164.46 124.468C1162.88 125.668 1161.51 127.045 1160.32 128.586L1151.32 125.395L1147.42 134.762L1156.02 138.907C1155.77 140.816 1155.75 142.779 1156.02 144.743L1147.41 148.86L1151.27 158.241L1160.28 155.091C1161.48 156.673 1162.86 158.05 1164.4 159.223L1161.21 168.222L1170.57 172.121L1174.72 163.518C1176.63 163.777 1178.59 163.79 1180.55 163.518L1184.67 172.148L1194.05 168.29L1190.89 159.264C1192.47 158.064 1193.85 156.687 1195.02 155.146L1204.03 158.336L1207.93 148.97L1199.33 144.825C1199.59 142.916 1199.6 140.952 1199.33 138.989L1207.95 134.871L1207.96 134.858ZM1187.18 137.939C1189.35 143.188 1186.84 149.188 1181.59 151.356C1176.37 153.51 1170.35 151.015 1168.19 145.765C1166.02 140.516 1168.53 134.517 1173.75 132.363C1179 130.195 1185 132.704 1187.17 137.953L1187.18 137.939Z" fill="white"/>
<path d="M1242.26 403.24L1239.62 396.805L1233.43 398.973C1232.61 397.895 1231.66 396.941 1230.61 396.137L1232.79 389.96L1226.37 387.288L1223.53 393.191C1222.22 393.014 1220.87 393.001 1219.52 393.191L1216.7 387.274L1210.26 389.919L1212.43 396.109C1211.35 396.927 1210.4 397.882 1209.59 398.932L1203.42 396.75L1200.75 403.172L1206.65 406.008C1206.47 407.317 1206.47 408.667 1206.65 410.016L1200.73 412.839L1203.38 419.274L1209.57 417.106C1210.39 418.184 1211.34 419.138 1212.39 419.942L1210.21 426.119L1216.63 428.791L1219.47 422.887C1220.77 423.065 1222.12 423.065 1223.47 422.887L1226.3 428.805L1232.73 426.16L1230.56 419.97C1231.64 419.152 1232.6 418.197 1233.4 417.147L1239.58 419.329L1242.25 412.907L1236.35 410.071C1236.52 408.762 1236.54 407.412 1236.35 406.062L1242.26 403.24ZM1228 405.353C1229.49 408.953 1227.77 413.071 1224.17 414.557C1220.58 416.029 1216.47 414.325 1214.98 410.725C1213.49 407.126 1215.21 403.008 1218.8 401.522C1222.4 400.036 1226.51 401.754 1228 405.353Z" fill="white"/>
<path d="M1307.78 19.373C1309.73 19.373 1311.31 17.792 1311.31 15.8417C1311.31 13.8913 1309.73 12.3103 1307.78 12.3103C1305.83 12.3103 1304.24 13.8913 1304.24 15.8417C1304.24 17.792 1305.83 19.373 1307.78 19.373Z" stroke="#222628" stroke-width="0.5" stroke-miterlimit="10"/>
<path d="M963 118.075C963 118.075 971.876 98.2234 991.196 93.7649C1007.95 89.8927 1015.67 100.8 1015.67 100.8C1015.67 100.8 1024.12 67.941 1052.02 65.2278C1084.09 62.1191 1086.57 91.8424 1086.57 91.8424C1086.57 91.8424 1108.75 78.5351 1126.16 89.47C1142.34 99.6141 1130.75 118.089 1130.75 118.089H963V118.075Z" fill="white"/>
<path d="M1193 52.9825C1193 52.9825 1204.37 27.5549 1229.11 21.8441C1250.58 16.8843 1260.46 30.8556 1260.46 30.8556C1260.46 30.8556 1271.29 -11.2328 1307.02 -14.7081C1348.09 -18.6899 1351.27 19.3817 1351.27 19.3817C1351.27 19.3817 1379.68 2.33677 1401.98 16.3429C1422.69 29.3362 1407.85 53 1407.85 53H1193V52.9825Z" fill="white"/>
<path d="M1677.01 268.22H1812.68C1812.68 268.22 1813.25 252.445 1800.88 246.159C1788.52 239.874 1769.54 254.204 1769.54 254.204C1769.54 254.204 1767.52 230.507 1748.25 229.061C1728.99 227.616 1717.32 252.131 1717.32 252.131C1717.32 252.131 1711.58 244.005 1698.84 247.168C1681.59 251.449 1677 268.22 1677 268.22H1677.01Z" fill="white"/>
<path d="M1791.02 139H2004.99C2004.99 139 2005.9 114.062 1986.39 104.126C1966.89 94.1895 1936.95 116.843 1936.95 116.843C1936.95 116.843 1933.77 79.3819 1903.38 77.0972C1873 74.8125 1854.59 113.566 1854.59 113.566C1854.59 113.566 1845.54 100.72 1825.45 105.721C1798.25 112.489 1791 139 1791 139H1791.02Z" fill="white"/>
<path d="M1234.76 337.753H1370.43C1370.43 337.753 1371 321.978 1358.63 315.693C1346.27 309.407 1327.29 323.737 1327.29 323.737C1327.29 323.737 1325.27 300.04 1306 298.595C1286.74 297.15 1275.07 321.665 1275.07 321.665C1275.07 321.665 1269.33 313.538 1256.59 316.702C1239.34 320.983 1234.75 337.753 1234.75 337.753H1234.76Z" fill="white"/>
<path d="M864.014 316.22H999.677C999.677 316.22 1000.25 300.445 987.884 294.159C975.517 287.874 956.538 302.204 956.538 302.204C956.538 302.204 954.52 278.507 935.254 277.061C915.989 275.616 904.317 300.131 904.317 300.131C904.317 300.131 898.577 292.005 885.843 295.168C868.595 299.449 864 316.22 864 316.22H864.014Z" fill="white"/>
<path d="M1248.04 490.133C1248.04 490.133 1237.08 421.074 1216.97 417.229C1202.8 414.516 1215.66 448.357 1226.64 464.023C1226.64 464.023 1204.97 438.963 1190.6 441.567C1176.24 444.171 1197.45 468.4 1209.98 472.763C1209.98 472.763 1176.24 458.528 1172.33 469.627C1167.48 483.384 1207.06 490.12 1207.06 490.12H1248.04V490.133Z" fill="#617C59"/>
<path d="M1543.57 463.205C1543.57 463.205 1557.27 434.763 1597.18 423.515C1626.44 415.266 1619.43 432.854 1611.28 436.154C1601.01 440.313 1587.69 439.222 1587.69 439.222C1587.69 439.222 1589 450.593 1580.64 458.815C1574.55 464.814 1567.06 467.159 1567.06 467.159C1567.06 467.159 1616.5 464.118 1625.2 490.133H1543.57V463.205Z" fill="#617C59"/>
<path d="M1547.39 52.2186L1479.31 31.1942L1457.35 117.937L1449.78 115.728L1368.64 328.605L1454.27 349.984L1507.92 132.676C1526.49 115.728 1536.61 98.3443 1536.61 98.3443C1536.61 98.3443 1544.58 78.7787 1547.51 65.0624L1547.38 52.205L1547.39 52.2186Z" fill="#EAB49F"/>
<path d="M1497.11 83.2917L1538.9 86.414L1495.02 76.1472L1497.11 83.2917Z" fill="#222628"/>
<path d="M1430.7 68.9132C1436.1 54.7366 1446.03 38.2613 1462.54 36.8044C1512.73 32.3749 1568.03 116.893 1616.67 68.5702" stroke="#62374E" stroke-width="3.14" stroke-miterlimit="10"/>
<path d="M1429.85 53.247C1483.34 -6.21688 1563.78 132.132 1617.19 71.3034" stroke="#FFAD2D" stroke-width="3.14" stroke-miterlimit="10"/>
<path d="M1430.36 62.6428C1448.74 36.2797 1477.4 39.797 1504.18 51.1413C1539.49 66.0932 1571.32 102.169 1614.99 73.681" stroke="#FFAD2D" stroke-width="3.14" stroke-miterlimit="10"/>
<path d="M1429.68 50.1156C1483.38 -7.92939 1561.31 129.331 1616.22 74.4033" stroke="#33313B" stroke-width="3.14" stroke-miterlimit="10"/>
<path d="M1430.19 59.4876C1479.28 -5.95351 1559.56 119.723 1617.68 73.8878" stroke="#33313B" stroke-width="3.14" stroke-miterlimit="10"/>
<path d="M1597.59 80.0089L1594.57 76.3997L1598.18 73.3768L1601.2 76.9861L1597.59 80.0089Z" fill="#C5D1CA"/>
<path d="M1604.92 87.4224L1598.24 79.4425L1600.54 77.5198L1607.22 85.4996L1604.92 87.4224Z" fill="#C5D1CA"/>
<path d="M1615.38 81.5399L1605.46 70.9282L1610.1 66.59L1620.02 77.2017L1615.38 81.5399Z" fill="#33313B"/>
<path d="M1619.27 76.4044L1610.89 67.4432L1616.16 62.52L1624.53 71.4812L1619.27 76.4044Z" fill="#33313B"/>
<path d="M1425.59 47.5373C1457.97 41.0388 1485.8 47.0121 1506.51 74.0491C1517.99 89.0368 1526.69 106.999 1543.38 117.105C1560.55 127.499 1581.6 126.766 1600.52 122.42" stroke="#62374E" stroke-width="3.14" stroke-miterlimit="10"/>
<path d="M1425.63 55.7169C1455.47 50.3734 1482.15 55.7708 1503.2 78.6849C1516.08 92.7181 1526.05 109.659 1543.06 119.312C1561.21 129.618 1582.34 129.497 1602.44 126.331" stroke="#FFAD2D" stroke-width="3.14" stroke-miterlimit="10"/>
<path d="M1425.74 50.6879C1457.37 45.7137 1482.2 54.5952 1501.68 80.3477C1513.4 95.8522 1523.09 113.965 1541.7 122.247C1559.29 130.076 1580.04 127.465 1597.81 121.67" stroke="#FFAD2D" stroke-width="3.14" stroke-miterlimit="10"/>
<path d="M1425.51 57.4836C1455.11 52.1855 1481.58 57.2448 1503.66 78.5659C1517.47 91.906 1528.71 108.112 1546.47 116.656C1564.11 125.139 1584.3 124.71 1603.19 121.626" stroke="#33313B" stroke-width="3.14" stroke-miterlimit="10"/>
<path d="M1425.74 52.3309C1455.92 46.5907 1483.02 51.7006 1504.03 75.3073C1517.06 89.938 1526.85 107.949 1544.45 117.835C1562.32 127.865 1583.65 127.18 1603.18 123.519" stroke="#33313B" stroke-width="3.14" stroke-miterlimit="10"/>
<path d="M1424.82 46.3628C1457.33 39.7094 1485.58 45.5023 1506.2 72.9429C1517.75 88.3179 1526.44 106.799 1543.89 116.545C1560.64 125.908 1580.65 125.019 1598.66 120.087" stroke="#62374E" stroke-width="3.14" stroke-miterlimit="10"/>
<path d="M1426.45 54.095C1455.51 48.4126 1482.93 52.1949 1504.72 73.6024C1517.87 86.5348 1527.89 102.758 1543.85 112.664C1560.35 122.913 1579.64 124.254 1598.53 122.258" stroke="#FFAD2D" stroke-width="3.14" stroke-miterlimit="10"/>
<path d="M1425.64 49.3026C1457.5 43.3182 1484.61 49.8615 1505.58 75.5836C1517.56 90.2683 1527.17 107.564 1544.78 116.298C1561.7 124.687 1578.55 129.732 1599.22 118.631" stroke="#FFAD2D" stroke-width="3.14" stroke-miterlimit="10"/>
<path d="M1426.62 55.7991C1458.16 50.2785 1484.52 56.9797 1507.46 79.7958C1534.58 106.794 1572.01 141.263 1597.79 115.731" stroke="#33313B" stroke-width="3.14" stroke-miterlimit="10"/>
<path d="M1425.96 50.861C1459.05 44.607 1486.1 51.9408 1506.9 79.3073C1519.3 95.6018 1529.22 114.481 1548.57 123.627C1566.66 132.186 1581.22 136.069 1605.08 124.785" stroke="#33313B" stroke-width="3.14" stroke-miterlimit="10"/>
<path d="M1601.8 108.374L1610.22 131.642L1602.24 134.529L1593.82 111.261L1601.8 108.374Z" fill="#33313B"/>
<path d="M1613.17 111.494L1618.74 126.899L1609.69 130.178L1604.11 114.773L1613.17 111.494Z" fill="#33313B"/>
<path d="M1611.38 106.558L1612.88 110.678L1603.82 113.958L1602.33 109.837L1611.38 106.558Z" fill="#33313B"/>
<path d="M1589.11 132.627L1589.77 137.288L1585.11 137.952L1584.45 133.291L1589.11 132.627Z" fill="#C5D1CA"/>
<path d="M1586.43 119.882L1588.26 132.776L1585.3 133.198L1583.46 120.304L1586.43 119.882Z" fill="#C5D1CA"/>
<path d="M1347.9 123.99L1442.02 106.087L1424.13 12L1330 29.9034L1347.9 123.99ZM1363.85 37.4413L1396.3 31.2691L1423.61 49.858L1429.79 82.3151L1411.2 109.634L1378.75 115.806L1351.44 97.2173L1345.26 64.7602L1363.85 37.4413Z" fill="#C5D1CA"/>
<path d="M1370.79 37.1473C1380.96 44.2111 1385.39 63.719 1377.79 73.9539C1381.67 78.8408 1385.06 72.5702 1389.91 71.6482C1397.45 63.1063 1392.7 42.7181 1387.28 37.9921C1384.14 35.2487 1373.59 34.4069 1370.79 37.1399L1370.79 37.1473Z" fill="#292830"/>
<path d="M1411.08 41.2672C1410.05 53.6028 1395.38 67.1978 1382.71 65.7322C1380.42 71.539 1387.55 71.3418 1390.77 75.0806C1401.94 77.3394 1417.22 63.035 1418.6 55.981C1419.41 51.8849 1414.87 42.3305 1411.09 41.2658L1411.08 41.2672Z" fill="#1A191F"/>
<path d="M1427.07 77.631C1415.87 82.9088 1396.76 76.9899 1391.7 65.2894C1385.52 66.2093 1389.26 72.2813 1387.63 76.9436C1391.26 87.7443 1411.29 93.828 1418.08 91.5015C1422.03 90.1487 1428.04 81.4361 1427.07 77.6384L1427.07 77.631Z" fill="#292830"/>
<path d="M1404.26 109.935C1394.09 102.872 1389.66 83.3637 1397.26 73.1214C1393.37 68.2344 1389.98 74.5051 1385.14 75.4271C1377.6 83.969 1382.35 104.357 1387.77 109.083C1390.91 111.827 1401.46 112.668 1404.26 109.935Z" fill="#1A191F"/>
<path d="M1363.97 105.816C1365 93.48 1379.67 79.885 1392.34 81.3506C1394.63 75.5438 1387.5 75.741 1384.28 72.0022C1373.11 69.7433 1357.83 84.0478 1356.45 91.1017C1355.64 95.1979 1360.18 104.752 1363.96 105.817L1363.97 105.816Z" fill="#292830"/>
<path d="M1347.98 69.4518C1359.18 64.174 1378.29 70.0928 1383.35 81.7933C1389.53 80.8735 1385.79 74.8014 1387.42 70.1392C1383.79 59.3385 1363.76 53.2548 1356.97 55.5813C1353.02 56.9341 1347.01 65.6466 1347.98 69.4443L1347.98 69.4518Z" fill="#1A191F"/>
<path d="M1385.31 61.9118C1391.73 60.6908 1397.93 64.906 1399.15 71.3268C1400.37 77.7476 1396.16 83.9425 1389.74 85.1635C1383.32 86.3845 1377.12 82.1692 1375.9 75.7485C1374.68 69.3277 1378.89 63.1328 1385.31 61.9118Z" fill="#403D4A"/>
<path d="M1363.85 37.4414L1396.3 31.2692L1423.61 49.858L1429.79 82.3226L1411.2 109.634L1378.75 115.806L1351.44 97.2248L1345.26 64.7602L1363.85 37.4414Z" stroke="#33313B" stroke-width="2.28" stroke-miterlimit="10"/>
<path d="M1423.79 60.4564C1431.02 80.4916 1420.64 102.593 1400.61 109.82C1380.58 117.048 1358.48 106.666 1351.26 86.6305C1344.03 66.5953 1354.41 44.4942 1374.44 37.2664C1394.47 30.0387 1416.57 40.4212 1423.79 60.4564Z" stroke="#33313B" stroke-width="1.14" stroke-miterlimit="10"/>
<path d="M1395.74 42.4175C1412.92 46.9616 1423.17 64.5748 1418.63 81.7578C1414.08 98.9408 1396.47 109.187 1379.29 104.643C1362.11 100.098 1351.87 82.4852 1356.41 65.3022C1360.95 48.1192 1378.56 37.8734 1395.74 42.4175Z" stroke="#33313B" stroke-width="1.14" stroke-miterlimit="10"/>
<path d="M1402.11 52.1072C1413.94 60.1604 1417.01 76.2831 1408.96 88.1183C1400.91 99.9535 1384.79 103.02 1372.95 94.9664C1361.12 86.9132 1358.05 70.7905 1366.1 58.9552C1374.15 47.12 1390.27 44.054 1402.11 52.1072Z" stroke="#33313B" stroke-width="1.14" stroke-miterlimit="10"/>
<path d="M1403.32 61.4241C1410.01 70.1496 1408.36 82.6463 1399.64 89.3361C1390.91 96.0259 1378.42 94.3756 1371.73 85.6501C1365.04 76.9245 1366.69 64.4278 1375.41 57.738C1384.14 51.0482 1396.63 52.6985 1403.32 61.4241Z" stroke="#33313B" stroke-width="1.14" stroke-miterlimit="10"/>
<path d="M1383.47 87.3969C1391.13 89.6372 1399.14 85.2497 1401.38 77.6002C1403.62 69.9433 1399.23 61.9262 1391.59 59.6844C1383.93 57.444 1375.92 61.8316 1373.68 69.4811C1371.44 77.138 1375.82 85.1551 1383.47 87.3969Z" stroke="#33313B" stroke-width="1.14" stroke-miterlimit="10"/>
<path d="M1389.56 63.8911C1394.89 65.0165 1398.3 70.2494 1397.17 75.5791C1396.05 80.9088 1390.82 84.3171 1385.49 83.1917C1380.16 82.0664 1376.75 76.8335 1377.87 71.5037C1379 66.174 1384.23 62.7657 1389.56 63.8911Z" stroke="#33313B" stroke-width="1.14" stroke-miterlimit="10"/>
<path d="M1382.97 74.4044C1383.45 76.9217 1385.87 78.5743 1388.39 78.0956C1390.91 77.6169 1392.56 75.1882 1392.08 72.6709C1391.6 70.1535 1389.17 68.5009 1386.66 68.9796C1384.14 69.4583 1382.49 71.8871 1382.97 74.4044Z" stroke="#33313B" stroke-width="1.14" stroke-miterlimit="10"/>
<path d="M1390.14 69.707L1409.95 40.5636" stroke="#33313B" stroke-width="1.14" stroke-miterlimit="10"/>
<path d="M1391.36 76.1493L1420.5 95.982" stroke="#33313B" stroke-width="1.14" stroke-miterlimit="10"/>
<path d="M1384.91 77.3758L1365.1 106.519" stroke="#33313B" stroke-width="1.14" stroke-miterlimit="10"/>
<path d="M1383.69 70.9335L1354.56 51.1008" stroke="#33313B" stroke-width="1.14" stroke-miterlimit="10"/>
<path d="M1349.56 46.1543C1350.55 45.9674 1351.49 46.6127 1351.68 47.5958C1351.87 48.5789 1351.22 49.5274 1350.24 49.7143C1349.26 49.9012 1348.31 49.2559 1348.12 48.2728C1347.94 47.2897 1348.58 46.3412 1349.56 46.1543Z" fill="#33313B"/>
<path d="M1361.59 109.393C1362.57 109.206 1363.52 109.851 1363.71 110.834C1363.9 111.817 1363.25 112.766 1362.27 112.953C1361.29 113.14 1360.34 112.494 1360.15 111.511C1359.96 110.528 1360.61 109.58 1361.59 109.393Z" fill="#33313B"/>
<path d="M1412.78 34.13C1413.76 33.943 1414.71 34.5884 1414.9 35.5715C1415.09 36.5546 1414.44 37.503 1413.46 37.69C1412.48 37.8769 1411.53 37.2315 1411.34 36.2485C1411.15 35.2654 1411.8 34.3169 1412.78 34.13Z" fill="#33313B"/>
<path d="M1424.81 97.3685C1425.79 97.1815 1426.74 97.8269 1426.93 98.81C1427.11 99.793 1426.47 100.742 1425.49 100.928C1424.5 101.115 1423.56 100.47 1423.37 99.487C1423.18 98.5039 1423.83 97.5554 1424.81 97.3685Z" fill="#33313B"/>
<path d="M1542.62 76.161L1547.39 52.2188C1548.29 46.615 1544.46 41.3384 1538.84 40.4112C1534.19 39.6477 1529.77 42.1156 1527.87 46.1377L1528.36 43.0836C1529.26 37.4798 1525.42 32.2032 1519.81 31.2761C1514.68 30.4444 1509.83 33.5258 1508.33 38.3251L1508.85 35.0801C1509.75 29.4763 1505.91 24.1998 1500.3 23.2726C1494.67 22.3591 1489.46 26.1631 1488.46 31.7533C1488.18 33.3622 1487.21 38.1615 1487.21 38.1615C1488.11 32.5577 1484.28 27.2812 1478.66 26.3676C1473.03 25.4541 1467.74 29.2445 1466.82 34.8483L1462.45 63.2491C1461.55 68.8529 1465.86 75.2202 1470.91 75.8611C1477.72 76.72 1481.93 72.1797 1482.83 66.5759C1481.93 72.1797 1485.76 77.4563 1491.38 78.3835C1496.66 79.2424 1501.63 75.9701 1502.98 70.939C1502.71 76.1065 1506.39 80.7695 1511.65 81.6285C1516.63 82.4329 1521.33 79.5697 1522.98 75.043C1523.19 79.8696 1526.67 84.3145 1531.52 85.3507C1536.1 86.3324 1540.71 83.4555 1542.59 76.161H1542.62Z" fill="#EAB49F"/>
<g style="mix-blend-mode:multiply" opacity="0.7">
<path d="M1542.62 76.161L1547.39 52.2188C1548.29 46.615 1544.46 41.3384 1538.84 40.4112C1534.19 39.6477 1529.77 42.1156 1527.87 46.1377L1528.36 43.0836C1529.26 37.4798 1525.42 32.2032 1519.81 31.2761C1514.68 30.4444 1509.83 33.5258 1508.33 38.3251L1508.85 35.0801C1509.75 29.4763 1505.91 24.1998 1500.3 23.2726C1494.67 22.3591 1489.46 26.1631 1488.46 31.7533C1488.18 33.3622 1487.21 38.1615 1487.21 38.1615C1488.11 32.5577 1484.28 27.2812 1478.66 26.3676C1473.03 25.4541 1467.74 29.2445 1466.82 34.8483L1462.45 63.2491C1461.55 68.8529 1465.86 75.2202 1470.91 75.8611C1477.72 76.72 1481.93 72.1797 1482.83 66.5759C1481.93 72.1797 1485.76 77.4563 1491.38 78.3835C1496.66 79.2424 1501.63 75.9701 1502.98 70.939C1502.71 76.1065 1506.39 80.7695 1511.65 81.6285C1516.63 82.4329 1521.33 79.5697 1522.98 75.043C1523.19 79.8696 1526.67 84.3145 1531.52 85.3507C1536.1 86.3324 1540.71 83.4555 1542.59 76.161H1542.62Z" fill="#EAB49F"/>
</g>
<path d="M1527.74 46.9421L1523.13 74.2521" stroke="#222628" stroke-width="0.5" stroke-linecap="round" stroke-linejoin="round"/>
<path d="M1503.19 69.7937L1508.14 39.4841" stroke="#222628" stroke-width="0.46" stroke-linecap="round" stroke-linejoin="round"/>
<path d="M1483.36 61.0266L1490.17 57.3726C1509.36 75.1384 1521.58 67.4349 1526.37 62.6764C1527.77 61.2721 1527.8 59.0087 1526.46 57.5498L1502.07 31.167C1498.63 27.4447 1493.32 26.1222 1488.54 27.7992C1478.92 31.1942 1465.41 36.5117 1454.92 40.6703C1450.04 42.6064 1446.92 47.4057 1447.14 52.655L1449.78 115.728L1507.92 132.676C1511.78 92.2225 1494.07 70.0391 1483.36 61.0266Z" fill="#EAB49F"/>
<path d="M1508.25 114.842C1506.35 85.5413 1492.37 68.6209 1483.36 61.0264" stroke="#222628" stroke-width="0.5" stroke-linecap="round" stroke-linejoin="round"/>
<path d="M1513.78 45.1015C1513.78 45.1015 1511.91 48.2783 1512.17 50.1054C1512.43 51.9324 1520.19 60.0722 1522.89 62.8537" stroke="#222628" stroke-width="0.46" stroke-linecap="round" stroke-linejoin="round"/>
<path d="M1507.93 132.69L1473.76 122.723L1505.67 141.852L1507.93 132.69Z" fill="#222628"/>
<path d="M1489.89 54.6319C1489.89 54.6319 1488.67 48.8372 1490.85 43.6288" stroke="#222628" stroke-width="0.5" stroke-linecap="round" stroke-linejoin="round"/>
<path d="M1484.93 47.5829C1484.93 47.5829 1485.71 52.2323 1489.1 54.6456" stroke="#222628" stroke-width="0.5" stroke-linecap="round" stroke-linejoin="round"/>
<path d="M1320.39 490.133V425.71H1358.65V209.793H1316.37V150.796L1454.28 116.765V425.696H1485.49V490.119H1320.39V490.133Z" fill="#EA1F1F"/>
<path d="M1590.35 369.712L1575.59 394.95L1569.57 489.873H1487.68L1523.19 367.749L1552.48 371.58L1543.53 319.959L1567.72 314.206L1590.35 369.712Z" fill="#E4847F"/>
<g style="mix-blend-mode:multiply" opacity="0.5">
<path d="M1590.35 369.712L1575.59 394.95L1569.57 489.873H1487.68L1523.19 367.749L1552.48 371.58L1543.53 319.959L1567.72 314.206L1590.35 369.712Z" fill="#E4847F"/>
</g>
<path d="M1549.32 233.889C1549.32 233.889 1575.65 317.765 1583.89 388.54" stroke="#62374E" stroke-width="2.58" stroke-miterlimit="10"/>
<path d="M1532.94 238.682C1532.94 238.682 1575.82 317.222 1581 389.384" stroke="#FFAD2D" stroke-width="2.58" stroke-miterlimit="10"/>
<path d="M1542.78 235.803C1542.78 235.803 1573.77 320.47 1587.18 387.575" stroke="#FFAD2D" stroke-width="2.58" stroke-miterlimit="10"/>
<path d="M1529.64 239.647C1529.64 239.647 1579.43 320.571 1577.34 390.454" stroke="#33313B" stroke-width="2.58" stroke-miterlimit="10"/>
<path d="M1539.48 236.768C1539.48 236.768 1577.72 303.268 1587.18 387.575" stroke="#33313B" stroke-width="2.58" stroke-miterlimit="10"/>
<path d="M1539.51 190.78L1514.74 198.029L1522.49 224.528L1547.27 217.279L1539.51 190.78Z" fill="#C5D1CA"/>
<path d="M1521.29 220.431L1546.08 213.179" stroke="#33313B" stroke-width="1.03" stroke-miterlimit="10"/>
<path d="M1549.01 213.052L1518.75 221.906L1525.87 246.24L1556.13 237.386L1549.01 213.052Z" fill="#C5D1CA"/>
<path d="M1587.41 227.124C1587.41 227.124 1570.7 322.93 1596.28 384.111" stroke="#62374E" stroke-width="2.58" stroke-miterlimit="10"/>
<path d="M1570.28 228.308C1570.28 228.308 1590.98 316.531 1593.26 384.306" stroke="#FFAD2D" stroke-width="2.58" stroke-miterlimit="10"/>
<path d="M1580.56 227.608C1580.56 227.608 1562.83 321.319 1599.72 383.865" stroke="#FFAD2D" stroke-width="2.58" stroke-miterlimit="10"/>
<path d="M1566.83 228.557C1566.83 228.557 1590.99 316.544 1593.25 384.322" stroke="#33313B" stroke-width="2.58" stroke-miterlimit="10"/>
<path d="M1577.12 227.84C1577.12 227.84 1569.47 313.409 1599.73 383.862" stroke="#33313B" stroke-width="2.58" stroke-miterlimit="10"/>
<path d="M1584.76 183.331L1558.86 185.123L1562.2 212.408L1588.11 210.615L1584.76 183.331Z" fill="#C5D1CA"/>
<path d="M1561.69 208.191L1587.6 206.395" stroke="#33313B" stroke-width="1.03" stroke-miterlimit="10"/>
<path d="M1590.55 206.888L1558.91 209.077L1561.98 234.133L1593.62 231.944L1590.55 206.888Z" fill="#C5D1CA"/>
<path d="M1602.94 377.379L1572.89 386.17L1579.35 408.261L1609.4 399.47L1602.94 377.379Z" fill="#33313B"/>
<path d="M1586.44 406.187L1581.25 407.707L1585.2 421.228L1590.4 419.708L1586.44 406.187Z" fill="#33313B"/>
<path d="M1594.37 403.866L1589.18 405.386L1593.13 418.907L1598.33 417.387L1594.37 403.866Z" fill="#33313B"/>
<path d="M1607.51 400.021L1595.81 403.445L1599.77 416.967L1611.47 413.543L1607.51 400.021Z" fill="#33313B"/>
<path d="M1571.31 360.906L1565.58 362.58L1567.52 369.192L1573.24 367.518L1571.31 360.906Z" fill="#C5D1CA"/>
<path d="M1594.38 355.464L1571.61 362.125L1572.84 366.325L1595.61 359.664L1594.38 355.464Z" fill="#C5D1CA"/>
<path d="M1617.7 348.128C1616.6 344.474 1613.5 341.966 1609.95 341.406C1613.83 339.252 1615.84 334.644 1614.5 330.24C1612.96 325.154 1607.56 322.277 1602.45 323.804L1600.51 324.336C1603.67 322.195 1605.28 318.323 1603.91 313.592C1602.49 308.697 1596.13 306.379 1591.24 307.852L1570.23 314.151C1565.33 315.624 1561.05 321.295 1562.43 326.19C1563.66 330.553 1567.17 332.258 1570.86 332.408L1565.35 333.907C1560.23 335.435 1557.13 342.565 1558.56 347.692C1559.7 351.81 1565.28 354.496 1570.17 353.637C1567 355.859 1564.65 359.009 1565.7 363.358C1566.76 367.735 1570.12 369.344 1573.81 369.671C1570.68 371.839 1568.29 374.988 1569.03 379.242C1570.38 387.028 1580.81 385.323 1585.92 383.783L1608.69 377.688C1613.8 376.161 1615.48 370.38 1614.25 366.494C1613.42 363.876 1611.64 361.845 1609.36 360.699L1611.23 360.14C1616.34 358.613 1619.24 353.241 1617.7 348.156V348.128Z" fill="#E4847F"/>
<path d="M1557.55 376.829C1557.55 376.829 1571.54 350.078 1557.26 322.659L1566.75 306.475C1566.75 306.475 1582.14 299.535 1584.99 296.29C1593.11 287.046 1587.9 273.793 1580.93 276.929C1580.93 276.929 1574.67 279.356 1568.85 281.428C1562.51 283.691 1556.44 285.696 1552.99 287.495C1548.32 289.936 1534.83 301.744 1527.96 307.879C1525.32 310.238 1523.75 313.565 1523.58 317.11L1520.99 375.22L1557.53 376.829H1557.55Z" fill="#E4847F"/>
<g style="mix-blend-mode:multiply" opacity="0.5">
<path d="M1557.55 376.829C1557.55 376.829 1571.54 350.078 1557.26 322.659L1566.75 306.475C1566.75 306.475 1582.14 299.535 1584.99 296.29C1593.11 287.046 1587.9 273.793 1580.93 276.929C1580.93 276.929 1574.67 279.356 1568.85 281.428C1562.51 283.691 1556.44 285.696 1552.99 287.495C1548.32 289.936 1534.83 301.744 1527.96 307.879C1525.32 310.238 1523.75 313.565 1523.58 317.11L1520.99 375.22L1557.53 376.829H1557.55Z" fill="#E4847F"/>
</g>
<path d="M1557.55 376.829C1557.55 376.829 1571.54 350.078 1557.26 322.659" stroke="#222628" stroke-width="0.5" stroke-miterlimit="10" stroke-linecap="round"/>
<path d="M1571.56 332.203L1599.83 324.513" stroke="#222628" stroke-width="0.5" stroke-miterlimit="10" stroke-linecap="round"/>
<path d="M1571.56 353.119L1608.88 341.625" stroke="#222628" stroke-width="0.5" stroke-miterlimit="10" stroke-linecap="round"/>
<path d="M1608.45 360.863L1575.37 369.275" stroke="#222628" stroke-width="0.5" stroke-miterlimit="10" stroke-linecap="round"/>
<path d="M1575.57 394.95L1548.84 389.959L1575 404.112L1575.57 394.95Z" fill="#222628"/>
<path d="M1568.78 282.737C1568.78 282.737 1570.39 284.741 1572.91 284.741C1575.61 284.741 1586.64 280.106 1586.64 280.106" stroke="#222628" stroke-width="0.5" stroke-miterlimit="10" stroke-linecap="round"/>
<path d="M1575.91 317.887C1575.91 317.887 1578.07 320.818 1578.72 326.177" stroke="#222628" stroke-width="0.5" stroke-miterlimit="10" stroke-linecap="round"/>
<path d="M1574.51 337.48C1574.51 337.48 1576.66 340.411 1577.32 345.77" stroke="#222628" stroke-width="0.5" stroke-miterlimit="10" stroke-linecap="round"/>
<path d="M1580.69 354.441C1580.69 354.441 1582.84 357.373 1583.49 362.731" stroke="#222628" stroke-width="0.5" stroke-miterlimit="10" stroke-linecap="round"/>
<path d="M1580.33 371.743C1580.33 371.743 1582.49 374.675 1583.14 380.033" stroke="#222628" stroke-width="0.5" stroke-miterlimit="10" stroke-linecap="round"/>
<path d="M1358.63 209.793H1377.37L1358.63 276.725V209.793Z" fill="#222628"/>
<path d="M1337.94 272.69V286.815H1294.77V272.69H1291.11V490.133H1294.77V471.522H1337.94V490.133H1341.59V272.69H1337.94ZM1337.94 290.469V332.082H1294.77V290.469H1337.94ZM1294.77 377.335V335.722H1337.94V377.335H1294.77ZM1337.94 380.989V422.601H1294.77V380.989H1337.94ZM1294.77 467.855V426.242H1337.94V467.855H1294.77Z" fill="#222628"/>
<path d="M1294.77 290.469L1337.94 332.081" stroke="#222628" stroke-miterlimit="10"/>
<path d="M1337.94 290.469L1294.77 332.081" stroke="#222628" stroke-miterlimit="10"/>
<path d="M1294.77 335.736L1337.94 377.335" stroke="#222628" stroke-miterlimit="10"/>
<path d="M1337.94 335.736L1294.77 377.335" stroke="#222628" stroke-miterlimit="10"/>
<path d="M1294.77 381.002L1337.94 422.601" stroke="#222628" stroke-miterlimit="10"/>
<path d="M1337.94 381.002L1294.77 422.601" stroke="#222628" stroke-miterlimit="10"/>
<path d="M1294.77 426.255L1337.94 467.868" stroke="#222628" stroke-miterlimit="10"/>
<path d="M1337.94 426.255L1294.77 467.868" stroke="#222628" stroke-miterlimit="10"/>
<path d="M1259.63 293.168L1198.7 232.945L1176.41 279.834L1167.86 284.429C1178.29 299.29 1189.01 314.493 1189.01 314.493L1224.93 334.181L1243.58 490.133H1335.45L1259.62 293.168H1259.63Z" fill="#EAB49F"/>
<path d="M1176.67 288.642L1185.28 303.872L1190.68 293.673L1176.67 288.642Z" fill="#222628"/>
<path d="M1277 163.88C1276.35 165.001 1274.98 165.413 1273.92 164.803C1272.86 164.194 1272.53 162.798 1273.18 161.677L1274.36 159.639L1268.59 156.307L1267.41 158.344C1266.76 159.465 1265.39 159.878 1264.33 159.268C1263.28 158.658 1262.95 157.262 1263.59 156.141L1264.77 154.103L1254.2 148L1159 312.887L1169.57 318.99L1170.1 318.073C1170.75 316.953 1172.12 316.54 1173.18 317.15C1174.23 317.76 1174.56 319.156 1173.92 320.277L1173.39 321.194L1179.16 324.526L1179.69 323.609C1180.34 322.488 1181.71 322.076 1182.77 322.685C1183.82 323.295 1184.15 324.691 1183.5 325.812L1182.98 326.729L1193.55 332.833L1237.11 257.381L1235.5 256.453C1234.61 255.94 1234.33 254.761 1234.88 253.818C1235.42 252.876 1236.58 252.527 1237.47 253.04L1239.08 253.968L1288.74 167.946L1278.17 161.842L1277 163.88Z" fill="#037065"/>
<path d="M1224.92 201.706L1218.8 212.303L1230.69 219.169L1236.81 208.572L1224.92 201.706Z" fill="#353237"/>
<path d="M1238.12 209.327L1232 219.924L1243.89 226.79L1250.01 216.193L1238.12 209.327Z" fill="#353237"/>
<path d="M1233.74 186.423L1227.62 197.019L1239.52 203.885L1245.63 193.288L1233.74 186.423Z" fill="#353237"/>
<path d="M1246.94 194.043L1240.82 204.64L1252.71 211.506L1258.83 200.909L1246.94 194.043Z" fill="#353237"/>
<path d="M1242.57 171.126L1236.46 181.723L1248.35 188.589L1254.47 177.992L1242.57 171.126Z" fill="#353237"/>
<path d="M1255.77 178.747L1249.65 189.344L1261.55 196.209L1267.66 185.613L1255.77 178.747Z" fill="#353237"/>
<path d="M1251.4 155.842L1245.28 166.439L1257.17 173.305L1263.29 162.708L1251.4 155.842Z" fill="#353237"/>
<path d="M1264.6 163.463L1258.48 174.06L1270.37 180.925L1276.49 170.329L1264.6 163.463Z" fill="#353237"/>
<path d="M1169.61 297.51L1163.49 308.107L1175.38 314.973L1181.5 304.376L1169.61 297.51Z" fill="#353237"/>
<path d="M1182.81 305.131L1176.69 315.728L1188.58 322.594L1194.7 311.997L1182.81 305.131Z" fill="#353237"/>
<path d="M1178.43 282.227L1172.31 292.823L1184.2 299.689L1190.32 289.092L1178.43 282.227Z" fill="#353237"/>
<path d="M1191.63 289.847L1185.51 300.444L1197.4 307.31L1203.52 296.713L1191.63 289.847Z" fill="#353237"/>
<path d="M1187.26 266.93L1181.14 277.527L1193.03 284.393L1199.15 273.796L1187.26 266.93Z" fill="#353237"/>
<path d="M1200.46 274.551L1194.34 285.148L1206.23 292.013L1212.35 281.417L1200.46 274.551Z" fill="#353237"/>
<path d="M1196.09 251.634L1189.97 262.23L1201.87 269.096L1207.98 258.499L1196.09 251.634Z" fill="#353237"/>
<path d="M1209.29 259.254L1203.17 269.851L1215.07 276.717L1221.18 266.12L1209.29 259.254Z" fill="#353237"/>
<path d="M1233.3 256.218L1193.03 325.976L1196.39 327.916L1236.66 258.158L1233.3 256.218Z" fill="#FFC034"/>
<path d="M1193.48 325.187L1193.03 325.976L1196.39 327.916L1196.84 327.126L1193.48 325.187Z" fill="#FF9430"/>
<path d="M1194.85 322.818L1194.39 323.607L1197.75 325.547L1198.21 324.757L1194.85 322.818Z" fill="#FF9430"/>
<path d="M1196.22 320.436L1195.77 321.226L1199.13 323.165L1199.58 322.376L1196.22 320.436Z" fill="#FF9430"/>
<path d="M1197.6 318.054L1197.14 318.844L1200.5 320.784L1200.96 319.994L1197.6 318.054Z" fill="#FF9430"/>
<path d="M1198.97 315.685L1198.51 316.475L1201.87 318.415L1202.33 317.625L1198.97 315.685Z" fill="#FF9430"/>
<path d="M1200.34 313.303L1199.89 314.093L1203.25 316.033L1203.7 315.243L1200.34 313.303Z" fill="#FF9430"/>
<path d="M1201.72 310.922L1201.26 311.711L1204.62 313.651L1205.08 312.862L1201.72 310.922Z" fill="#FF9430"/>
<path d="M1203.09 308.54L1202.64 309.33L1206 311.269L1206.45 310.48L1203.09 308.54Z" fill="#FF9430"/>
<path d="M1204.46 306.171L1204 306.961L1207.36 308.9L1207.82 308.111L1204.46 306.171Z" fill="#FF9430"/>
<path d="M1205.84 303.789L1205.38 304.579L1208.74 306.519L1209.2 305.729L1205.84 303.789Z" fill="#FF9430"/>
<path d="M1207.21 301.407L1206.75 302.197L1210.11 304.137L1210.57 303.347L1207.21 301.407Z" fill="#FF9430"/>
<path d="M1208.58 299.038L1208.12 299.828L1211.48 301.768L1211.94 300.978L1208.58 299.038Z" fill="#FF9430"/>
<path d="M1209.95 296.657L1209.5 297.447L1212.86 299.386L1213.31 298.597L1209.95 296.657Z" fill="#FF9430"/>
<path d="M1211.33 294.275L1210.87 295.065L1214.23 297.005L1214.69 296.215L1211.33 294.275Z" fill="#FF9430"/>
<path d="M1212.7 291.906L1212.24 292.696L1215.6 294.636L1216.06 293.846L1212.7 291.906Z" fill="#FF9430"/>
<path d="M1214.07 289.524L1213.61 290.314L1216.97 292.254L1217.43 291.464L1214.07 289.524Z" fill="#FF9430"/>
<path d="M1215.45 287.143L1214.99 287.932L1218.35 289.872L1218.81 289.082L1215.45 287.143Z" fill="#FF9430"/>
<path d="M1216.81 284.774L1216.36 285.563L1219.72 287.503L1220.17 286.713L1216.81 284.774Z" fill="#FF9430"/>
<path d="M1218.19 282.392L1217.73 283.181L1221.09 285.121L1221.55 284.332L1218.19 282.392Z" fill="#FF9430"/>
<path d="M1219.56 280.01L1219.11 280.8L1222.47 282.74L1222.92 281.95L1219.56 280.01Z" fill="#FF9430"/>
<path d="M1220.93 277.641L1220.48 278.431L1223.84 280.371L1224.29 279.581L1220.93 277.641Z" fill="#FF9430"/>
<path d="M1222.31 275.259L1221.85 276.049L1225.21 277.989L1225.67 277.199L1222.31 275.259Z" fill="#FF9430"/>
<path d="M1223.68 272.878L1223.23 273.667L1226.59 275.607L1227.04 274.818L1223.68 272.878Z" fill="#FF9430"/>
<path d="M1225.05 270.509L1224.59 271.298L1227.95 273.238L1228.41 272.449L1225.05 270.509Z" fill="#FF9430"/>
<path d="M1226.42 268.127L1225.97 268.917L1229.33 270.856L1229.78 270.067L1226.42 268.127Z" fill="#FF9430"/>
<path d="M1227.8 265.745L1227.34 266.535L1230.7 268.475L1231.16 267.685L1227.8 265.745Z" fill="#FF9430"/>
<path d="M1229.17 263.376L1228.71 264.166L1232.07 266.106L1232.53 265.316L1229.17 263.376Z" fill="#FF9430"/>
<path d="M1230.54 260.995L1230.09 261.784L1233.45 263.724L1233.9 262.934L1230.54 260.995Z" fill="#FF9430"/>
<path d="M1231.93 258.6L1231.47 259.39L1234.83 261.33L1235.29 260.54L1231.93 258.6Z" fill="#FF9430"/>
<path d="M1233.3 256.218L1232.84 257.008L1236.2 258.948L1236.66 258.158L1233.3 256.218Z" fill="#FF9430"/>
<path d="M1281.93 171.992L1236.16 251.264L1239.52 253.204L1285.29 173.932L1281.93 171.992Z" fill="#FFC034"/>
<path d="M1236.62 250.474L1236.16 251.264L1239.52 253.204L1239.98 252.414L1236.62 250.474Z" fill="#FF9430"/>
<path d="M1237.98 248.105L1237.53 248.895L1240.89 250.835L1241.34 250.045L1237.98 248.105Z" fill="#FF9430"/>
<path d="M1239.36 245.724L1238.9 246.513L1242.26 248.453L1242.72 247.664L1239.36 245.724Z" fill="#FF9430"/>
<path d="M1240.73 243.342L1240.28 244.132L1243.64 246.071L1244.09 245.282L1240.73 243.342Z" fill="#FF9430"/>
<path d="M1242.1 240.973L1241.65 241.763L1245.01 243.702L1245.46 242.913L1242.1 240.973Z" fill="#FF9430"/>
<path d="M1243.48 238.591L1243.02 239.381L1246.38 241.321L1246.84 240.531L1243.48 238.591Z" fill="#FF9430"/>
<path d="M1244.85 236.21L1244.4 236.999L1247.76 238.939L1248.21 238.149L1244.85 236.21Z" fill="#FF9430"/>
<path d="M1246.22 233.84L1245.76 234.63L1249.12 236.57L1249.58 235.78L1246.22 233.84Z" fill="#FF9430"/>
<path d="M1247.6 231.459L1247.14 232.248L1250.5 234.188L1250.95 233.399L1247.6 231.459Z" fill="#FF9430"/>
<path d="M1248.97 229.077L1248.51 229.867L1251.87 231.807L1252.33 231.017L1248.97 229.077Z" fill="#FF9430"/>
<path d="M1250.34 226.708L1249.88 227.498L1253.24 229.438L1253.7 228.648L1250.34 226.708Z" fill="#FF9430"/>
<path d="M1251.71 224.326L1251.26 225.116L1254.62 227.056L1255.07 226.266L1251.71 224.326Z" fill="#FF9430"/>
<path d="M1253.09 221.945L1252.63 222.734L1255.99 224.674L1256.45 223.884L1253.09 221.945Z" fill="#FF9430"/>
<path d="M1254.46 219.576L1254 220.365L1257.36 222.305L1257.82 221.516L1254.46 219.576Z" fill="#FF9430"/>
<path d="M1255.83 217.194L1255.38 217.984L1258.74 219.923L1259.19 219.134L1255.83 217.194Z" fill="#FF9430"/>
<path d="M1257.21 214.812L1256.75 215.602L1260.11 217.542L1260.57 216.752L1257.21 214.812Z" fill="#FF9430"/>
<path d="M1258.57 212.443L1258.12 213.233L1261.48 215.173L1261.93 214.383L1258.57 212.443Z" fill="#FF9430"/>
<path d="M1259.95 210.061L1259.49 210.851L1262.85 212.791L1263.31 212.001L1259.95 210.061Z" fill="#FF9430"/>
<path d="M1261.32 207.68L1260.87 208.469L1264.23 210.409L1264.68 209.619L1261.32 207.68Z" fill="#FF9430"/>
<path d="M1262.7 205.298L1262.24 206.088L1265.6 208.027L1266.06 207.238L1262.7 205.298Z" fill="#FF9430"/>
<path d="M1264.07 202.929L1263.61 203.719L1266.97 205.658L1267.43 204.869L1264.07 202.929Z" fill="#FF9430"/>
<path d="M1265.44 200.547L1264.99 201.337L1268.35 203.277L1268.8 202.487L1265.44 200.547Z" fill="#FF9430"/>
<path d="M1266.82 198.166L1266.36 198.955L1269.72 200.895L1270.18 200.105L1266.82 198.166Z" fill="#FF9430"/>
<path d="M1268.18 195.797L1267.73 196.586L1271.09 198.526L1271.54 197.736L1268.18 195.797Z" fill="#FF9430"/>
<path d="M1269.56 193.415L1269.1 194.204L1272.46 196.144L1272.92 195.355L1269.56 193.415Z" fill="#FF9430"/>
<path d="M1270.93 191.033L1270.48 191.823L1273.84 193.763L1274.29 192.973L1270.93 191.033Z" fill="#FF9430"/>
<path d="M1272.3 188.664L1271.85 189.454L1275.21 191.394L1275.66 190.604L1272.3 188.664Z" fill="#FF9430"/>
<path d="M1273.68 186.282L1273.22 187.072L1276.58 189.012L1277.04 188.222L1273.68 186.282Z" fill="#FF9430"/>
<path d="M1275.06 183.888L1274.6 184.678L1277.96 186.617L1278.42 185.828L1275.06 183.888Z" fill="#FF9430"/>
<path d="M1276.44 181.506L1275.98 182.296L1279.34 184.236L1279.8 183.446L1276.44 181.506Z" fill="#FF9430"/>
<path d="M1277.8 179.137L1277.35 179.927L1280.71 181.867L1281.16 181.077L1277.8 179.137Z" fill="#FF9430"/>
<path d="M1279.18 176.755L1278.72 177.545L1282.08 179.485L1282.54 178.695L1279.18 176.755Z" fill="#FF9430"/>
<path d="M1280.55 174.374L1280.1 175.163L1283.46 177.103L1283.91 176.314L1280.55 174.374Z" fill="#FF9430"/>
<path d="M1281.92 172.005L1281.47 172.794L1284.82 174.734L1285.28 173.944L1281.92 172.005Z" fill="#FF9430"/>
<path d="M1219.94 243.075L1201.05 231.459C1197.25 229.182 1192.21 230.327 1190.03 234.158C1188.53 236.803 1188.72 240.526 1190.63 243.143L1187.9 241.521C1184.11 239.244 1179.18 240.444 1176.88 244.22C1174.59 247.997 1175.81 252.906 1179.6 255.183L1182.16 256.764C1178.47 254.978 1173.95 256.246 1171.79 259.805C1169.49 263.582 1170.71 268.49 1174.5 270.767L1177.01 272.28C1173.52 271.108 1169.56 272.458 1167.59 275.716C1165.3 279.493 1166.51 284.401 1170.3 286.678L1186.57 296.454C1190.36 298.731 1196.55 298.5 1198.75 294.682C1201.15 290.51 1199.16 286.079 1195.97 283.57C1199.87 285.192 1205.69 284.511 1207.63 280.993C1209.43 277.693 1207.93 273.698 1205.3 271.053C1209.13 273.167 1215.66 272.635 1217.75 268.64C1219.68 264.931 1217.67 259.259 1213.88 256.982L1212.85 256.382C1216.59 257.828 1221.48 257.31 1223.41 253.806C1225.07 250.765 1224.84 246.497 1219.94 243.102V243.075Z" fill="#EAB49F"/>
<path d="M1259.73 298.609L1258.69 242.625C1258.98 239.435 1257.41 236.367 1254.66 234.717L1226.92 212.302C1220.6 208.498 1215.92 219.092 1217.65 226.236C1218.85 231.199 1224.93 240.212 1232.53 246.729L1229.45 263.213C1229.45 263.213 1220.43 272.09 1220.26 290.469C1219.96 322.169 1234.75 324.133 1234.75 324.133L1259.71 298.609H1259.73Z" fill="#EAB49F"/>
<path d="M1229.46 263.213C1229.46 263.213 1220.45 272.089 1220.27 290.469C1219.97 322.169 1234.76 324.132 1234.76 324.132" stroke="#222628" stroke-width="0.5" stroke-miterlimit="10" stroke-linecap="round"/>
<path d="M1191.56 243.866L1211.39 255.619" stroke="#222628" stroke-width="0.5" stroke-miterlimit="10" stroke-linecap="round"/>
<path d="M1182.99 257.282L1204.45 270.535" stroke="#222628" stroke-width="0.5" stroke-miterlimit="10" stroke-linecap="round"/>
<path d="M1177.68 272.689L1195.29 283.161" stroke="#222628" stroke-width="0.5" stroke-miterlimit="10" stroke-linecap="round"/>
<path d="M1222.45 214.497C1222.45 214.497 1230.69 222.051 1232.6 223.196C1235 224.627 1238.21 222.282 1238.21 222.282" stroke="#222628" stroke-width="0.5" stroke-miterlimit="10" stroke-linecap="round"/>
<path d="M1224.93 334.181L1243.6 324.937L1227.14 346.534L1224.93 334.181Z" fill="#222628"/>
<path d="M1186.48 292.323C1186.48 292.323 1187.44 288.805 1191.21 284.96" stroke="#222628" stroke-width="0.5" stroke-miterlimit="10" stroke-linecap="round"/>
<path d="M1193.72 277.243C1193.72 277.243 1194.68 273.726 1198.45 269.881" stroke="#222628" stroke-width="0.5" stroke-miterlimit="10" stroke-linecap="round"/>
<path d="M1203.55 265.517C1203.55 265.517 1204.51 262 1208.29 258.155" stroke="#222628" stroke-width="0.5" stroke-miterlimit="10" stroke-linecap="round"/>
<path d="M1211.39 251.679C1211.39 251.679 1212.35 248.161 1216.13 244.316" stroke="#222628" stroke-width="0.5" stroke-miterlimit="10" stroke-linecap="round"/>
<path d="M1476.31 347.625H1473.76V490.133H1476.31V347.625Z" fill="#222628"/>
<path d="M1436.36 363.223H1433.81V434.477H1436.36V363.223Z" fill="#222628"/>
<path d="M1504.55 347.625H1502V490.133H1504.55V347.625Z" fill="#222628"/>
<path d="M1503.28 361.123H1423.57V365.336H1503.28V361.123Z" fill="#222628"/>
<path d="M1446.34 450.988C1445.05 449.911 1442.43 451.547 1440.95 454.97C1439.81 457.574 1438.5 460.396 1434.93 460.587C1432.41 460.723 1430.36 458.542 1430.36 456.019C1430.36 454.097 1431.55 452.461 1433.23 451.779C1433.34 451.725 1436.38 449.666 1437.47 448.616C1438.15 447.975 1438.6 446.952 1438.82 446.189C1438.94 445.766 1439.32 445.48 1439.76 445.48H1439.95C1440.69 445.48 1441.31 444.921 1441.34 444.185C1441.37 443.435 1440.75 442.808 1440 442.808H1439.05C1438.45 442.808 1437.97 442.317 1437.97 441.73V434.463H1432.23V443.026C1432.23 444.048 1431.62 444.962 1430.66 445.344C1426.57 446.993 1423.62 450.947 1423.45 455.583C1423.22 462.141 1428.47 467.527 1434.97 467.5C1440.97 467.486 1446.22 462.4 1446.43 456.401C1446.44 455.897 1446.43 455.406 1446.39 454.929C1446.33 454.302 1446.37 453.661 1446.56 453.074C1446.85 452.175 1446.85 451.452 1446.36 450.975L1446.34 450.988Z" fill="#FFAD2D"/>
<path d="M1474.8 363.918L1503.53 391.61" stroke="#222628" stroke-width="0.67" stroke-miterlimit="10"/>
<path d="M1503.53 363.918L1474.8 391.61" stroke="#222628" stroke-width="0.67" stroke-miterlimit="10"/>
<path d="M1474.8 394.187L1503.53 421.879" stroke="#222628" stroke-width="0.67" stroke-miterlimit="10"/>
<path d="M1503.53 394.187L1474.8 421.879" stroke="#222628" stroke-width="0.67" stroke-miterlimit="10"/>
<path d="M1474.8 424.456L1503.53 452.147" stroke="#222628" stroke-width="0.67" stroke-miterlimit="10"/>
<path d="M1503.53 424.456L1474.8 452.147" stroke="#222628" stroke-width="0.67" stroke-miterlimit="10"/>
<path d="M1474.8 454.724L1503.53 482.416" stroke="#222628" stroke-width="0.67" stroke-miterlimit="10"/>
<path d="M1503.53 454.724L1474.8 482.416" stroke="#222628" stroke-width="0.67" stroke-miterlimit="10"/>
<path d="M1502 480.944H1476.31V485.034H1502V480.944Z" fill="#222628"/>
<path d="M1132 490.133H1669.84" stroke="#222628" stroke-miterlimit="10"/>
</g>
</svg>
