<svg width="5" height="8" viewBox="0 0 5 8" fill="none" xmlns="http://www.w3.org/2000/svg">
<path d="M4.37782 3.68784L0.969161 0.127804C0.890323 0.045398 0.78508 0 0.672864 0C0.560647 0 0.455405 0.045398 0.376567 0.127804L0.125543 0.389915C-0.0377999 0.560711 -0.0377999 0.838302 0.125543 1.00884L2.98788 3.99834L0.122367 6.99116C0.0435291 7.07357 0 7.18342 0 7.30056C0 7.41783 0.0435291 7.52768 0.122367 7.61015L0.373391 7.8722C0.452292 7.9546 0.557471 8 0.669688 8C0.781905 8 0.887147 7.9546 0.965985 7.8722L4.37782 4.30891C4.45684 4.22624 4.50025 4.11587 4.5 3.99854C4.50025 3.88075 4.45684 3.77044 4.37782 3.68784Z" fill="#5D5D62"/>
</svg>
