<svg width="20" height="20" viewBox="0 0 20 20" fill="none" xmlns="http://www.w3.org/2000/svg">
<path fill-rule="evenodd" clip-rule="evenodd" d="M13.23 1.75C12.3187 1.75 11.58 2.48873 11.58 3.4C11.58 4.31127 12.3187 5.05 13.23 5.05C14.1413 5.05 14.88 4.31127 14.88 3.4C14.88 2.48873 14.1413 1.75 13.23 1.75ZM10.1368 2.80124C10.4165 1.34789 11.695 0.25 13.23 0.25C14.765 0.25 16.0435 1.34789 16.3232 2.80124H18.75C19.1642 2.80124 19.5 3.13702 19.5 3.55124C19.5 3.96545 19.1642 4.30124 18.75 4.30124H16.2492C15.8615 5.60177 14.6565 6.55 13.23 6.55C11.8035 6.55 10.5985 5.60177 10.2108 4.30124H0.750002C0.335792 4.30124 2.36837e-06 3.96545 2.36837e-06 3.55124C2.36837e-06 3.13702 0.335792 2.80124 0.750002 2.80124H10.1368ZM4.83 8.35C3.91873 8.35 3.18 9.0887 3.18 10C3.18 10.9113 3.91873 11.65 4.83 11.65C5.74127 11.65 6.48 10.9113 6.48 10C6.48 9.0887 5.74127 8.35 4.83 8.35ZM1.7657 9.2672C2.096 7.88089 3.34261 6.85 4.83 6.85C6.32709 6.85 7.58026 7.89439 7.9007 9.2943C7.9067 9.2942 7.9129 9.2941 7.919 9.2941H18.75C19.1642 9.2941 19.5 9.6299 19.5 10.0441C19.5 10.4583 19.1642 10.7941 18.75 10.7941H7.919C7.9057 10.7941 7.8925 10.7938 7.8793 10.7931C7.5277 12.1489 6.29577 13.15 4.83 13.15C3.35502 13.15 2.11681 12.1362 1.77415 10.7674L0.769662 10.7938C0.355592 10.8046 0.0111225 10.4778 0.000262483 10.0637C-0.0105875 9.6496 0.316282 9.3051 0.730352 9.2943L1.7657 9.2672ZM13.23 14.95C12.3187 14.95 11.58 15.6887 11.58 16.6C11.58 17.5113 12.3187 18.25 13.23 18.25C14.1413 18.25 14.88 17.5113 14.88 16.6C14.88 15.6887 14.1413 14.95 13.23 14.95ZM10.186 15.7868C10.5445 14.4413 11.7715 13.45 13.23 13.45C14.6885 13.45 15.9155 14.4413 16.274 15.7868H18.75C19.1642 15.7868 19.5 16.1226 19.5 16.5368C19.5 16.951 19.1642 17.2868 18.75 17.2868H16.3049C15.9915 18.6962 14.7338 19.75 13.23 19.75C11.7262 19.75 10.4685 18.6962 10.1551 17.2868H0.750002C0.335792 17.2868 1.2382e-05 16.951 1.2382e-05 16.5368C1.2382e-05 16.1226 0.335792 15.7868 0.750002 15.7868H10.186Z" fill="#2667B2"/>
</svg>
