<svg width="22" height="13" viewBox="0 0 22 13" fill="none" xmlns="http://www.w3.org/2000/svg">
<path fill-rule="evenodd" clip-rule="evenodd" d="M21.2892 8.81283H22V6.68295C22 6.57316 21.9806 6.47932 21.9367 6.37695L20.4537 2.91749C20.3113 2.58519 19.9753 2.37705 19.5813 2.37705H16.1711V11.5185H16.5083C16.5083 10.3059 17.5009 9.32245 18.7249 9.32245C19.9489 9.32245 20.9415 10.3059 20.9415 11.5185H21.4392C21.748 11.5185 21.9999 11.269 21.9999 10.963V10.2002H21.2892C21.1469 10.2002 21.0307 10.0851 21.0307 9.94409V9.06889C21.0308 8.92784 21.1469 8.81283 21.2892 8.81283ZM16.5991 6.40634V3.51569H19.4616L20.7007 6.40634H16.5991ZM14.7022 0C10.4782 0 6.25427 0 2.03031 0C1.83114 0 1.66966 0.159989 1.66966 0.357317C1.66966 0.554646 1.83114 0.714634 2.03031 0.714634H4.02907C4.37931 0.714634 4.66585 0.998522 4.66585 1.34552C4.66585 1.69252 4.37931 1.97641 4.02907 1.97641H0.843258H0.360656C0.161484 1.97641 0 2.1364 0 2.33373C0 2.53106 0.161484 2.69104 0.360656 2.69104H3.45819C3.80843 2.69104 4.09498 2.97493 4.09498 3.32193C4.09498 3.66893 3.80843 3.95282 3.45819 3.95282H1.37581C1.17664 3.95282 1.01516 4.11281 1.01516 4.31014C1.01516 4.50747 1.17664 4.66745 1.37581 4.66745H4.37061C4.72085 4.66745 5.00739 4.95134 5.00739 5.29834C5.00739 5.64534 4.72085 5.92923 4.37061 5.92923C3.03397 5.92923 1.69729 5.92919 0.360656 5.92923C0.161484 5.92923 0 6.08922 0 6.28655C0 6.48388 0.161484 6.64387 0.360656 6.64387H3.45819V10.7779C3.45819 11.1859 3.79405 11.5186 4.20583 11.5186H5.75268C5.75268 10.306 6.74534 9.32254 7.96927 9.32254C9.19325 9.32254 10.1859 10.306 10.1859 11.5186H15.4498V0.740718C15.4499 0.332752 15.114 0 14.7022 0ZM7.96932 10.0371C7.14346 10.0371 6.47404 10.7004 6.47404 11.5186C6.47404 12.3368 7.14351 13 7.96932 13C8.79518 13 9.46464 12.3367 9.46464 11.5186C9.46464 10.7004 8.79518 10.0371 7.96932 10.0371ZM7.96932 12.0233C7.68774 12.0233 7.45985 11.7975 7.45985 11.5186C7.45985 11.2396 7.68774 11.0138 7.96932 11.0138C8.2509 11.0138 8.47879 11.2396 8.47879 11.5186C8.47879 11.7975 8.2509 12.0233 7.96932 12.0233ZM18.7249 10.0371C17.8991 10.0371 17.2296 10.7004 17.2296 11.5186C17.2296 12.3368 17.8991 13 18.7249 13C19.5508 13 20.2202 12.3367 20.2202 11.5186C20.2203 10.7004 19.5508 10.0371 18.7249 10.0371ZM18.7249 12.0233C18.4433 12.0233 18.2155 11.7975 18.2155 11.5186C18.2155 11.2396 18.4433 11.0138 18.7249 11.0138C19.0065 11.0138 19.2344 11.2396 19.2344 11.5186C19.2344 11.7975 19.0065 12.0233 18.7249 12.0233Z" fill="#479B30"/>
</svg>
