<svg width="20" height="22" viewBox="0 0 20 22" fill="none" xmlns="http://www.w3.org/2000/svg">
<path d="M9.99911 10.9174C8.94427 10.9174 7.91313 10.5972 7.03607 9.99741C6.159 9.3976 5.47542 8.54507 5.07175 7.54763C4.66808 6.55018 4.56246 5.45263 4.76825 4.39375C4.97404 3.33487 5.48199 2.36222 6.22787 1.59881C6.97375 0.835403 7.92406 0.315514 8.95863 0.104889C9.99319 -0.105735 11.0655 0.00236513 12.0401 0.41552C13.0146 0.828674 13.8476 1.52833 14.4336 2.426C15.0196 3.32368 15.3324 4.37906 15.3324 5.45868C15.3309 6.90592 14.7685 8.29342 13.7686 9.31678C12.7688 10.3401 11.4131 10.9158 9.99911 10.9174ZM9.99911 1.5163C9.23728 1.5163 8.49257 1.74752 7.85913 2.18071C7.2257 2.61391 6.732 3.22962 6.44046 3.95C6.14892 4.67037 6.07264 5.46305 6.22127 6.2278C6.36989 6.99255 6.73675 7.69501 7.27544 8.24636C7.81413 8.79772 8.50046 9.17319 9.24765 9.32531C9.99484 9.47743 10.7693 9.39935 11.4731 9.10096C12.177 8.80258 12.7786 8.29727 13.2018 7.64895C13.6251 7.00063 13.851 6.23841 13.851 5.45868C13.8498 4.41347 13.4436 3.41141 12.7215 2.67233C11.9994 1.93325 11.0203 1.51751 9.99911 1.5163Z" fill="#5D5D62"/>
<path d="M19.2593 22.0001C19.0628 22.0001 18.8744 21.9202 18.7355 21.778C18.5966 21.6359 18.5185 21.443 18.5185 21.2419V19.3678C18.517 17.9282 17.9575 16.548 16.9629 15.5301C15.9684 14.5121 14.6199 13.9395 13.2133 13.9379H6.78667C5.38013 13.9395 4.03164 14.5121 3.03707 15.5301C2.04249 16.548 1.48305 17.9282 1.48148 19.3678V21.2419C1.48148 21.443 1.40344 21.6359 1.26452 21.778C1.12561 21.9202 0.937197 22.0001 0.740741 22.0001C0.544284 22.0001 0.355874 21.9202 0.216958 21.778C0.0780421 21.6359 0 21.443 0 21.2419V19.3678C0.00215635 17.5262 0.71787 15.7607 1.99015 14.4586C3.26243 13.1564 4.98739 12.4238 6.78667 12.4216H13.2126C15.012 12.4236 16.7371 13.1561 18.0096 14.4583C19.282 15.7605 19.9978 17.5261 20 19.3678V21.2419C20 21.443 19.922 21.6359 19.783 21.778C19.6441 21.9202 19.4557 22.0001 19.2593 22.0001Z" fill="#5D5D62"/>
</svg>
